<mxfile host="app.diagrams.net" modified="2023-10-03T16:18:20.507Z" agent="Mozilla/5.0 (Windows NT 10.0; Win64; x64) AppleWebKit/537.36 (KHTML, like Gecko) Chrome/117.0.0.0 Safari/537.36 Edg/117.0.2045.47" etag="4NQj1dlfqOwbxj0ePQNz" version="22.0.0" type="github" pages="2">
  <diagram name="第 1 页" id="cJGqLyPYbA3kcurj-4Bi">
    <mxGraphModel dx="1354" dy="691" grid="1" gridSize="10" guides="1" tooltips="1" connect="1" arrows="1" fold="1" page="1" pageScale="1" pageWidth="827" pageHeight="1169" math="0" shadow="0">
      <root>
        <mxCell id="0" />
        <mxCell id="1" parent="0" />
        <mxCell id="k9qT21ym4J0Swm9wOZpl-1" value="" style="html=1;shadow=0;dashed=0;align=center;verticalAlign=middle;shape=mxgraph.arrows2.arrow;dy=0.79;dx=9.77;notch=0;gradientColor=default;fillColor=#330000;fontFamily=Times New Roman;fontStyle=1;fontSize=16;" parent="1" vertex="1">
          <mxGeometry x="203" y="194.04166666666669" width="650" height="10.260416666666668" as="geometry" />
        </mxCell>
        <mxCell id="k9qT21ym4J0Swm9wOZpl-2" value="" style="html=1;shadow=0;dashed=0;align=center;verticalAlign=middle;shape=mxgraph.arrows2.arrow;dy=0.79;dx=9.77;notch=0;gradientColor=default;fillColor=#330000;fontFamily=Times New Roman;fontStyle=1;fontSize=16;" parent="1" vertex="1">
          <mxGeometry x="203" y="286.3854166666667" width="650" height="10.260416666666668" as="geometry" />
        </mxCell>
        <mxCell id="k9qT21ym4J0Swm9wOZpl-4" value="" style="endArrow=none;html=1;rounded=1;strokeWidth=4;fontFamily=Times New Roman;fontStyle=1;fontSize=16;" parent="1" edge="1">
          <mxGeometry width="50" height="50" relative="1" as="geometry">
            <mxPoint x="202" y="430" as="sourcePoint" />
            <mxPoint x="202" y="130" as="targetPoint" />
          </mxGeometry>
        </mxCell>
        <mxCell id="k9qT21ym4J0Swm9wOZpl-8" value="1" style="rounded=0;whiteSpace=wrap;html=1;fillColor=#dae8fc;strokeColor=#6c8ebf;fontFamily=Times New Roman;fontStyle=1;fontSize=16;" parent="1" vertex="1">
          <mxGeometry x="230" y="244.88" width="30" height="45.145833333333336" as="geometry" />
        </mxCell>
        <mxCell id="k9qT21ym4J0Swm9wOZpl-9" value="2" style="rounded=0;whiteSpace=wrap;html=1;fillColor=#d5e8d4;strokeColor=#82b366;fontFamily=Times New Roman;fontStyle=1;fontSize=16;" parent="1" vertex="1">
          <mxGeometry x="263" y="153.181875" width="30" height="44.11979166666667" as="geometry" />
        </mxCell>
        <mxCell id="k9qT21ym4J0Swm9wOZpl-10" value="TX" style="rounded=0;whiteSpace=wrap;html=1;fillColor=#fff2cc;strokeColor=#d6b656;fontFamily=Times New Roman;fontStyle=1;fontSize=16;" parent="1" vertex="1">
          <mxGeometry x="323" y="153.18" width="187" height="44.12" as="geometry" />
        </mxCell>
        <mxCell id="k9qT21ym4J0Swm9wOZpl-11" value="" style="html=1;shadow=0;dashed=0;align=center;verticalAlign=middle;shape=mxgraph.arrows2.arrow;dy=0.79;dx=9.77;notch=0;gradientColor=default;fillColor=#330000;fontFamily=Times New Roman;fontStyle=1;fontSize=16;" parent="1" vertex="1">
          <mxGeometry x="203" y="379.9954166666667" width="650" height="10.260416666666668" as="geometry" />
        </mxCell>
        <mxCell id="k9qT21ym4J0Swm9wOZpl-12" value="1" style="rounded=0;whiteSpace=wrap;html=1;fillColor=#dae8fc;strokeColor=#6c8ebf;fontFamily=Times New Roman;fontStyle=1;fontSize=16;" parent="1" vertex="1">
          <mxGeometry x="620" y="244.88" width="30" height="45.145833333333336" as="geometry" />
        </mxCell>
        <mxCell id="k9qT21ym4J0Swm9wOZpl-17" value="" style="shape=image;verticalLabelPosition=bottom;labelBackgroundColor=default;verticalAlign=top;aspect=fixed;imageAspect=0;image=data:image/png,iVBORw0KGgoAAAANSUhEUgAAAL8AAACuCAYAAABnYNw4AAAAAXNSR0IArs4c6QAAAARnQU1BAACxjwv8YQUAAAAJcEhZcwAAEnQAABJ0Ad5mH3gAACeWSURBVHhe7Z3Zjx3HdcaLnOEMF3HfF3GXKGoXbUmUZNnyJq8xkjgBAj8kD8ljgvwNQRAgQB5ixA8B/BIYgYEgQQJ4iRMLkWyJoizJ1mbKkiiKm7iKIsVFGpLDGZL5ftW3R6OZvt1V3dW3ezj1QVf3cubOvbV859Q5p06dmnFdMBER0xAzO88REdMOkfwR0xaR/BHTFpH8EdMWrSb/lavGnL1szPBo5wcREQHRymjPhWFj3hsy5tRHxpy+aMy2pXosV2M7v49oP65IYfX3Sbu2eNJaRf4zIvqxCyK+nk+I+Cj8GRq8VbONeXSDMTcNJO+LaDc+uGTMa6eMGZRdsWKeMTcv1GsJQtvQCvJj2uw7k2j5kyL9VbUI0tOymRq0AT2+sN6YtQs6fxDRWly9ZsxvRfxXT2v+9HqOBGDpHGNWSgi2LjFmXosUWKPkHxox5ncaqPdEeDQ9KySNgfiAlvG6f5YxO1YYc5cebV5GI4y5qDn9+X5pfym0a0ymBKB/UJpfr+fred18Y7bLhJ3dn7y/STRG/rel6fd9INJ/mBA+RVZr+qUtVsv0+exGaQ4JQkR7gSL76T7Leav5U0eNyMoMreBz9RgU8fHj7pAQNImek/+CNMILx5NBGr46bpByMEMjN6ABe3yThOCmzg8jWgfM1VdPyt7Xg9efYFZnWecJU3a+5pM5/dQa+QQNmbM9C3UyDvvPGvN/B4x595wxl0V87MMi4lvoj0fk/SIwdimNaCVGNKfvaEW3Cm3iPHX+zdNVve/csDGnhox5/ogxz+lxuYFwdk/IT8fo5C8PJbag+m6uuZC+AwYSbXHkvDGXGhikCDecvWTMh1f8FNR5CQHm74/3JiZwL5Vb7eRnMJ4R6V+XY8tSaDtXooOjIv0ZOVMfabB6OD4RjmBeD1+QfyZG+cQk+Ds2M+HJ04eTAMioh2KsglrJT7wXM+eIBmUslOMJoj19sg3ts/59Rp/ZWy8lwgUQdr9MnhE9+84P70cxIgAvyh/cfVRKTq/rRm3kPyrCP7E/WQozbcACQPZZnZjwPLF+w0Jjdq425rZlarSPaonoCdiRR4OXVkz6OysEIssRmcZYCyjPOlFLtOcdObbPvZvk5FwvofHR9PzN4tnGLJ9rzK1LjFkZozytBQz6hcj6rnyyMpo/C32zNPeDxjy4LtkgqwPByb/3tDG/0rI1ok+1n+zx6Ti1aPz5emZL/BaRfllNHY8IB+b5X/fohVbqEflkVwMEJeABWCHl98BaY1bPT/4dEkHJT5hr9xENgF5fI6TjAWvXqyXbRPjNi9TZmMowpfCGlN7Zi9L+MnevyJgekc1OGNuSqyTDEADYuUwCsFMrwJrAAhCM/Di1u2TqEIokjusKOjgo82aBBuzulbLtRfy+jtRHTC3AJNJU3pcQ7P9AwiABYBVISVwKcEFChAXw0M1hNzmDkJ9ktN/IS7epCjTW8RNnivB8+90rZNfLkcXGj7gxgLN6UnzYc8qYIc3xaJXojTgFrcgQfUQCwEoQApXJT0bmKyeMOSxnh3CX66dh5sxSjx5VZ7DviQ9H3Hgg2ve2VoE3JATXNMdV/AGifDi/j22SXxggO7QS+S/LuH9JxN8rW39SLkcOSFSbp4F4ZH2S5RdxYwOlyMEkAiFn5RD77O6PB+YTD3KBvrS5unlcifyvvWfMq+/LwZEQOOXoCLMGkxDWTnnwoZaviOrYo7l8U07r5sXGbJMJGkKzTgRpLr+WefyOVgLygMoA8pPZy37PjtWdH5ZEafJj5+86khw5RJJdPmVANj2pyQ/Lcye3uy7QFAb60Nkky/A+DRITWlFR3LBgvP57nzGnSR2RIsO82CAhuHN5chAFwoUC6QyQf9dh68d6O8JW++uZdt2zKhHWsihFfrahXzgmO/9cpwNFWl+tnSUbf7U0/Wc4jlhTTj67gxyQeUOrEecFSJlm72ClvvcrW9SG6Fdk4uSQyHjImHOd8CTzNVOsIOV485LkENECKauAMmCVJ6kvl9gVLuLPRHQEgMjPw/IZl0gQysCbDrTzgCT3iAbMKSVZrewTAZdJ4+9UQ+si/ofSWi9Ly/9orzG/1RJOyjRijYNFFGqYzYeITJAtS3blGDRuTCur514pkp9oTN+WSRSyisYqEfcbt0qoZF7BDy+ofWjsU2rz79Q+/M0y8Cb/BxcT25Dl0WU5JJy5QBrkQdn4i2owddDunP99QlrkVUifkjwdkI6WIOWinIF3Y2NUY8LZ6T6RMEuRWSHQmJJzTwoDOfihhpHQ9te0Ii8qIQDMKRyk4MEhLJASjfIiP3kb2NCc08RfKSITxB9QKzmtQ4w2NJg0JmW32kRcmcmb1CT9gL0Hwm0ZczvtAXnOaeyupkpjAphjxg0hOaIVlLRjfKkyZMvCAgnAFzcnipFgiCvSduFzviXtz8rvCy/yH9dAHXC081kVcITZta3ilGSBgT+odjx1MHGerlxOBqMbaOs5vee8HhGfBCbhRQe7Ox3f8xIUQpbE7ctGbCZikQSA0jSEvwc97fc+/Q0ZpSTV+Z4DcCY/9h4xfTajijQ+IGJAqQo88pAgbfZltYMl+IK0lUNTLOgoSXcRH4OcefJxCAq4jKNdWTWvF8UFQpY8rngSrhtsApsshHkykW1WrwPgoW232vSOFPP7EgIfOJOfo2ZnMXcYAIeRwrHFzle7guGSvp80Cmx7xtwmzzmyn/ezWpR1jm5EEOU5hcnj4chawumBGURU7QUyeAOtAOvJ5F0g8us1JrMLsC6wBIhAkmWAae4Kp6+gc2xoXdMguRCfagv3r5MUB9woSTdI3pRzC3yzRhESIj6E2CISJUbuzUyZHC5zOh5WAPQM6YgCMS8hgLXAfsx6CQCrkStoD6nUB6T9T3tofyfyE02xB1McB2mjJHiTHqGAqcMA71fnaEPZ7XGrrWSrRiREI0V4DnOq12har82sDhcQAFLZXzmZ/LsqKGbFzi0RQlcH2HJCbScqRYUQ15WokPz0kcy8Tl9zweD168HhA6+BzAHfSx2YA9JSpEqXIT4rEZM7S9pkoTRdRDI/pI8/vtGYL+qxrONo+s4b8zOsOcGfwjQOARxgVoCZ+lxX8wd/BGsA7U9ZFBcUfjS7uAgSy2QRGLhPifhsXIQC0ZzXNbCjkmpvU6eD+fI/SIX9o9uNuTewAz6VQWIYocZNEoKvbDXm8xuMmaux8tVbaF5s7t9KSfk6nd1w+3JjVpJa4Uh+YNPpxVM2YV34WvjRb8qpGVLHioCNRsLRlsX+2qMbsM9fkrlDP3wOyAA0EmXx2P7+/duSRCiqPFP0NuKTYL7maKy2LJWC2J6crSCE6CMFCAAZm88f8w85ZgHBvGdlUt7Q1f5H+2Oec6rMxfHNJT+5+ki0CxhA29hA6QsInD0IIdL7RCNox4BIvkFO0x9sM+bOFYkd6TGP0xaMEQrjs+sTpUF9fR9FhklK6JT0khBYJZ9kzU0JqX0mkBwuIntFPmou+dk2Jo5b+CH6FDiPA4UjVRV8HY7LCWkSH+KjIdiHuFua68taxlnSI/wB4bdrDL8kM4iV0ifyMqzJO6C5o7RkVdCOT69JwuauQgh3cHg5Y1K0C92V/PwhCU/kzhSBwyk4KKEuj+CSCvLL2bl1BRM0W735jDQW0YJ4Drg61ssX4NAIl0xQJt4J4g0Opz3g5GB6FIFwOTWbLKtdoPdh8rACfSJZLwNdyc/xM0KDRdEV643rPZgZIY4i8p34GZf1mUWSm4I2sDP40DpjbpHd2mawyZYe8KY0H/snHAMlZ4qSjjj4JI/5bNbUibVazR+VGTR3UApFY+wCOEMfKFwWAqTIcLOLjwmGBcJY5qFrPj8TwaQUFYYlFsu1QdiJITa1GLQfvaUXanyRuQWsyaX3ciSSdIq2gqjZIa2kmJKMLaFBIiOjaj8rJ4llfSINhzRYRaldv1Gal0fo3ChfoIQQ1FeklIblixXNCyRFUG5R2zmxR4i5Kqj+xxg6UMKCNnAa7U/u7PwgA13Jz0EDCo8ixXmdhfwPrjLmdk1YVTDITx5MCOJCfMJgOEPkhNxb8UhbXeBQzW+OGfPMu8a8JC3PpBCy5Xmsj+mzfmZ/rj7NQMvq+R457J+T7U2OFBqwKbDDTioDOTTdMkBT0Af6tEiCjOPM6lEVp7RaohRdeGGhNrBaEOlb2GWzLNNQIVxEZ/mevC/Dzp6h94WK6xNdQrpdQeO3cNKoQVJ0A6m2P9xjzN8/a8w//loCoFXUbsSwkmpMbQTDDjDv7iD9OS8Zf/0bc+h7rxjzD7uN+cGriT/UBIiYMc4LNOdFO6+WMyIfNjfh6k6XKoHENzS5FSwXqA2cRsszvTLJTw19YCcq58tY2jiRs9gzDbUbWFoZOFfpTpPnbEy6ReB00d88bcz3X5LjLvMmk+gu6Lz/mjTtW/qc771ozN8+k2jgJsBxQUyyPrWriIQ0HauB/CFu46kKPu9W+XM++w/sPHNeoRsyacPhBjSX/ZKcCSMCQCHZELF9VpuDZ/XCVbKFHYTBAq06oYC5+Hci6C6ZOmShjhG/CvT3dvdSj93HjfmnFzp+UQOAgIs15rOKwsj0We09o3lNlWkV0H18OhtBchxPxiyv0nM2+UV8DhbnERHJJxQ5hxhs52dVcEwawrXoFbY+ewrU9GwT/mefMf8sE2cfJ51Ix6AvjhNViM5nYQ5xKu0Hrxnz779LftVLYP6QE8QlyUWpB/DiirhE2DHEri9cs+kXjoSzXNIDZZ6FzOajsezGRs7EEWVB6Ya6HRHH0DXXnk6Ro9Mmc4dSHN9/WT7LebUvwETngf4f1ff8m3yKn77d+WEPQfXshZp3l3O3mD6kGXP0tSrgvN1IdfheC40TU/EBVkwGJtEH8wONxTVAeRI2UxoAW3+JzJ6q4PtwjFwkGqFboiV3RcCCpVVxTET87vMipFavXoFJpTjwf0j74xT3Emhg5p3d97w5Q0ghKjfqX3RMk8kD+0hUa7O+qANoG4EbVp4sTCK/rbKsRudpfUDHiOszEFVBbJ+G2GWqAAgKGX/E9tsA2vNd2eAQsW6NPxEM11sSvH95JVmtewnObMyVAiwyfWxYV8rKmtEBQJU/9kVcAJ8wt7rZ/ZOajqRcQbIKiEikZ7akmvz9qiAPxPUsKN/Ldrer3Vc3/vPNZCu/YLhqwzVpVDT/f6kdvWwD9ye4pD9b7SvlxnnhEEdIyTVyLZsDsBQoZJaFTPLbrfWCD78uSQ5lc3OW1EXrQ/xFerTF1ici9jPZ3Cfl+Lu0vw7wtUOaMy4FIRerVxjQHLju3JJqAAFD5PrwWSQsuub5875uJ7smfQS5NemRxW7zidRxuCRUbrwtKeIgyXQEm68tZQd/IuIfYxOnxyZHFuwthhKAXsogJ65s7leRolSjuEI2xEF3yE9421XzY4qiLMeKmY3DJBpxaIQzs/bDu7Jf/+lDQ5CQgWGlKeoMv8fRWS5HN0TadFXgG712wphzem4DGB9ysUKdpHIB5MfszZsOKES8nfEKoPjt3FPk2FXz2xVZjyyzetJHQEQkNI+M/IowVwjzg5RpPq+bnKWgE7auP3ZmTtt6BXuumHh+gChGZWhs0HC/UZsIGfcKpBtYRZQ3H2obXEnTZaqCr+LUmQ8H4H3WqjNZ8+udNDK3oforiB8iW2/svIDDyJBQ1ZYbXKhZc1hatg2CmOIjjSW5LBlKrhbMliJymQ9MI6yJEDY/402gxSeyRkQuK0V8UtPHiJ9DRuabPwwR6XHd+bPLnN7bBrIxkOTk0ya7rLYBGhdWIVajMnUrS0F9t5rfYQysUg0wVsw/itfF17DQe4gyIQATMYn8LuSiE3xYiNCVqzagWXTapb91g4M+ZFe6brb0BJoLhJFzAlTS7gWYfksqh0mxbwnAFwAP4KALF3hPN8GbTH49rC1f8MkQP2sp8QXC5tIJ2p4lvU0ApxLzog2r0ESw2eZadKAq4ICLAmScMI9cndQipMR3oYN9j/6X9d5JzeHsaxH3+XKkaTTDifAF3+dEIn0n5G+DAECuovOhTYB5YTOJUHUvYDeuUIAFc8L84h+GOlfNV1pBcuGC3kMViqzvnkR+e1qfN+Y1VB8ICXFiqgK/IWtJmgje0ycHy+W9dQMn3TrqLWjLRFzX/LFX0wtQ9t1FGTFnxOZDkJ/PwuJg59YV8NmJ/Eio9eBzOsWvCDuGGOQ5+hwraI4DQ8isaTABbRDCpsHmJDUy88YCrc+GKCFqa05XBF91CbPOkS8A4mdFpSb9CM1P4aLcydXv0MIhcrTtRpkLkdQBNuDOq+NNmz602bbbYwJ6BfL9Q5kXeYAfmD0uac1oaZIgQ4SpifLwvV7KR+NBWHYiJjWHQ78u8Xuy9UbYuAhARHsSrOhz9HsGmmNxrhGiunDTYLLL2DagZSFZL9I/zlxKzF4bcswB04qVwHiFID9zj8/lGudnTGgDN0tOxKTmkKJM0lKRZ86Xs2XNLR1VsWyemxJlk4skuBBRpiqgovG6BXoRQPBDY5XGEuGsGxzaYe6LlB/2NqsRu7IhwKpPnpCr0rV7MeJL1p7UZPKrkUgoGZR5oBHYfPasb0Ws1IS5JMlZJ1ud8F72AoODHEv1CBW6CwJIpkmmyOzimsmPuWvLEWrOCjWw2sXho1A1XOGAyx1iKXhflskDJk0fy0TWEjERpDSTShtiN5GbGjMEMxMjIr69CtX1D2oACmKpJtTen9MizNAkc8g7VDWNbmAvgUPpRSXj4RLTRJGDUKsRnLOC7qj8MMu6ldbJ1F22yI9MDBrfDXwogx3ibCa3e+Nn5H1fCjpNlYden1yaCMoiLg+0lAeBxmVQs8mVPiGiKt1AhI+rSK/oufC+BOZTD4QRU7oq0Pr2Wik9u8AqcvGKVToLmU3icuC0ylUeIVlScD5CxPspy2f3F4qgjo/oQT3PJsHdwhzknhloOa8EjRsm2F0SyLpLG3Je+QSHjwrMDssbtK4UBPV+QoCvPEpRMxeeCChKzK1u359Nfr2ZcCfIW17Q/ie1BIa435blGsl2AW2C/L3axs8CCgL7ek5LTB/Idv/ajiNeEziNxZ1m+F0ul4VQ24eiZt00ry+I9LyPuVUgeCkYE9IvvDS/3Y3TbwqdXg3AJb0vxFY/Ageh8laaMahDVHFuqnJZim9tE9nwV5o0fzrjRVHYB9fVa/JQ9fh9CQB+Vy46beL2/ZUif6hDTyQT5injLBC655GFzGZhflAteLaei8hIiZM05lsFNIRit4WpFR2w7BJuo9R3U0DLcnP4Yi2tTkJbB0QGwnifWW/MthrLs3NTOzeukM/lEmmhZMlSmc4hVyJWe5tI5ygAlLNk5emGrjK5en4S88+TNH7HEoRGqKr9Ic8mmT4+p3SYAy6ldr19rw786T2Jv9IU8DnuXGnMt28Ps4mUBXJ4OB9MoIVUhUKIF4Oaw3XiULAQpx4oO1fTGLApSpGrbug6XPwR5HYxfbABQ+SQszxRk2eGvtdFAKzDrRnZdUhLccWVpyyY3L96IAnnuTpiIXGzzK7v3JmEi+sAdv6z7yYKZsQxwgZncDI3S5mFAucUrCJ2Jb/mYkhtzlt5upIf84MBJXxWBLQ/Z0ddbm3MA99JIVSWK1ci8d1EH3Zpgny0QkhQuvvPd3x8l20vwPBgT39tqzGPbUx+FhqEsZ8+mJg8zk6mHvOkxAhghNrVBRwb9dFvFDXDeslbDXOpzXLu0gHSDk6L+Jxwqso/vo+LGFy1P1/I27jAzi7NjpMUGt/ebswfy/TAV3IV3LJgXKhc9vhmY/5CQucUIvYAGpZI2s/fMeaIiO8zp4RcGQOUWChQl/Qjx1UHMD5YEUVh31zys2SgTTkMkAe+DFvwTWn/quYHn0VFNq6gdC1ImvoleyUA3IASYuOtDND+37lLGlnEnKG2B+akBeRarRX5G7ca89c7Oz8MCAIX714w5kd7pdBk6/v0gbmD+JSODwWmlnvLLK8cpZA2U5t/PRfZ5SCX/GCblq+iSsyQj8dRmR/kfKRkLIu5A8k1QzjcPgLAmdoj8j2ekg/ATmDVdpTBn90rUj6kVVOKwy65zEQAKbAfo8/botWY7/hL+RkhgZKjpuWLR4158nCyg+4S1RkPqipsl89mV79AsKkUapcrEED4itbvFuJM0fVOrhQkkf1sX7KRVcQlvni5tNJXt2ggKtp7mC/c1PLyyeS1D5G5NqdfmuI+CRDST/pEr4H2pIDsyyeMOU582kNzjQdjShrJKvUBc5CVhTtyQwHSEz8/IWVBKJN7dH3uPragjXq6TaYOod9QoGbs/+5Pqjy7CiImIKkUXxIH8yI9oJD8AG+fcKZLLH9gtjGfkvTftaLzgwrAfLGXoMmcsY30IA8rxiytIEslhKQhrJUmbuIWlycPJL4IxWS5FRySQGj6Yp8nYPxskLxHrg4RMC52+6ZMnZCgOjaXDr4jc/WSyEXkztWxHYPaSD8wxbizt6rSGw9urUT5peUzCyHSE2Kllue3NFZFG35O5CeG/2PZgJc1OC4SSPjv9/TlC9WIqiDE9pQIRFnA0RLRJK5OYlKJOa8Rke4OIJS+YICfOpjc3IIWOyUtyz1VnAO2q5p+jxwwWSzVrFSsoOx4E835qh6hd27ZLNotpXZUbbgoAbCkdyHYeEB8PeGfsckWYr5TsLfAFU8XmHdHHw6zkES2h9cas1WrEG3LgxP5AaHEfdIQDFrRX9CImzUgX72l84OK4MqiZ2SHXtb3Fm6tZwDNROyZdj+6LmwkwhWYFjjjJ/V8RuQnLMxKasdTv2ei7JKtyeM01mI5zQskuF/TGNo9hMDA3HnpuDF7tKITrXNjwcewq5YeHJ55WGMaKn8HkMPznFbLfVopySFyaRvtQT8sVnse3+S2yjvrE+xNlrS003mgsdxSgg0ZAtzjymXG5Iq4XkwwHrQH7cHVlKHDgq44I01GKBh7lPgzKdHszDKu9+nBM/sFpChgq85mZtTXuqqvMQ7sE+AOoax8YIkmIUXj7wxMfIB5iDnGvPkIZZ86c5scXderspy7TVHS23C01BgrAHmg0XrPHpE/7ypIH7Dn8BC3eet10a5zN7Dx0VQqgr2WR+1Gq/HA3CF8x4MVIH3NEU1+z5yjneusVsEJuuVzNJ4isiuY+gGRbI0I/4j8kNCrElE6ggQMl0vmKEB4yW9apnbh2xXyswNn8vN5mAvsYkKiIm2Bb8BVNC8eC6O96NAmSfXnNyZa0fbPsZOAv+cWwbryX4oAwS3JPDTZqMYN86iujTvS1klDKLp/DfB7u2rqsQkbf0NSojwk4AnVrym462rnA4b0uvpCGBhn1xVeVMCOYqkm9Obi+LJkfaDJI1pks/EqgrHHcf26HMBVevY5HQTvmrD1AeSF/JDMVWAZOxQMhHCJspUFJthCzWueMoP4NJvVn6gTD16HBCsel3efVH9tqNWRL1br63m9BBJuOA6vhRf5wc0LjdmsL7LHDgv+mgkk0sJGxfNyYEKB3H+iINjNaC8XrYUTSZWIJkCUzB679NTgtPtcxzGuC9ytRZSmm+nD0DLN5Hl9YXOSdh569cTMI135bfGEe3td7Xy7Gum9tAet71tOxrsbNvNyhUwPBovJLCAeHaFoERcn7zmV2LEhQIcfkrOF3cmKxIGJvAnk1JV3ZwOBK3GockHKg4/ZQ/iRkGid5GdM2JHlaqUxJaJnXhNexYzYyR5DJ+o09p5AgB9w40XZ+ZfZSPXkx3W1cYvM4aINrSyU4gOlKO6W+TNPK4ALmETmj9z7N06HMYEANijZg3+4vbMKqDfwa2IdR1YoHN3QE+cKNutIDWYV9AGmJbU3bV5LjWBs0JoEEnig4DCF2Khks+iO5ZPHNARQhGQDPyurwHefgblkOsmjQrGlx259UKpLfPEWkW6jNAZetgupmHjmEPOHKFBIbcZkscny5S1yxiQE2KO0iYkkNEpEw6ZJNwQ0vzVjmWAPoAUR3LHba2oCGaKEKzm5R82fe0T6b95mzANrk/yqOoBAk77y7LHOuHgqRISxX/O7SYJbNuLkvMmVBXbhfnXU2Fr1NN7lg5hMGn67SHrvqrA53ynIU0GjsLFEqY0d+h4SnZqK8dscJcqtqF0+sEpF7X9A5h1auM72UwXtgvyL1VrNXZRZFZAv9roUIBdoY+N7Q+0bkFBulqnDPoNLnaksVCI/gPi/PKxO6FOct6FpvEynmyWxd2lJZSu/DiCcRBEw0+o82J0HTDzi1nvk0Nn7DDxGm3FCUdwqweVwuktVu7aDrF/ynI4MyRoouYfBVBLPh/hVCnRVpgQ5/2hw63A6SiDiNnxJgqPHLglOXTcIEodmSWyK+ADzztr76rOvQrVmjwiPENcV6+8VMN24qf4Xmu8jEoCyxEchUP0Nn7MK8UEQWpDKul0+AIrJNf8eXJZZcrazD/C8zCefvO2pgmER/7z6hQYvs8biK51lBWPVmKI4/mGS2Yqio86mr+OfwjrdGkOIj+aviiDkJ+xIgxACuF8U/x8PtrBRam+eM+bpQ7IFZR5UM8TaBWL82NJl+0QU5JoGNVSIuJfAtn9BDu1zehzCL5TW9tm5/QRYNjUG5EDZNJsACEJ+gD2K+XOrVgCsHx+niQkekePDbvCvNVBP7E+u1LwRgM/BCm9DeSXB31IOfqqA0C4r+RMHknSFD/VvSF92DOASyuMOOf0kAYZy/Cs7vBOBbffycXnysu9sHX3PT2dpY+UgfLlEth0d5kzvVAVFtXa/l5h4ZZBO/Gc3JOkZTUWsXIDZSmTrPT2fU3+pKVQmXfoTUH+xJrZJ2xN6Den0Byc/gPSvSAAwYco6atZ3UMvoLBsupPqykdWk8+oLTBXI8KK0H3ZulZG+R2blp9e0s//06yf7kiQ8QqaQHoe2KrMQfK5Y4hz5p9clCjEkahlKIj+c4N+xWl/AN5TQVpCFZZKV5H1pkudlDv3wdWNOTyGnmJwVlvwqJg8gikY9/F7dslgGlvjqK3NdWdsLEB/aYN/XQXxQmx6xTrBMlsfWJ8Lg4wOMB7t/kIdxZUBrGIPawApIpIejlFXIwBhwEAZhais2L9L/1MeqpLfQZ7B7y+EeVrs6iA9qIz9A63OWkgxMew5AnfAJhY4Htu5G2f6haj/2AqxaxOjLhvZSQCicyFA5UaGBYiM/qOotkHwOSpNrhHaI+NyBUOfGXq3kT0GlXM7zkn1HX3xCoSBdNYjtlklgagrs6NqqCBU1NuSfqX736mb1Mlg6L8mutWZuCaDcyBPjcA15Wvg4WZfIhURPyA/I4aGmy/2SZnt0Tt9sd4RdOqj3UP+RagZTCZg9/YMib0XyI/wc8GC/oK3xfrQ+ys1LsXXmPiU+NZaIatV9u0yKnpEf0Nc75Qd8Th0kcsNJLISAAevmE/BztAkD00TdnbJAW9srm2T2OAl4DuA743Cuxc4+XeSYqE3ddegv/eFtEJ+M0juk6R+Wxg91hZELekr+FORkPKqOciB9g0yZtBHdhADyk6MzlUweG+kZTkweBy7kQ+xnbEhzCOJQ1gTqDVFyJc+vS+eXJ1YLzmM8IGsAi6CODN88NEJ+QOfp+CMSAs6Ecjjdqjg97ODpDVY76LFIg8Ldt1MJOKdEaDhdFoKwOM3cgVDRgqoVOKtsxGUpsHQuIRwZvSREPqR5J1s1RJ5OGTRG/hRIO7UnSU+lMoOttIUAdFpG3U17yHqK2ftkc6KpQyE1owLIUW3AhKGIFTeup8udJb3mEi0P6Tk4c5/mmDpMzHuvtf14NE7+FJy0skugBuXxLbIBNUCDah0aDzuwbs8/NHBMObdbNdIzHuyWkyXaZuCX2UshRGqmLLWAsOvvX96J5KzSat5D274baklvCAEiJZCHcCE+wlQ7yMElfT/er36oD0EgJjEEX9mamAxtBWyiwOzrQ8ZcOi+TRoJAXg5zmN7t3Ba0lvxTHYfPGfPEQb3Q6IYaYcwKbOQQFbDrBGncVICmuBkavknTJg+tMXtuJGDyUNka3yUk+DjCnYE/Njgoa0NpdcyfthIfRPLXAEt+ObvsyoZeVyl423r2TxFE8tcAYvxkn4Z0dgGCxN5B5H4YRPLXABvpISwZmPyAEOpUPs/bJkTy1wA2uIhW1RFKIOSLSRVRHZH8NYAQrb2ArgawmHBVU0R1RPIHBsreFqWVhs7a5q8KTJ6QO8fTGZH8NYCcHjal6tpBOT3UeRFRCZH8gUGE5zSVGmrQ+oDVhNNhEdURyR8Y6QZX6DDneOBQt/kw+1RBJH9gwHl7C0tN5MSUIs0BvyKiGiL5A4PyHWXPsbqCTbSzJYtgRXyMSP7AwNlFM9cJWxIlav7KiOQPDOr02Dr8NQLThyJWEdUQyR8QkLLOSM8YsPkj+Ssjkj8g0jBk3YEYvod7vuraR5guiOQPCMKcFzm/WjMpbcRHM8eZ3ojyiOQPCNKN67Z4UhDxIXM0ojwi+QMCMoY+vdUNpDbHnd5qiOQPCOrq9GrnlUoOXLUaUR6R/AFB+LEXlZSx+amFg5kVUR6R/AGBGVJHGnMWID+mT4z4lEckf0BwO0mvQOIcxJ9KF9W1DZH8gcDlEb3S+inwL+JmV3lE8geCjbyIjL20Qi5L68ccn/KI5A8EUoyvyBTpGSRl8UhjNUTyBwJ30NqEth6pfuvoavZ66WfcaIjkDwRSmXtp8gCudcL0iSiHSP5AwOEte9NkWXDRM/kUFIaN8EckfwBcEQmt1u+x6sf0oV7/UHR6SyGSPwDsgXURsecbTtL6xPljdmc5RPIHgL11sQnTQ8KGzR8T3Mohkj8ASDBrgvx2l1d+xkdR85dCJH8AYPZg8TSRZ9Mv8g9Hh7cUIvkDYEhOJ1eONoGrIj4HW6joEOGHSP6KgHTW2e38u9dgtcHkiptd/ojkrwi0PrZ3neUJ80AyHcSP5PdHJH9FkFU5PGqjjo2A2184NB/Dnf6I5K8IwozDImCTZg/+LjvMEX6I5K8IjhLaO7IaYj/k51p/6vhE+CGSvyKwtftnJSRsCqNqA453LFvuh0j+CiDK03iIXc4GzjZpDrY0eoQzIvkrgJ1VSohca1ICJIA24iPiR7vfD5H8FQDh2qBtMbnwPSL5/RDJXwGEFy8SYmwqztkBZs9VtSGS3w+R/BVAjB8ns46b1r2gNvQPJOcKItwRyV8BmDz9g81GeixwekV8Qq444RFuiOQvCUhmtX5LyEaCGw54PNPrjkj+kiCNmISyq20gmwSQev1chkeqRYQbIvlLwiaTDSdhxjZgLOITye+MSP6SQMu2iWjsNRB6jZrfHZH8JfGRtCz2dVOpzBOB5p87P0Z8fBDJXxLY/H0D7XF4Mb+uXJZAShhb0qTWI5K/BCC8zeHH3m8R06zpI1+kkUoSUxCR/CVAQVoINsqOaoscXntbi7T/SDR9nBDJXwJsbpHa0DbND6jaHGP9bphxXei8jnDEiSFjntwvm18O5lW0f0swo8+YixeM+cZWY9aobRH5iOQvAbT+4fPJAZLG83rGgZWIxWjrEmNukjMekY9I/ohpi2jzR0xbRPJHTFtE8kdMW0TyR0xTGPP/1POsJJToxt8AAAAASUVORK5CYII=;" parent="1" vertex="1">
          <mxGeometry x="110" y="171.03" width="61.79" height="56.29" as="geometry" />
        </mxCell>
        <mxCell id="k9qT21ym4J0Swm9wOZpl-18" value="" style="shape=image;verticalLabelPosition=bottom;labelBackgroundColor=default;verticalAlign=top;aspect=fixed;imageAspect=0;image=data:image/png,iVBORw0KGgoAAAANSUhEUgAAAL8AAACuCAYAAABnYNw4AAAAAXNSR0IArs4c6QAAAARnQU1BAACxjwv8YQUAAAAJcEhZcwAAEnQAABJ0Ad5mH3gAACeWSURBVHhe7Z3Zjx3HdcaLnOEMF3HfF3GXKGoXbUmUZNnyJq8xkjgBAj8kD8ljgvwNQRAgQB5ixA8B/BIYgYEgQQJ4iRMLkWyJoizJ1mbKkiiKm7iKIsVFGpLDGZL5ftW3R6OZvt1V3dW3ezj1QVf3cubOvbV859Q5p06dmnFdMBER0xAzO88REdMOkfwR0xaR/BHTFpH8EdMWrSb/lavGnL1szPBo5wcREQHRymjPhWFj3hsy5tRHxpy+aMy2pXosV2M7v49oP65IYfX3Sbu2eNJaRf4zIvqxCyK+nk+I+Cj8GRq8VbONeXSDMTcNJO+LaDc+uGTMa6eMGZRdsWKeMTcv1GsJQtvQCvJj2uw7k2j5kyL9VbUI0tOymRq0AT2+sN6YtQs6fxDRWly9ZsxvRfxXT2v+9HqOBGDpHGNWSgi2LjFmXosUWKPkHxox5ncaqPdEeDQ9KySNgfiAlvG6f5YxO1YYc5cebV5GI4y5qDn9+X5pfym0a0ymBKB/UJpfr+fred18Y7bLhJ3dn7y/STRG/rel6fd9INJ/mBA+RVZr+qUtVsv0+exGaQ4JQkR7gSL76T7Leav5U0eNyMoMreBz9RgU8fHj7pAQNImek/+CNMILx5NBGr46bpByMEMjN6ABe3yThOCmzg8jWgfM1VdPyt7Xg9efYFZnWecJU3a+5pM5/dQa+QQNmbM9C3UyDvvPGvN/B4x595wxl0V87MMi4lvoj0fk/SIwdimNaCVGNKfvaEW3Cm3iPHX+zdNVve/csDGnhox5/ogxz+lxuYFwdk/IT8fo5C8PJbag+m6uuZC+AwYSbXHkvDGXGhikCDecvWTMh1f8FNR5CQHm74/3JiZwL5Vb7eRnMJ4R6V+XY8tSaDtXooOjIv0ZOVMfabB6OD4RjmBeD1+QfyZG+cQk+Ds2M+HJ04eTAMioh2KsglrJT7wXM+eIBmUslOMJoj19sg3ts/59Rp/ZWy8lwgUQdr9MnhE9+84P70cxIgAvyh/cfVRKTq/rRm3kPyrCP7E/WQozbcACQPZZnZjwPLF+w0Jjdq425rZlarSPaonoCdiRR4OXVkz6OysEIssRmcZYCyjPOlFLtOcdObbPvZvk5FwvofHR9PzN4tnGLJ9rzK1LjFkZozytBQz6hcj6rnyyMpo/C32zNPeDxjy4LtkgqwPByb/3tDG/0rI1ok+1n+zx6Ti1aPz5emZL/BaRfllNHY8IB+b5X/fohVbqEflkVwMEJeABWCHl98BaY1bPT/4dEkHJT5hr9xENgF5fI6TjAWvXqyXbRPjNi9TZmMowpfCGlN7Zi9L+MnevyJgekc1OGNuSqyTDEADYuUwCsFMrwJrAAhCM/Di1u2TqEIokjusKOjgo82aBBuzulbLtRfy+jtRHTC3AJNJU3pcQ7P9AwiABYBVISVwKcEFChAXw0M1hNzmDkJ9ktN/IS7epCjTW8RNnivB8+90rZNfLkcXGj7gxgLN6UnzYc8qYIc3xaJXojTgFrcgQfUQCwEoQApXJT0bmKyeMOSxnh3CX66dh5sxSjx5VZ7DviQ9H3Hgg2ve2VoE3JATXNMdV/AGifDi/j22SXxggO7QS+S/LuH9JxN8rW39SLkcOSFSbp4F4ZH2S5RdxYwOlyMEkAiFn5RD77O6PB+YTD3KBvrS5unlcifyvvWfMq+/LwZEQOOXoCLMGkxDWTnnwoZaviOrYo7l8U07r5sXGbJMJGkKzTgRpLr+WefyOVgLygMoA8pPZy37PjtWdH5ZEafJj5+86khw5RJJdPmVANj2pyQ/Lcye3uy7QFAb60Nkky/A+DRITWlFR3LBgvP57nzGnSR2RIsO82CAhuHN5chAFwoUC6QyQf9dh68d6O8JW++uZdt2zKhHWsihFfrahXzgmO/9cpwNFWl+tnSUbf7U0/Wc4jlhTTj67gxyQeUOrEecFSJlm72ClvvcrW9SG6Fdk4uSQyHjImHOd8CTzNVOsIOV485LkENECKauAMmCVJ6kvl9gVLuLPRHQEgMjPw/IZl0gQysCbDrTzgCT3iAbMKSVZrewTAZdJ4+9UQ+si/ofSWi9Ly/9orzG/1RJOyjRijYNFFGqYzYeITJAtS3blGDRuTCur514pkp9oTN+WSRSyisYqEfcbt0qoZF7BDy+ofWjsU2rz79Q+/M0y8Cb/BxcT25Dl0WU5JJy5QBrkQdn4i2owddDunP99QlrkVUifkjwdkI6WIOWinIF3Y2NUY8LZ6T6RMEuRWSHQmJJzTwoDOfihhpHQ9te0Ii8qIQDMKRyk4MEhLJASjfIiP3kb2NCc08RfKSITxB9QKzmtQ4w2NJg0JmW32kRcmcmb1CT9gL0Hwm0ZczvtAXnOaeyupkpjAphjxg0hOaIVlLRjfKkyZMvCAgnAFzcnipFgiCvSduFzviXtz8rvCy/yH9dAHXC081kVcITZta3ilGSBgT+odjx1MHGerlxOBqMbaOs5vee8HhGfBCbhRQe7Ox3f8xIUQpbE7ctGbCZikQSA0jSEvwc97fc+/Q0ZpSTV+Z4DcCY/9h4xfTajijQ+IGJAqQo88pAgbfZltYMl+IK0lUNTLOgoSXcRH4OcefJxCAq4jKNdWTWvF8UFQpY8rngSrhtsApsshHkykW1WrwPgoW232vSOFPP7EgIfOJOfo2ZnMXcYAIeRwrHFzle7guGSvp80Cmx7xtwmzzmyn/ezWpR1jm5EEOU5hcnj4chawumBGURU7QUyeAOtAOvJ5F0g8us1JrMLsC6wBIhAkmWAae4Kp6+gc2xoXdMguRCfagv3r5MUB9woSTdI3pRzC3yzRhESIj6E2CISJUbuzUyZHC5zOh5WAPQM6YgCMS8hgLXAfsx6CQCrkStoD6nUB6T9T3tofyfyE02xB1McB2mjJHiTHqGAqcMA71fnaEPZ7XGrrWSrRiREI0V4DnOq12har82sDhcQAFLZXzmZ/LsqKGbFzi0RQlcH2HJCbScqRYUQ15WokPz0kcy8Tl9zweD168HhA6+BzAHfSx2YA9JSpEqXIT4rEZM7S9pkoTRdRDI/pI8/vtGYL+qxrONo+s4b8zOsOcGfwjQOARxgVoCZ+lxX8wd/BGsA7U9ZFBcUfjS7uAgSy2QRGLhPifhsXIQC0ZzXNbCjkmpvU6eD+fI/SIX9o9uNuTewAz6VQWIYocZNEoKvbDXm8xuMmaux8tVbaF5s7t9KSfk6nd1w+3JjVpJa4Uh+YNPpxVM2YV34WvjRb8qpGVLHioCNRsLRlsX+2qMbsM9fkrlDP3wOyAA0EmXx2P7+/duSRCiqPFP0NuKTYL7maKy2LJWC2J6crSCE6CMFCAAZm88f8w85ZgHBvGdlUt7Q1f5H+2Oec6rMxfHNJT+5+ki0CxhA29hA6QsInD0IIdL7RCNox4BIvkFO0x9sM+bOFYkd6TGP0xaMEQrjs+sTpUF9fR9FhklK6JT0khBYJZ9kzU0JqX0mkBwuIntFPmou+dk2Jo5b+CH6FDiPA4UjVRV8HY7LCWkSH+KjIdiHuFua68taxlnSI/wB4bdrDL8kM4iV0ifyMqzJO6C5o7RkVdCOT69JwuauQgh3cHg5Y1K0C92V/PwhCU/kzhSBwyk4KKEuj+CSCvLL2bl1BRM0W735jDQW0YJ4Drg61ssX4NAIl0xQJt4J4g0Opz3g5GB6FIFwOTWbLKtdoPdh8rACfSJZLwNdyc/xM0KDRdEV643rPZgZIY4i8p34GZf1mUWSm4I2sDP40DpjbpHd2mawyZYe8KY0H/snHAMlZ4qSjjj4JI/5bNbUibVazR+VGTR3UApFY+wCOEMfKFwWAqTIcLOLjwmGBcJY5qFrPj8TwaQUFYYlFsu1QdiJITa1GLQfvaUXanyRuQWsyaX3ciSSdIq2gqjZIa2kmJKMLaFBIiOjaj8rJ4llfSINhzRYRaldv1Gal0fo3ChfoIQQ1FeklIblixXNCyRFUG5R2zmxR4i5Kqj+xxg6UMKCNnAa7U/u7PwgA13Jz0EDCo8ixXmdhfwPrjLmdk1YVTDITx5MCOJCfMJgOEPkhNxb8UhbXeBQzW+OGfPMu8a8JC3PpBCy5Xmsj+mzfmZ/rj7NQMvq+R457J+T7U2OFBqwKbDDTioDOTTdMkBT0Af6tEiCjOPM6lEVp7RaohRdeGGhNrBaEOlb2GWzLNNQIVxEZ/mevC/Dzp6h94WK6xNdQrpdQeO3cNKoQVJ0A6m2P9xjzN8/a8w//loCoFXUbsSwkmpMbQTDDjDv7iD9OS8Zf/0bc+h7rxjzD7uN+cGriT/UBIiYMc4LNOdFO6+WMyIfNjfh6k6XKoHENzS5FSwXqA2cRsszvTLJTw19YCcq58tY2jiRs9gzDbUbWFoZOFfpTpPnbEy6ReB00d88bcz3X5LjLvMmk+gu6Lz/mjTtW/qc771ozN8+k2jgJsBxQUyyPrWriIQ0HauB/CFu46kKPu9W+XM++w/sPHNeoRsyacPhBjSX/ZKcCSMCQCHZELF9VpuDZ/XCVbKFHYTBAq06oYC5+Hci6C6ZOmShjhG/CvT3dvdSj93HjfmnFzp+UQOAgIs15rOKwsj0We09o3lNlWkV0H18OhtBchxPxiyv0nM2+UV8DhbnERHJJxQ5hxhs52dVcEwawrXoFbY+ewrU9GwT/mefMf8sE2cfJ51Ix6AvjhNViM5nYQ5xKu0Hrxnz779LftVLYP6QE8QlyUWpB/DiirhE2DHEri9cs+kXjoSzXNIDZZ6FzOajsezGRs7EEWVB6Ya6HRHH0DXXnk6Ro9Mmc4dSHN9/WT7LebUvwETngf4f1ff8m3yKn77d+WEPQfXshZp3l3O3mD6kGXP0tSrgvN1IdfheC40TU/EBVkwGJtEH8wONxTVAeRI2UxoAW3+JzJ6q4PtwjFwkGqFboiV3RcCCpVVxTET87vMipFavXoFJpTjwf0j74xT3Emhg5p3d97w5Q0ghKjfqX3RMk8kD+0hUa7O+qANoG4EbVp4sTCK/rbKsRudpfUDHiOszEFVBbJ+G2GWqAAgKGX/E9tsA2vNd2eAQsW6NPxEM11sSvH95JVmtewnObMyVAiwyfWxYV8rKmtEBQJU/9kVcAJ8wt7rZ/ZOajqRcQbIKiEikZ7akmvz9qiAPxPUsKN/Ldrer3Vc3/vPNZCu/YLhqwzVpVDT/f6kdvWwD9ye4pD9b7SvlxnnhEEdIyTVyLZsDsBQoZJaFTPLbrfWCD78uSQ5lc3OW1EXrQ/xFerTF1ici9jPZ3Cfl+Lu0vw7wtUOaMy4FIRerVxjQHLju3JJqAAFD5PrwWSQsuub5875uJ7smfQS5NemRxW7zidRxuCRUbrwtKeIgyXQEm68tZQd/IuIfYxOnxyZHFuwthhKAXsogJ65s7leRolSjuEI2xEF3yE9421XzY4qiLMeKmY3DJBpxaIQzs/bDu7Jf/+lDQ5CQgWGlKeoMv8fRWS5HN0TadFXgG712wphzem4DGB9ysUKdpHIB5MfszZsOKES8nfEKoPjt3FPk2FXz2xVZjyyzetJHQEQkNI+M/IowVwjzg5RpPq+bnKWgE7auP3ZmTtt6BXuumHh+gChGZWhs0HC/UZsIGfcKpBtYRZQ3H2obXEnTZaqCr+LUmQ8H4H3WqjNZ8+udNDK3oforiB8iW2/svIDDyJBQ1ZYbXKhZc1hatg2CmOIjjSW5LBlKrhbMliJymQ9MI6yJEDY/402gxSeyRkQuK0V8UtPHiJ9DRuabPwwR6XHd+bPLnN7bBrIxkOTk0ya7rLYBGhdWIVajMnUrS0F9t5rfYQysUg0wVsw/itfF17DQe4gyIQATMYn8LuSiE3xYiNCVqzagWXTapb91g4M+ZFe6brb0BJoLhJFzAlTS7gWYfksqh0mxbwnAFwAP4KALF3hPN8GbTH49rC1f8MkQP2sp8QXC5tIJ2p4lvU0ApxLzog2r0ESw2eZadKAq4ICLAmScMI9cndQipMR3oYN9j/6X9d5JzeHsaxH3+XKkaTTDifAF3+dEIn0n5G+DAECuovOhTYB5YTOJUHUvYDeuUIAFc8L84h+GOlfNV1pBcuGC3kMViqzvnkR+e1qfN+Y1VB8ICXFiqgK/IWtJmgje0ycHy+W9dQMn3TrqLWjLRFzX/LFX0wtQ9t1FGTFnxOZDkJ/PwuJg59YV8NmJ/Eio9eBzOsWvCDuGGOQ5+hwraI4DQ8isaTABbRDCpsHmJDUy88YCrc+GKCFqa05XBF91CbPOkS8A4mdFpSb9CM1P4aLcydXv0MIhcrTtRpkLkdQBNuDOq+NNmz602bbbYwJ6BfL9Q5kXeYAfmD0uac1oaZIgQ4SpifLwvV7KR+NBWHYiJjWHQ78u8Xuy9UbYuAhARHsSrOhz9HsGmmNxrhGiunDTYLLL2DagZSFZL9I/zlxKzF4bcswB04qVwHiFID9zj8/lGudnTGgDN0tOxKTmkKJM0lKRZ86Xs2XNLR1VsWyemxJlk4skuBBRpiqgovG6BXoRQPBDY5XGEuGsGxzaYe6LlB/2NqsRu7IhwKpPnpCr0rV7MeJL1p7UZPKrkUgoGZR5oBHYfPasb0Ws1IS5JMlZJ1ud8F72AoODHEv1CBW6CwJIpkmmyOzimsmPuWvLEWrOCjWw2sXho1A1XOGAyx1iKXhflskDJk0fy0TWEjERpDSTShtiN5GbGjMEMxMjIr69CtX1D2oACmKpJtTen9MizNAkc8g7VDWNbmAvgUPpRSXj4RLTRJGDUKsRnLOC7qj8MMu6ldbJ1F22yI9MDBrfDXwogx3ibCa3e+Nn5H1fCjpNlYden1yaCMoiLg+0lAeBxmVQs8mVPiGiKt1AhI+rSK/oufC+BOZTD4QRU7oq0Pr2Wik9u8AqcvGKVToLmU3icuC0ylUeIVlScD5CxPspy2f3F4qgjo/oQT3PJsHdwhzknhloOa8EjRsm2F0SyLpLG3Je+QSHjwrMDssbtK4UBPV+QoCvPEpRMxeeCChKzK1u359Nfr2ZcCfIW17Q/ie1BIa435blGsl2AW2C/L3axs8CCgL7ek5LTB/Idv/ajiNeEziNxZ1m+F0ul4VQ24eiZt00ry+I9LyPuVUgeCkYE9IvvDS/3Y3TbwqdXg3AJb0vxFY/Ageh8laaMahDVHFuqnJZim9tE9nwV5o0fzrjRVHYB9fVa/JQ9fh9CQB+Vy46beL2/ZUif6hDTyQT5injLBC655GFzGZhflAteLaei8hIiZM05lsFNIRit4WpFR2w7BJuo9R3U0DLcnP4Yi2tTkJbB0QGwnifWW/MthrLs3NTOzeukM/lEmmhZMlSmc4hVyJWe5tI5ygAlLNk5emGrjK5en4S88+TNH7HEoRGqKr9Ic8mmT4+p3SYAy6ldr19rw786T2Jv9IU8DnuXGnMt28Ps4mUBXJ4OB9MoIVUhUKIF4Oaw3XiULAQpx4oO1fTGLApSpGrbug6XPwR5HYxfbABQ+SQszxRk2eGvtdFAKzDrRnZdUhLccWVpyyY3L96IAnnuTpiIXGzzK7v3JmEi+sAdv6z7yYKZsQxwgZncDI3S5mFAucUrCJ2Jb/mYkhtzlt5upIf84MBJXxWBLQ/Z0ddbm3MA99JIVSWK1ci8d1EH3Zpgny0QkhQuvvPd3x8l20vwPBgT39tqzGPbUx+FhqEsZ8+mJg8zk6mHvOkxAhghNrVBRwb9dFvFDXDeslbDXOpzXLu0gHSDk6L+Jxwqso/vo+LGFy1P1/I27jAzi7NjpMUGt/ebswfy/TAV3IV3LJgXKhc9vhmY/5CQucUIvYAGpZI2s/fMeaIiO8zp4RcGQOUWChQl/Qjx1UHMD5YEUVh31zys2SgTTkMkAe+DFvwTWn/quYHn0VFNq6gdC1ImvoleyUA3IASYuOtDND+37lLGlnEnKG2B+akBeRarRX5G7ca89c7Oz8MCAIX714w5kd7pdBk6/v0gbmD+JSODwWmlnvLLK8cpZA2U5t/PRfZ5SCX/GCblq+iSsyQj8dRmR/kfKRkLIu5A8k1QzjcPgLAmdoj8j2ekg/ATmDVdpTBn90rUj6kVVOKwy65zEQAKbAfo8/botWY7/hL+RkhgZKjpuWLR4158nCyg+4S1RkPqipsl89mV79AsKkUapcrEED4itbvFuJM0fVOrhQkkf1sX7KRVcQlvni5tNJXt2ggKtp7mC/c1PLyyeS1D5G5NqdfmuI+CRDST/pEr4H2pIDsyyeMOU582kNzjQdjShrJKvUBc5CVhTtyQwHSEz8/IWVBKJN7dH3uPragjXq6TaYOod9QoGbs/+5Pqjy7CiImIKkUXxIH8yI9oJD8AG+fcKZLLH9gtjGfkvTftaLzgwrAfLGXoMmcsY30IA8rxiytIEslhKQhrJUmbuIWlycPJL4IxWS5FRySQGj6Yp8nYPxskLxHrg4RMC52+6ZMnZCgOjaXDr4jc/WSyEXkztWxHYPaSD8wxbizt6rSGw9urUT5peUzCyHSE2Kllue3NFZFG35O5CeG/2PZgJc1OC4SSPjv9/TlC9WIqiDE9pQIRFnA0RLRJK5OYlKJOa8Rke4OIJS+YICfOpjc3IIWOyUtyz1VnAO2q5p+jxwwWSzVrFSsoOx4E835qh6hd27ZLNotpXZUbbgoAbCkdyHYeEB8PeGfsckWYr5TsLfAFU8XmHdHHw6zkES2h9cas1WrEG3LgxP5AaHEfdIQDFrRX9CImzUgX72l84OK4MqiZ2SHXtb3Fm6tZwDNROyZdj+6LmwkwhWYFjjjJ/V8RuQnLMxKasdTv2ei7JKtyeM01mI5zQskuF/TGNo9hMDA3HnpuDF7tKITrXNjwcewq5YeHJ55WGMaKn8HkMPznFbLfVopySFyaRvtQT8sVnse3+S2yjvrE+xNlrS003mgsdxSgg0ZAtzjymXG5Iq4XkwwHrQH7cHVlKHDgq44I01GKBh7lPgzKdHszDKu9+nBM/sFpChgq85mZtTXuqqvMQ7sE+AOoax8YIkmIUXj7wxMfIB5iDnGvPkIZZ86c5scXderspy7TVHS23C01BgrAHmg0XrPHpE/7ypIH7Dn8BC3eet10a5zN7Dx0VQqgr2WR+1Gq/HA3CF8x4MVIH3NEU1+z5yjneusVsEJuuVzNJ4isiuY+gGRbI0I/4j8kNCrElE6ggQMl0vmKEB4yW9apnbh2xXyswNn8vN5mAvsYkKiIm2Bb8BVNC8eC6O96NAmSfXnNyZa0fbPsZOAv+cWwbryX4oAwS3JPDTZqMYN86iujTvS1klDKLp/DfB7u2rqsQkbf0NSojwk4AnVrym462rnA4b0uvpCGBhn1xVeVMCOYqkm9Obi+LJkfaDJI1pks/EqgrHHcf26HMBVevY5HQTvmrD1AeSF/JDMVWAZOxQMhHCJspUFJthCzWueMoP4NJvVn6gTD16HBCsel3efVH9tqNWRL1br63m9BBJuOA6vhRf5wc0LjdmsL7LHDgv+mgkk0sJGxfNyYEKB3H+iINjNaC8XrYUTSZWIJkCUzB679NTgtPtcxzGuC9ytRZSmm+nD0DLN5Hl9YXOSdh569cTMI135bfGEe3td7Xy7Gum9tAet71tOxrsbNvNyhUwPBovJLCAeHaFoERcn7zmV2LEhQIcfkrOF3cmKxIGJvAnk1JV3ZwOBK3GockHKg4/ZQ/iRkGid5GdM2JHlaqUxJaJnXhNexYzYyR5DJ+o09p5AgB9w40XZ+ZfZSPXkx3W1cYvM4aINrSyU4gOlKO6W+TNPK4ALmETmj9z7N06HMYEANijZg3+4vbMKqDfwa2IdR1YoHN3QE+cKNutIDWYV9AGmJbU3bV5LjWBs0JoEEnig4DCF2Khks+iO5ZPHNARQhGQDPyurwHefgblkOsmjQrGlx259UKpLfPEWkW6jNAZetgupmHjmEPOHKFBIbcZkscny5S1yxiQE2KO0iYkkNEpEw6ZJNwQ0vzVjmWAPoAUR3LHba2oCGaKEKzm5R82fe0T6b95mzANrk/yqOoBAk77y7LHOuHgqRISxX/O7SYJbNuLkvMmVBXbhfnXU2Fr1NN7lg5hMGn67SHrvqrA53ynIU0GjsLFEqY0d+h4SnZqK8dscJcqtqF0+sEpF7X9A5h1auM72UwXtgvyL1VrNXZRZFZAv9roUIBdoY+N7Q+0bkFBulqnDPoNLnaksVCI/gPi/PKxO6FOct6FpvEynmyWxd2lJZSu/DiCcRBEw0+o82J0HTDzi1nvk0Nn7DDxGm3FCUdwqweVwuktVu7aDrF/ynI4MyRoouYfBVBLPh/hVCnRVpgQ5/2hw63A6SiDiNnxJgqPHLglOXTcIEodmSWyK+ADzztr76rOvQrVmjwiPENcV6+8VMN24qf4Xmu8jEoCyxEchUP0Nn7MK8UEQWpDKul0+AIrJNf8eXJZZcrazD/C8zCefvO2pgmER/7z6hQYvs8biK51lBWPVmKI4/mGS2Yqio86mr+OfwjrdGkOIj+aviiDkJ+xIgxACuF8U/x8PtrBRam+eM+bpQ7IFZR5UM8TaBWL82NJl+0QU5JoGNVSIuJfAtn9BDu1zehzCL5TW9tm5/QRYNjUG5EDZNJsACEJ+gD2K+XOrVgCsHx+niQkekePDbvCvNVBP7E+u1LwRgM/BCm9DeSXB31IOfqqA0C4r+RMHknSFD/VvSF92DOASyuMOOf0kAYZy/Cs7vBOBbffycXnysu9sHX3PT2dpY+UgfLlEth0d5kzvVAVFtXa/l5h4ZZBO/Gc3JOkZTUWsXIDZSmTrPT2fU3+pKVQmXfoTUH+xJrZJ2xN6Den0Byc/gPSvSAAwYco6atZ3UMvoLBsupPqykdWk8+oLTBXI8KK0H3ZulZG+R2blp9e0s//06yf7kiQ8QqaQHoe2KrMQfK5Y4hz5p9clCjEkahlKIj+c4N+xWl/AN5TQVpCFZZKV5H1pkudlDv3wdWNOTyGnmJwVlvwqJg8gikY9/F7dslgGlvjqK3NdWdsLEB/aYN/XQXxQmx6xTrBMlsfWJ8Lg4wOMB7t/kIdxZUBrGIPawApIpIejlFXIwBhwEAZhais2L9L/1MeqpLfQZ7B7y+EeVrs6iA9qIz9A63OWkgxMew5AnfAJhY4Htu5G2f6haj/2AqxaxOjLhvZSQCicyFA5UaGBYiM/qOotkHwOSpNrhHaI+NyBUOfGXq3kT0GlXM7zkn1HX3xCoSBdNYjtlklgagrs6NqqCBU1NuSfqX736mb1Mlg6L8mutWZuCaDcyBPjcA15Wvg4WZfIhURPyA/I4aGmy/2SZnt0Tt9sd4RdOqj3UP+RagZTCZg9/YMib0XyI/wc8GC/oK3xfrQ+ys1LsXXmPiU+NZaIatV9u0yKnpEf0Nc75Qd8Th0kcsNJLISAAevmE/BztAkD00TdnbJAW9srm2T2OAl4DuA743Cuxc4+XeSYqE3ddegv/eFtEJ+M0juk6R+Wxg91hZELekr+FORkPKqOciB9g0yZtBHdhADyk6MzlUweG+kZTkweBy7kQ+xnbEhzCOJQ1gTqDVFyJc+vS+eXJ1YLzmM8IGsAi6CODN88NEJ+QOfp+CMSAs6Ecjjdqjg97ODpDVY76LFIg8Ldt1MJOKdEaDhdFoKwOM3cgVDRgqoVOKtsxGUpsHQuIRwZvSREPqR5J1s1RJ5OGTRG/hRIO7UnSU+lMoOttIUAdFpG3U17yHqK2ftkc6KpQyE1owLIUW3AhKGIFTeup8udJb3mEi0P6Tk4c5/mmDpMzHuvtf14NE7+FJy0skugBuXxLbIBNUCDah0aDzuwbs8/NHBMObdbNdIzHuyWkyXaZuCX2UshRGqmLLWAsOvvX96J5KzSat5D274baklvCAEiJZCHcCE+wlQ7yMElfT/er36oD0EgJjEEX9mamAxtBWyiwOzrQ8ZcOi+TRoJAXg5zmN7t3Ba0lvxTHYfPGfPEQb3Q6IYaYcwKbOQQFbDrBGncVICmuBkavknTJg+tMXtuJGDyUNka3yUk+DjCnYE/Njgoa0NpdcyfthIfRPLXAEt+ObvsyoZeVyl423r2TxFE8tcAYvxkn4Z0dgGCxN5B5H4YRPLXABvpISwZmPyAEOpUPs/bJkTy1wA2uIhW1RFKIOSLSRVRHZH8NYAQrb2ArgawmHBVU0R1RPIHBsreFqWVhs7a5q8KTJ6QO8fTGZH8NYCcHjal6tpBOT3UeRFRCZH8gUGE5zSVGmrQ+oDVhNNhEdURyR8Y6QZX6DDneOBQt/kw+1RBJH9gwHl7C0tN5MSUIs0BvyKiGiL5A4PyHWXPsbqCTbSzJYtgRXyMSP7AwNlFM9cJWxIlav7KiOQPDOr02Dr8NQLThyJWEdUQyR8QkLLOSM8YsPkj+Ssjkj8g0jBk3YEYvod7vuraR5guiOQPCMKcFzm/WjMpbcRHM8eZ3ojyiOQPCNKN67Z4UhDxIXM0ojwi+QMCMoY+vdUNpDbHnd5qiOQPCOrq9GrnlUoOXLUaUR6R/AFB+LEXlZSx+amFg5kVUR6R/AGBGVJHGnMWID+mT4z4lEckf0BwO0mvQOIcxJ9KF9W1DZH8gcDlEb3S+inwL+JmV3lE8geCjbyIjL20Qi5L68ccn/KI5A8EUoyvyBTpGSRl8UhjNUTyBwJ30NqEth6pfuvoavZ66WfcaIjkDwRSmXtp8gCudcL0iSiHSP5AwOEte9NkWXDRM/kUFIaN8EckfwBcEQmt1u+x6sf0oV7/UHR6SyGSPwDsgXURsecbTtL6xPljdmc5RPIHgL11sQnTQ8KGzR8T3Mohkj8ASDBrgvx2l1d+xkdR85dCJH8AYPZg8TSRZ9Mv8g9Hh7cUIvkDYEhOJ1eONoGrIj4HW6joEOGHSP6KgHTW2e38u9dgtcHkiptd/ojkrwi0PrZ3neUJ80AyHcSP5PdHJH9FkFU5PGqjjo2A2184NB/Dnf6I5K8IwozDImCTZg/+LjvMEX6I5K8IjhLaO7IaYj/k51p/6vhE+CGSvyKwtftnJSRsCqNqA453LFvuh0j+CiDK03iIXc4GzjZpDrY0eoQzIvkrgJ1VSohca1ICJIA24iPiR7vfD5H8FQDh2qBtMbnwPSL5/RDJXwGEFy8SYmwqztkBZs9VtSGS3w+R/BVAjB8ns46b1r2gNvQPJOcKItwRyV8BmDz9g81GeixwekV8Qq444RFuiOQvCUhmtX5LyEaCGw54PNPrjkj+kiCNmISyq20gmwSQev1chkeqRYQbIvlLwiaTDSdhxjZgLOITye+MSP6SQMu2iWjsNRB6jZrfHZH8JfGRtCz2dVOpzBOB5p87P0Z8fBDJXxLY/H0D7XF4Mb+uXJZAShhb0qTWI5K/BCC8zeHH3m8R06zpI1+kkUoSUxCR/CVAQVoINsqOaoscXntbi7T/SDR9nBDJXwJsbpHa0DbND6jaHGP9bphxXei8jnDEiSFjntwvm18O5lW0f0swo8+YixeM+cZWY9aobRH5iOQvAbT+4fPJAZLG83rGgZWIxWjrEmNukjMekY9I/ohpi2jzR0xbRPJHTFtE8kdMW0TyR0xTGPP/1POsJJToxt8AAAAASUVORK5CYII=;" parent="1" vertex="1">
          <mxGeometry x="113.28999999999999" y="358.48" width="58.5" height="53.29" as="geometry" />
        </mxCell>
        <mxCell id="k9qT21ym4J0Swm9wOZpl-19" value="" style="shape=image;verticalLabelPosition=bottom;labelBackgroundColor=default;verticalAlign=top;aspect=fixed;imageAspect=0;image=data:image/png,iVBORw0KGgoAAAANSUhEUgAAALUAAACWCAYAAACYa8kxAAAAAXNSR0IArs4c6QAAAARnQU1BAACxjwv8YQUAAAAJcEhZcwAAEnQAABJ0Ad5mH3gAACCtSURBVHhe7Z15sB1HdcaP9LQ8LZZk6WmxZO2yLEuyJFveDQYjbIJZk0pCihRZirhCkj8cqFRIKn+kQiVkgSRAgKRIkRCKLVBmtzEYx9gGL7Jsy4usfbX21VqtJz1J+X49d8RoNHOn5727vHvdX3mse++7t2e6z9enzzl9unvAOcECAtoIAyv/BgS0DQKpm4gzGiNPn628eR2gu8ds11GzQycrH9QJwfxoAk5KuLsl3N3Ho/eLJpoNHxy9bmdsO2z2852q6wCzGWPMJo4wu+ySyh9riEDqBuK102ZbJdhXjpjt1DWg06xHn9053ezyUZUvtSnOimUrd5utUr1PdZsNUiceplFq+mhdIvikkZUv1gCB1A3CuoNmG3Ux/HYMldkhwSJohLu4y2yJtHVHGxuDr8rk+NlmswOnZHad0Qeq+8AO1X+I2Shp7qnq1FeqHUapbfqKQOo6Y69MjOelofbo3x4JsUdCPZuwoweKyKMlyLfPMRspAbcrGKEe2SG7WuROM24AnVmfTZS2vmqc2RW6+oLgKNYRL+01e3SrbMljMj2knU5JoElCA7T1YREdTdauOKW679QIhYbOUqHnKm2y7zWzJ7fL7t4WOZW9RSB1HdAt4f1si9mzu+Tpy8w4IwHFgrsIEvIADb+bX5VJwrDchhisEeoSjUKDq5gWkJ126lY7rTtk9uCm3nf0YH7UGISrHhGh959wfM3UTElA6CFSLXfNNRs/vPJhG+KMyHpAmvg5mWLb5SzyPg+0iemaMMzspssjs6QMAqlriH0i8i80dB6oaOcsIDAafIgcxEsGRQ7i1NF6L232egCx+VdF7mcgt+xs3jsCZrCQthrXGRGb0J8juwcCqWuEfXIEn5QjtFfEdt59BnCIBkowYzQMX3OZ2UyR2VdQ7YitMrmeUpsdxXmG3Gkmqm1oni6NYLdMlebWvz7tFUhdA2By/EIODoQm7nwREI6uYdLMcy41WypCY2f2BggLidE5mg20LE5ZXzomTuRyERufAl8k7UhTNtekERGxx8okKUIgdR9xXCR+XITeJZPjZGWGMAkEQjy2S8PotSIz8djegOn0o7oHtjoDwawxZkObaLIcl3bdcDAyoyZKgxKO7IsJtWa/7G051idUz7Tp5tpQCmGG2u7mKcWzr4HUfQDOzlM7JdyjIrTIloYThlTZFLTMtN5NLDClDpGZYoZEDATDVN5Safy5Y6N7NAPMij68VfVTnc7KRp6t55kmc2qcCN7bKX/q+OQr6jBi5Gl1mjQ6Ve+5chpvlI1drdqB1L0Ejbb+gNljcgzz7EEIPUcalWGzrBajvB3qLBB50yEVJ6I404b76JoirbVsprS1NFijQWd+Rlp1tUjYLULHwKSaqfrOEsEny7EbhG1SEruPRSPfYdU1i9iUecesyLnOQy9uGwAOSZgr91Q4lia0MFjD8VwJ943TyxMaGx0HiombTRIy5gbT6sS63b0kNSYzmjVhg2O3ibi6nikGIwYm0lqZEYQ0GcEOJgjvC3JAbpYmHqnOSgpBEtyDDoUNjimWh0DqXgDNjKY6rgZOOzagU4KZpmH4JmnojpLmwRZp5cc1BK+RFjwm8jCtnp64ceTWvxtFrGrx3nqATkXo8oR6WrIzu9e6GJ1O6m/r9Gy/UD02qj5lcZnab+kkKQaVhT8Sg3twm1elxZ/dHX2WhUDqkqBhsf24LhoeReAOaZgJ0jA3SNswqVIGL0rzL5eGQwszpe6AFHOAtiRi0Ehwv3X71JlTpI7hiKcLLU49sJFRAD0lOx+Ze1d3Ra/TfgP3JhyIqZKFQOqSQDYQz2nIlFBp/OHSLEvGR9PCZcCQukLCx6SowuPzgDiEw7ZIuI3E/uNmezGFPB4SLp6QViWhC3KfypmQygIj3FVqx2myzTs16iXBvelcmGhZCKQuCUJPzIilAaE7IPTE8tO6T8kxIvmJuK9DAWGYxBncKZtTr3EYG4kR6qyduv8gbp7SoFmgKuKfbdDIBgnLaGxClgsm6F/9JmmGAMo9LAWw7Uj0PolA6pJA62QBs2O6yMywmR4uq+EFmRyrNZxD6Cz7PAnITMeZrPvcOc3s1+dHaauNxJhhZu+90uwds6O4MXUtqi8+AE7kehGb+hb02QtAXZl5xVa/4D4qhJFqpUbNNAKpS4AQXpYN65Ld1chzxpaL0RKqWyUNfVq/rTqcS5h0mktF4LvmmL1NhJqiYbkZS8Dg1TDdd8IIs2V6jnfONesS0Xm+ajindoPcrH7BGfYFRL5CtnWX6p7W1uiAYzJvdqVs60DqEngRAuaQmvjs5BKmAOGu1TJljsvOLNJcgyRYkuffJQIRGehN/LcewO7led4zz2yRiAfZqwE/BPMDbU3Gni/IlXFrGfXb9KiAzb5ByiaJQGpPIASmhtONCqEHi5WsMSQE5QNMjZdlcuwXoZ3JUYXVTD8zG3nL5c2ZaPEBeSjXTzG7SZdzkFNtdB6qJ+23X7YwvkmZlfSYIKNU9gUjAu2mNmcBc09C2QRSewJtQPw1zT9n40qLlNHSO+TcbCYkWGUCAfsZp4zkp3l9XN7UKLAMiynsEWjsHGJjZnGtUafeK7Mh3Z556JK5MzYjS4/wHoph+9HKB0IgtQdoeGKurkETUoB4A/Qem9I3uYhcDrfKRa/TkyoxuA9a/5pJ0WLUVgJT5HTEITmkBrH/8DLaOsOcywNT4x2YIAnW0laYcMgnRiC1B07I7MhyEGnQ0dJKOG2+OEByEis/xOo85xA+zJAA54+P3rca5qkjXqlnT09zx6DeZ1XJbercZabSSZi6BIcxwVqn+VUWqQVxcwZSewCbDVKnOYg9jYlwqUeOL8BRwlPvkRDyCA2jCdNho7Yylk6WDSz7N7eefC72ucxDT9u6U+3NlQYmCAszSCsAgdQeINeB2bCLBKSGxH703a8DT53pXZdthzrOAObMwgkVu7SFQYrADeqY1bQ115aC9YppsEiA8GDStqYclE48KRZI7QEay9lxCVIzBA7Ue5Ya+eKEOsYRNb4rJ1FWDARFtGNOiziGRSAMN0akTseXY+DgnVIHJ+MxV6OnQAjR+S8JUiMbdr8iexAEUnsA5y4tGGQwQmbCmM7ofREQ2iFp/B6VlQe+M3usf2iwv4N4ejVHl05MOHCPTDJfZT1a7X1R+6jd0NSEXEEgdQGYLIBsaU2CQMiTxqb2AQr6oJwZfpenlRAwe8u1C1QdF+5MOnZJ0A60S5mJmJEVRzFtfgyQLDDvQCB1AQg55ZGadu30nBDBkTnSnS9gwC18NX+rgI5PCkFevdHQZcwPZjHJZ0+DSZk4WSqQugA9akDXhqmGdKTW5TtlzSwiw2Oe8CiL1ebVSN+KYPTB6U3Gli+AiIiv4UtqkLXwgvJjEyaQugBu+lWNmG5zN/yVEAQgdJUrPJXXl9XY/RWQmsQr114ZoDnOKw5PZJaVKCCQugg5wgB5gspD0fdLFtcSoM4QOxeQsQyj86B7xAojkLoANFBWI5WVBXLFa8+Vrwo7FY+fbQTsX3Z8rWZ2uXapRvwUMuPa+izuPIHUBYgbPN3m5G0gMF8eOttyiMrJaXGEflLee9FCgVqCNX5kCz6/J0oHXXegdyvAq4H6HGUKO4fUgOxDX0677Sgqr5PAEY8nwQKpC3A+3TPV6giJ67VKbLQIODdMrORtHAlwJg9XydyrFYi7/2Cd2d88YvbB75nd/SOzP7jP7EM/NPvk42Yrdv4yktBXsDrlpMqqlrxFWoCvpsbZdho5wWx+yyxjnFQWSF0Aer/T1BmNTsA/zjcoAuWMq+SI5AmQzzf3YkuBsvjKi2Yfeyxa6Muqm7Oqw1kR/ahGioe2m/2d/rZSf6umXX3A7zlBwZEuryx9PmFkhageOKJnjecOzkNty+9Jdqq8DSgCGiBLKGhpNlX3AYIl8ckJuPJZFtgno1ZaMgskVH1rlZ4h1p6Jh+H9GdVnh0yQb74cnXDQF1A0iwGqVZj4cpmFyhw3wpR4cuQkX4ZwaLxeM5DaAy4LTwJPalhsxTN6TyqpLwhtjZYJUm2GjQ0nyVyrF9g/m1TaakRDa7MtcZm6ZYFDmyBhnp9AO5D45MyPymdFYMvkc/pN0pyh3VhKFm9LEUjtAXb4v2gRgBqSqVlsvPNbGxQAbcL5gTiLyQ6Sxgt7I7u3Hlibs3j4Aogw3Xo+7OHeAoeOjpEHV399Z2qcoOQB4vxMhafbDm2PeRdvwBlI7YHxI6RRcBhTjYm2QLOy/4QPmH1kyX+HyFItCkJWIJvb1ANZZlQmqnQ6H3AMxsEiTa82mMtiAk8WovndrGxCS0Nw8qkhdIh+lABRC5cZliIEjUkIjC3IfDFWHQRt7TR9FeKw8xKrzWuNrCnmWoPlatjSeR0oqaXL5LrQJif1u7Q5g6YncSpGILUHkAFLthwfEqRAaAOkwcky8x2qSYCaOVbk0uvcfAgBE4EIBPvltRLYfphj49LO3EVQAyyYmL2SJQvs75EVQ6eDQOrkkrpAak/MvDSyidNyIj5KRIGh0Qf8nq3CWAjgtu7KAR0GQS4XQdhEx9tsaCIYsdivmzBnViYdgIRc89SxWbDsC5xnlEdaS9MurIZJbuwTSO0JdiQaXvGuk2Am64w0hVtM60m8eHOasbGdzpUBBMZqjidEbHY2qmeory/guZiZhNDsG12tA0Jooh1Xdfmn7b4mp3kXe+apnZP2NBiuMuamVgoFUpcAq7uzGoz9O9BS7OfhC/axmD8hEmy1iQcIQiTkmT1mP9kYrRLpL4eI8hys33xoc7T5I6HCaoQmSkFdF8vs8F0GR3Fo6Z2qN6NiEqxGYsaXVeZJBFKXAHtaZKWHMiSelrA2HJItXCIUx957C9RR3JBcIAnugb16/4bIZiVvw3c2s9YgrMZMIRGaB9ZHi4ldWm3l71mAgBx6tFD15XwYX2BHs+cgTL3A9FCboegXqYOkEUhdAkRAFk9SYybstxhswI5GYZq7mnDTQGthX6LB8haoOqhQtCAmzhrZ2N9fZ/bwlgv3u6g3uD92Lfcld4TNLcnAi/5Y+TcD1Itw22w5c0vUfnHorQiMBG7rZJGZSFMStBcTLqzpTCOQuiTYqGVYBvmQqdrZXpQQmPXyBTFaTh2YJ+3F7/kfmjsPaCvIxVcOqCNB6ipfry10I2YZD4pgrr6wpwqZAduy8Xycf+N2bqrWcROgWEKDjH6cqnCBWaMCuTUn4WaFKAOpSwJtzUaIjnjJBlWj0/CcA/P0zspUtCco88apZtdIaxNhKSJKjKH6Xm/PZewNqC7x4MEVE+sCoqXgTCpdcHihFMF1InSZDS7xHV7SiORWxSTMDsqEtDxH3iLlQOqSoFGni0hsrj4oQ+ugVfaK0E/vklb1JCdAY3N46BunRftlYOKQG+E6TwYY0nE0Gy1AOh3RhrxNamC+e2ZdZCXeqs7KSFSG0BwRwuleR9V5LjooVBd56ddPjt5nIZC6F2DYvVa24TD9m5WcdFpCIbZMjLksmG3kyDXMEYqmX6SdSN536A94/b72aa3A/dCSA6Q9L3Ju4w6oZ5sv4t82PdoJNf7YB4QwH5XNzglcyTMagdP86kw4hxxCmocGN0l7ACGhhdCsTrAZUkNLrxaxyYorCwSGJnrbnOi4Zkjiht3EvRh6R+ZpyzqDqe2pEJtn0eWeTSPHkKHRxpZvnytzQyZamd2rABr6oY3RQUnden0BdA9Gh+m6L1Gjagik7iUQJJ43DtCwnHxgwlzkbzwoQbFUqww4PZapX4ZvjsSA3HAIxwvyzJWd2ttD+/sKpqXpVIP1HC5qo4tTtO7Qs75B5tPleu2beReDWdkHNkTOL6mvSdDWXBN0PxRJUdmB1H0AdjAhqolq5EwbUxpW/9mWw1F8uUxUJAZhK6bVOTn31+aZLdXQu0AdKV5F0ww4go1QxxJ5r1P9f1XP9eYZ0XP25hwazo98eJOc7CwbWvcCY2RHEz3hqIwiBFL3ESSmoz0maEjOMkWIEEDsAxpOH5TgWOTK+7IgFMZiBeLk2PNlHK96gFRPdjVdpGch96I3e5aQsot2fnpHhdCpWDSEpv04FuNmjQCT1Il8EEhdA2A7okXGx9ozRWynsWWKkKCEAL+/NpqRK7OFbQyKZrhP36IZIEbMs5QBHZppf3JZfrDe7JUjZijni8KDlKvPWHdI9GRKiSVfgdQ1AmE4NNcEERx5xMPmBYDc+gcz5H4J9KfS3Cx3QsjVYr7tABxnNDPnUH5ndRTLJz3V1Tuj7jTfaCkJJlg4+SyzPXMQSF1DEOq6lWESrSIhXBTyEhAiAiazDS31PZH7h7rIcWhXYjO1v/Gg2bfWmK0QqRmxqGtWfePYPG2IkwyhyyKQusZgPSNOE6EnzMw8DROTm8yz4/qX06U4u6Qdcbw7OoOStiCHI6/zuvi7LmZJ3yBClzlLJ4lA6joA53HZrMiBxFsnBJc1SQMQNOTnHMZ2FQYzgEzCOC1c+SyNIXK0x+ribPe3zPQ/RycLgdR1AhqHcN8taBwJiIYeJOGmNTfaabw+b/UzXqqBtmAEI66eNMloC9qENaDT9HfaimP2+rr7a+IWAfUAsds3yRzB1r5M5GbkZao3nh0kcX7W2OaH6OoNohhdIq9LQ1Vdh7JCX20wQ7YzziBtxHkutUAgdQOA5rlSwy+Oz23MuEmg7Co0VCQnf4Q4b96w3C5gUsblqkBoVXa2NDNERjuz+KKWq9wDqRsIJizIx2Yq+Y7ZsjOlmWbLu+/NLFyrAc5C3tunqO7yNzjumeQt33WKZRBI3QRgP6O1rptstoh1in20IVsFEJh6s3ee20elTgikbiIwS7Cl88J+Ab1DIHVA2yGQOqDtEEgd0HYIpA5oOwRSB7QdAqkD2g6B1AFth0DqgLZDIHVA2yGQOqDtEEgd0HYIpA5oOwRSB7QdAqkD2g6B1AFth0DqgLZDIHVA2yGQOqDtEEgd0HYIpA5oOwRSB7QdAqkD2g6B1AFth0DqgJYF+xJyLvq2wxdeA84J0VcCXg/4+GNm310T7Y1dDR2dZl+6y+yqrsoH/RCcRHDDf0ZH1SXRr0h98ozZET3g1iNmXWx/G3Yuqik4TeyLz5ndt06krnLeDIQYMsjsP94ZbYvWX3FCpJ78z2aHU0dmN43Up0RgDm9/dJvZE6+YrdmvntcT7X7Zo7/FxyQE1BYcnlR0gBJanD2lkUW8s//1U6JNHSE5+0z3B4WDpl725Yt50nBSH1Ov4ty8b6wye2ZntJccn/XmpKqAxiHebpj9/35rodlbZ0cbqffH0bRhpOb0162HzL6g4e//tpiNEJmPq6dlncwU0E8hAg/Sxe6lbJh+z83RtsSjh1b+3k/QEFIf7pYdt9bs8ysiu47TmRwCoVsTIvZgXWjpG0XqDy01m1twXngjUXdS75Xd/JXnzb72ot6oERwCmdsDkmeHtPQVl0hr3xDtt90f/KC6knrPMXnQz5j9dKOMejl/gcztiQGDzWaNNPuwzBHOb2k2ZAzUB4dei8JHP94QCN3uONdjtumo2aefjIIAzUZdSE1I6KsyN3682ewUZA6Ebm9IvhxyuuFVs088brZbBG8m6kLqR7aY3bva7AQnqfcmVIddFq7mX2UAsSXrNYfNvvBs5bMmoeY29S710s88ZfbgJr2hYXxK1/c4NHLAIH2dw+d1dcpOC5MvjQdtfuq0WY/+5cxDcBblVIIl44abfex2sxunVD5oMGpO6ntfNvvU07KjuysfFAAyEx7ijMF3z4vOo4bLzGQFNB6Qmil0BljmER7fZvYdjbr75SP5MoVQ3/zxZl96b+WDBqOmpCba8W/LzR6Qc+ijpdHMS1T5e240mzkmOsM6oH+BdAZmfP/3JTn+K/WBJ1s4W/xv0dZNiIbUVB+uP6Ce/YrISqkFlWdou3OG2SfvMFs4IRC6v4JpcabI777W7B+W+Z9/ePik2XfXVt40GDUjNRzeJO/3mMYtHIZq4GzuxSLyn99qNrqz8mFAv8YgkfstM83+6rbokPwiQAFye5qR01MzUh86YbZFpMbJq+Y5o8XHyOx4/8L+lzMQUB3Yypwnfuc0yVGKqQh8f2UT4tY1IzX5HesPRnZyNdMDvi+QHX27en1A6+ESaenfvNrPDHGckEnaaNSM1EflTOw9XmB6iNFkd11XEOphyNqjstD8Ww+bHZTnXUswOcSzuvJ17dcoU2tQPs9O+a5dPB2sVgAj7CyiVCiwPKi+yJE2bjRqFv1YvsPsnh+Z9ai03BJF6rGyoT97l9nccZXPEuBnz+02e0HXqn1RzJusvhljIu2+ZJLZFRm/K4MXNBw+r2vVXrOdKp+RY5rKn99lds1lZvP6uHzpZT035TNdvEPl0xZTR0fLohZPNLtaV6uDUN9nl5vdu0EKoiB0+2aCAXdW3jQINSP1s7vMPvKAHEXyPHK0Nfb0jFFmX3yP2aiUPY23/IN1Zl97yWwfMVGVE2uCc2rEAXJUrhKhf39JZNeVTU4/rpHkh5Xyd6I5KZ/JBcrBD9DrOSL3BzS0vm1O+Tj5SZVBKPOrKn+LNDQjlosCqXx3L72eLu3224vM3jE3GrFaFWjgr68y+7SI7UbmHAYR88a5/Me3Vj5oEGrWtAzp1K8a1+g+VDRNyG4J/ZtqpM89UyF0paB4dtE9pX67+pDZJ54ye3gLv/JHj8pjAuGzK35J6Jhs7h48j75D7sK/SFD3E2cvAep+/3qzz6j8LUcq5Qtx+fFr1l7+q8r/9svRZ60MR5wcMp+H/l4blVkONSM1xCTXo1olIHR3RchJPLbV7BsStDNdIARlJMvhcy79lpmt/3o2ckp98fROsy+/IG0q4saEyyxffzsijf4/K2U+yDzxBaYGGYksfohJnC7f/aP7sw7zq3qWp2SutTKYdSyaj+BPbnVTg1EzUjvlW6WCMSB2EjhpaN4jss3OE64KIM16aVQmedDARSAF9qFN+ldk9Spf38HB+7k62mmP7+Mg8/wshnA5EgXAlNqt7z6q8jFZ2h0pcTcENSN1b7F6fxSkd/DoFE6jqqUgNY5eETbJZHlyu15Qtmf5tAq/wVwowg59B4I66XmU776na4XqXGa0CfBH00lNhOMgWtSHEDGkodceiLZYKMI+fWcfo0CZ8vXdjeoMPnnBBzQSbD+mn3iMGjH4LqG+7R6dJqA8mk5qbEw3O1WCdBAUW43Nb4rghvhelN+ti81SinCK5yeSU6J8cEYtf0KdOaC2QHZNJ3VvbS60nc9v0za8L1zjePzWcbkkoR08yw/wA9mEjK5/cn8/IPXIIZIvGquEgCEqmWPDPfIPhg9S+ey1VrL8S1Q2z1aEETxDL8of1qF7hNyXPgPlsxky32d29efN/v2ZfkDq6aPNpoyQoJkI8QSkYPZv0sjKB1UweZTZTN2jTPkQlHRYFiwUYbye4cqu8uXPvVTPpSugbyAM/JONZo9ti3hB2zad1AtEnpun6kFKDOFDpEFvmGI2QZ2hCFeIOG+cFpXvKu0BNke8Tp2G6e0iTFOnYdYMTvuWP1jlXzPZbHYgdZ9BYtUfXme2/G6zv36T2nV8k0idlD1bWL11VjSFXEQK/o4deusk//VvEJSMQMhdiMr9l6qj3TYjel0EclPYemvBuIpp7VGHBWNV5xbOUozl4APfjt5XkHZBfv6PPlBDUjNV7GaYCsD30lGFa6UVf3eJWdfwSiPEDZF6zd9ICPo9ffdyaUhfMBp88BqZImlzJVU+u3yS0ET5LC/zxRyR9O6lZjMwc5IjTqp8mmeWOhf5K5gsrQompY4WJDLFIDrUSEzU6F0zUvsWRDIMm0WmQZLPX6inofUAyUyQ2F1yxnD43nmF2Z/dYnaVhpiyQFt/9A1myzQqoGXS5Q9VBX5ldlQ+naws2JnoL1U+yVAMiReUr9csLr6D8m82u0XmVisD8Z0i+lQkdNW5ZgQrgZpl6TEr+KcPVPIrMkjroEpeqmHin+6IHL0svHIkSgslbZMd4mkUltxPkxYkdZMFnX3BrmNR+ikzga++FgmGSAp7MC9S+YwWfQGTPSt3Rc9/UK9pXJ6fkeVqjRgTPZzb/g4yKsnQu2+TlFSVWLvE7Tryx5dF7xuFmpGa/OePPmi2hyy7vEkR1ZKtYH9nsdkfX1/5LAf0CyYn0Ko+obuywAxi0240aT3Kp1VjM4vyuU+7gBDah3+sjhtnPOaAdY3vW6Dv3lT5oEGo2egwaojZJEJz1UqUoM9IuOReF4FiiBPXg3CAzsIK9nqVD4kpn6udCA0YTXdLW1dNEFOdkSE+RKNRM1JjFuD8uEy1KkJEg3EUhtvaN6DlwNK6L62MfKMisOyrGQch1YzUaCQmEzr0b9VpYzUGeRWscoHcAa0DpqK//lKUP34+b7wK2DOEyFCjUTNSo5wZai732MeDYWuD7LJPPh4RG/s2oH+DRSD//Vy0U5NbKVQAokm3TY/MvEajZqQGHJHAbvKO4QWVIULCnhAfkcNx72qzV7ujjDoIHkjeXND+iIDQK1uOoXju/n60usc5vx7yGSZf5d1XVt40GDXdSw/8dFO0RzF5xj6VBwMHydHUxbFmTGnTqONkozejl7/ewVF/rBbCuV13wOyJ7SL1Pv0BWXjKk0XLpA78fYNDeTFqTmrynD/1hGzm9ebOQ/SGGo3ICRdaPDfWHVB3QGgStBwzSsoC7rOVHAeLNsOeBjU1PwCpmO/SsEOyTuGMUxJqQGzts+oULlREg4arKRckdnKQOVhWueAckgbQLEKDmpMaMDP3G/PNOlXBUimZAS2NgVJo7Mny/qsrHzQJdSE1QFt/YJFIrZ5fSmMHtCQ65ANd02V2z02SNzZIE1E3upHxxnQ4QxFDmiN2kysbUAdIph2yoZeK0KR+kiXXbNTcUUyD+Oa3V8txWBFtZOOzV0dAC0HKitzwP1pqNr1Eum49UXdSA0J0bJr4ueXRvyjsEItuUUh4yI+LxHxGY9KGCcH2FzSE1DF2HzP7ySazb7wY5RCQPxC43SKokJlJFYRGTvj7Fka70RLx6E9oKKkB+QNuq7HNZt9bG+1fzCSLSyXgSQLL+w9gscACB44AZHR9+xyzO2dHWzH7rLZvBhpO6hhoaextkuqf3hHt67ytssE6O9Cz9q/SpgENBJEL/B5W72BSsGKfPcEXTzJbKK08WFq5v2nmNJpG6oCAeqFuIb2AgGYhkDqgzWD2/9FjMsTfjzq5AAAAAElFTkSuQmCC;" parent="1" vertex="1">
          <mxGeometry x="110" y="266.41" width="60.6" height="50.22" as="geometry" />
        </mxCell>
        <mxCell id="k9qT21ym4J0Swm9wOZpl-20" value="1" style="rounded=0;whiteSpace=wrap;html=1;fillColor=#dae8fc;strokeColor=#6c8ebf;strokeWidth=1;fontSize=16;fontStyle=1;fontFamily=Times New Roman;" parent="1" vertex="1">
          <mxGeometry x="230" y="450" width="30" height="45.145833333333336" as="geometry" />
        </mxCell>
        <mxCell id="k9qT21ym4J0Swm9wOZpl-22" value="2" style="rounded=0;whiteSpace=wrap;html=1;fillColor=#d5e8d4;strokeColor=#82b366;fontFamily=Times New Roman;fontStyle=1;fontSize=16;" parent="1" vertex="1">
          <mxGeometry x="263" y="338.871875" width="30" height="44.11979166666667" as="geometry" />
        </mxCell>
        <mxCell id="k9qT21ym4J0Swm9wOZpl-24" value="2" style="rounded=0;whiteSpace=wrap;html=1;fillColor=#d5e8d4;strokeColor=#82b366;strokeWidth=1;fontSize=16;fontStyle=1;fontFamily=Times New Roman;" parent="1" vertex="1">
          <mxGeometry x="384" y="450.001875" width="30" height="44.11979166666667" as="geometry" />
        </mxCell>
        <mxCell id="k9qT21ym4J0Swm9wOZpl-25" value="3" style="rounded=0;whiteSpace=wrap;html=1;fillColor=#f8cecc;strokeColor=#b85450;fontFamily=Times New Roman;fontStyle=1;fontSize=16;" parent="1" vertex="1">
          <mxGeometry x="293" y="153.181875" width="30" height="44.11979166666667" as="geometry" />
        </mxCell>
        <mxCell id="k9qT21ym4J0Swm9wOZpl-26" value="3" style="rounded=0;whiteSpace=wrap;html=1;fillColor=#f8cecc;strokeColor=#b85450;fontFamily=Times New Roman;fontStyle=1;fontSize=16;" parent="1" vertex="1">
          <mxGeometry x="293" y="338.871875" width="30" height="44.11979166666667" as="geometry" />
        </mxCell>
        <mxCell id="k9qT21ym4J0Swm9wOZpl-27" value="Sleep" style="rounded=0;whiteSpace=wrap;html=1;fillColor=#f5f5f5;strokeColor=#666666;fontColor=#333333;fontFamily=Times New Roman;fontStyle=1;fontSize=16;" parent="1" vertex="1">
          <mxGeometry x="320" y="338.87" width="297" height="44.12" as="geometry" />
        </mxCell>
        <mxCell id="k9qT21ym4J0Swm9wOZpl-28" value="2" style="rounded=0;whiteSpace=wrap;html=1;fillColor=#d5e8d4;strokeColor=#82b366;fontFamily=Times New Roman;fontStyle=1;fontSize=16;" parent="1" vertex="1">
          <mxGeometry x="650" y="338.871875" width="30" height="44.11979166666667" as="geometry" />
        </mxCell>
        <mxCell id="k9qT21ym4J0Swm9wOZpl-29" value="TX" style="rounded=0;whiteSpace=wrap;html=1;fillColor=#fff2cc;strokeColor=#d6b656;fontFamily=Times New Roman;fontStyle=1;fontSize=16;" parent="1" vertex="1">
          <mxGeometry x="710" y="338.87" width="110" height="44.12" as="geometry" />
        </mxCell>
        <mxCell id="k9qT21ym4J0Swm9wOZpl-30" value="3" style="rounded=0;whiteSpace=wrap;html=1;fillColor=#f8cecc;strokeColor=#b85450;fontFamily=Times New Roman;fontStyle=1;fontSize=16;" parent="1" vertex="1">
          <mxGeometry x="680" y="338.871875" width="30" height="44.11979166666667" as="geometry" />
        </mxCell>
        <mxCell id="k9qT21ym4J0Swm9wOZpl-34" value="2" style="rounded=0;whiteSpace=wrap;html=1;fillColor=#d5e8d4;strokeColor=#82b366;fontFamily=Times New Roman;fontStyle=1;fontSize=16;" parent="1" vertex="1">
          <mxGeometry x="650" y="153.181875" width="30" height="44.11979166666667" as="geometry" />
        </mxCell>
        <mxCell id="k9qT21ym4J0Swm9wOZpl-35" value="3" style="rounded=0;whiteSpace=wrap;html=1;fillColor=#f8cecc;strokeColor=#b85450;fontFamily=Times New Roman;fontStyle=1;fontSize=16;" parent="1" vertex="1">
          <mxGeometry x="680" y="153.181875" width="30" height="44.11979166666667" as="geometry" />
        </mxCell>
        <mxCell id="k9qT21ym4J0Swm9wOZpl-40" value="3" style="rounded=0;whiteSpace=wrap;html=1;fillColor=#f8cecc;strokeColor=#b85450;fontFamily=Times New Roman;fontStyle=1;fontSize=16;" parent="1" vertex="1">
          <mxGeometry x="540" y="450.001875" width="30" height="44.11979166666667" as="geometry" />
        </mxCell>
        <mxCell id="k9qT21ym4J0Swm9wOZpl-41" value="&lt;font face=&quot;Times New Roman&quot; style=&quot;font-size: 16px;&quot;&gt;&lt;b&gt;Send Beacon&lt;/b&gt;&lt;/font&gt;" style="text;strokeColor=none;align=left;fillColor=none;html=1;verticalAlign=middle;whiteSpace=wrap;rounded=0;" parent="1" vertex="1">
          <mxGeometry x="263" y="454.04" width="127" height="37.06" as="geometry" />
        </mxCell>
        <mxCell id="k9qT21ym4J0Swm9wOZpl-42" value="&lt;br&gt;&lt;span style=&quot;font-size: 16px; font-style: normal; font-variant-ligatures: normal; font-variant-caps: normal; letter-spacing: normal; orphans: 2; text-indent: 0px; text-transform: none; widows: 2; word-spacing: 0px; -webkit-text-stroke-width: 0px; text-decoration-thickness: initial; text-decoration-style: initial; text-decoration-color: initial; float: none; display: inline !important;&quot;&gt;Receive Beacon&lt;/span&gt;&lt;br&gt;" style="text;strokeColor=none;align=left;fillColor=none;html=1;verticalAlign=middle;whiteSpace=wrap;rounded=0;fontSize=16;fontFamily=Times New Roman;fontStyle=1;labelBackgroundColor=none;fontColor=#000000;" parent="1" vertex="1">
          <mxGeometry x="420" y="438.1" width="130" height="50" as="geometry" />
        </mxCell>
        <mxCell id="k9qT21ym4J0Swm9wOZpl-46" value="&lt;font face=&quot;Times New Roman&quot; style=&quot;font-size: 16px;&quot;&gt;&lt;b&gt;Channel selection&lt;/b&gt;&lt;/font&gt;" style="text;strokeColor=none;align=left;fillColor=none;html=1;verticalAlign=middle;whiteSpace=wrap;rounded=0;" parent="1" vertex="1">
          <mxGeometry x="578" y="453.53000000000003" width="127" height="37.06" as="geometry" />
        </mxCell>
        <mxCell id="k9qT21ym4J0Swm9wOZpl-47" value="" style="html=1;shadow=0;dashed=0;align=center;verticalAlign=middle;shape=mxgraph.arrows2.arrow;dy=0.56;dx=15.88;notch=0;rotation=-90;fillColor=#fa1105;strokeColor=#b85450;" parent="1" vertex="1">
          <mxGeometry x="291.13" y="208.57" width="33.75" height="18.75" as="geometry" />
        </mxCell>
        <mxCell id="k9qT21ym4J0Swm9wOZpl-50" value="" style="html=1;shadow=0;dashed=0;align=center;verticalAlign=middle;shape=mxgraph.arrows2.arrow;dy=0.56;dx=15.88;notch=0;rotation=-90;fillColor=#fa1105;strokeColor=#b85450;" parent="1" vertex="1">
          <mxGeometry x="291.13" y="393.02" width="33.75" height="18.75" as="geometry" />
        </mxCell>
        <mxCell id="k9qT21ym4J0Swm9wOZpl-51" value="&lt;font face=&quot;Times New Roman&quot; style=&quot;font-size: 16px;&quot;&gt;CH = 1 SF = 7&lt;/font&gt;" style="text;strokeColor=none;align=center;fillColor=none;html=1;verticalAlign=middle;whiteSpace=wrap;rounded=0;" parent="1" vertex="1">
          <mxGeometry x="260" y="229.35000000000002" width="127" height="37.06" as="geometry" />
        </mxCell>
        <mxCell id="k9qT21ym4J0Swm9wOZpl-52" value="&lt;font face=&quot;Times New Roman&quot; style=&quot;font-size: 16px;&quot;&gt;CH = 1 SF = 7&lt;/font&gt;" style="text;strokeColor=none;align=center;fillColor=none;html=1;verticalAlign=middle;whiteSpace=wrap;rounded=0;" parent="1" vertex="1">
          <mxGeometry x="257" y="412.94000000000005" width="127" height="37.06" as="geometry" />
        </mxCell>
        <mxCell id="k9qT21ym4J0Swm9wOZpl-53" value="" style="html=1;shadow=0;dashed=0;align=center;verticalAlign=middle;shape=mxgraph.arrows2.arrow;dy=0.56;dx=15.88;notch=0;rotation=-90;fillColor=#fa1105;strokeColor=#b85450;" parent="1" vertex="1">
          <mxGeometry x="678.12" y="394.19" width="33.75" height="18.75" as="geometry" />
        </mxCell>
        <mxCell id="k9qT21ym4J0Swm9wOZpl-54" value="&lt;font face=&quot;Times New Roman&quot; style=&quot;font-size: 16px;&quot;&gt;CH = 2 SF = 9&lt;/font&gt;" style="text;strokeColor=none;align=center;fillColor=none;html=1;verticalAlign=middle;whiteSpace=wrap;rounded=0;" parent="1" vertex="1">
          <mxGeometry x="640" y="411.77000000000004" width="127" height="37.06" as="geometry" />
        </mxCell>
        <mxCell id="k9qT21ym4J0Swm9wOZpl-55" value="TX" style="rounded=0;whiteSpace=wrap;html=1;fillColor=#fff2cc;strokeColor=#d6b656;fontFamily=Times New Roman;fontStyle=1;fontSize=16;" parent="1" vertex="1">
          <mxGeometry x="710" y="153.18" width="110" height="44.12" as="geometry" />
        </mxCell>
        <mxCell id="k9qT21ym4J0Swm9wOZpl-56" value="" style="html=1;shadow=0;dashed=0;align=center;verticalAlign=middle;shape=mxgraph.arrows2.arrow;dy=0.56;dx=15.88;notch=0;rotation=-90;fillColor=#fa1105;strokeColor=#b85450;" parent="1" vertex="1">
          <mxGeometry x="676.25" y="208.57" width="33.75" height="18.75" as="geometry" />
        </mxCell>
        <mxCell id="k9qT21ym4J0Swm9wOZpl-57" value="&lt;font face=&quot;Times New Roman&quot; style=&quot;font-size: 16px;&quot;&gt;CH = 2 SF = 7&lt;/font&gt;" style="text;strokeColor=none;align=center;fillColor=none;html=1;verticalAlign=middle;whiteSpace=wrap;rounded=0;" parent="1" vertex="1">
          <mxGeometry x="640" y="229.35000000000005" width="127" height="37.06" as="geometry" />
        </mxCell>
      </root>
    </mxGraphModel>
  </diagram>
  <diagram id="60mGWSToZW3FRvI4qgRF" name="第 2 页">
    <mxGraphModel dx="934" dy="477" grid="1" gridSize="10" guides="1" tooltips="1" connect="1" arrows="1" fold="1" page="1" pageScale="1" pageWidth="827" pageHeight="1169" math="0" shadow="0">
      <root>
        <mxCell id="0" />
        <mxCell id="1" parent="0" />
        <mxCell id="YyGTKT00KESnd8j7vxBD-1" value="" style="shape=image;verticalLabelPosition=bottom;labelBackgroundColor=default;verticalAlign=top;aspect=fixed;imageAspect=0;image=data:image/png,iVBORw0KGgoAAAANSUhEUgAAAL8AAACuCAYAAABnYNw4AAAAAXNSR0IArs4c6QAAAARnQU1BAACxjwv8YQUAAAAJcEhZcwAAEnQAABJ0Ad5mH3gAACeWSURBVHhe7Z3Zjx3HdcaLnOEMF3HfF3GXKGoXbUmUZNnyJq8xkjgBAj8kD8ljgvwNQRAgQB5ixA8B/BIYgYEgQQJ4iRMLkWyJoizJ1mbKkiiKm7iKIsVFGpLDGZL5ftW3R6OZvt1V3dW3ezj1QVf3cubOvbV859Q5p06dmnFdMBER0xAzO88REdMOkfwR0xaR/BHTFpH8EdMWrSb/lavGnL1szPBo5wcREQHRymjPhWFj3hsy5tRHxpy+aMy2pXosV2M7v49oP65IYfX3Sbu2eNJaRf4zIvqxCyK+nk+I+Cj8GRq8VbONeXSDMTcNJO+LaDc+uGTMa6eMGZRdsWKeMTcv1GsJQtvQCvJj2uw7k2j5kyL9VbUI0tOymRq0AT2+sN6YtQs6fxDRWly9ZsxvRfxXT2v+9HqOBGDpHGNWSgi2LjFmXosUWKPkHxox5ncaqPdEeDQ9KySNgfiAlvG6f5YxO1YYc5cebV5GI4y5qDn9+X5pfym0a0ymBKB/UJpfr+fred18Y7bLhJ3dn7y/STRG/rel6fd9INJ/mBA+RVZr+qUtVsv0+exGaQ4JQkR7gSL76T7Leav5U0eNyMoMreBz9RgU8fHj7pAQNImek/+CNMILx5NBGr46bpByMEMjN6ABe3yThOCmzg8jWgfM1VdPyt7Xg9efYFZnWecJU3a+5pM5/dQa+QQNmbM9C3UyDvvPGvN/B4x595wxl0V87MMi4lvoj0fk/SIwdimNaCVGNKfvaEW3Cm3iPHX+zdNVve/csDGnhox5/ogxz+lxuYFwdk/IT8fo5C8PJbag+m6uuZC+AwYSbXHkvDGXGhikCDecvWTMh1f8FNR5CQHm74/3JiZwL5Vb7eRnMJ4R6V+XY8tSaDtXooOjIv0ZOVMfabB6OD4RjmBeD1+QfyZG+cQk+Ds2M+HJ04eTAMioh2KsglrJT7wXM+eIBmUslOMJoj19sg3ts/59Rp/ZWy8lwgUQdr9MnhE9+84P70cxIgAvyh/cfVRKTq/rRm3kPyrCP7E/WQozbcACQPZZnZjwPLF+w0Jjdq425rZlarSPaonoCdiRR4OXVkz6OysEIssRmcZYCyjPOlFLtOcdObbPvZvk5FwvofHR9PzN4tnGLJ9rzK1LjFkZozytBQz6hcj6rnyyMpo/C32zNPeDxjy4LtkgqwPByb/3tDG/0rI1ok+1n+zx6Ti1aPz5emZL/BaRfllNHY8IB+b5X/fohVbqEflkVwMEJeABWCHl98BaY1bPT/4dEkHJT5hr9xENgF5fI6TjAWvXqyXbRPjNi9TZmMowpfCGlN7Zi9L+MnevyJgekc1OGNuSqyTDEADYuUwCsFMrwJrAAhCM/Di1u2TqEIokjusKOjgo82aBBuzulbLtRfy+jtRHTC3AJNJU3pcQ7P9AwiABYBVISVwKcEFChAXw0M1hNzmDkJ9ktN/IS7epCjTW8RNnivB8+90rZNfLkcXGj7gxgLN6UnzYc8qYIc3xaJXojTgFrcgQfUQCwEoQApXJT0bmKyeMOSxnh3CX66dh5sxSjx5VZ7DviQ9H3Hgg2ve2VoE3JATXNMdV/AGifDi/j22SXxggO7QS+S/LuH9JxN8rW39SLkcOSFSbp4F4ZH2S5RdxYwOlyMEkAiFn5RD77O6PB+YTD3KBvrS5unlcifyvvWfMq+/LwZEQOOXoCLMGkxDWTnnwoZaviOrYo7l8U07r5sXGbJMJGkKzTgRpLr+WefyOVgLygMoA8pPZy37PjtWdH5ZEafJj5+86khw5RJJdPmVANj2pyQ/Lcye3uy7QFAb60Nkky/A+DRITWlFR3LBgvP57nzGnSR2RIsO82CAhuHN5chAFwoUC6QyQf9dh68d6O8JW++uZdt2zKhHWsihFfrahXzgmO/9cpwNFWl+tnSUbf7U0/Wc4jlhTTj67gxyQeUOrEecFSJlm72ClvvcrW9SG6Fdk4uSQyHjImHOd8CTzNVOsIOV485LkENECKauAMmCVJ6kvl9gVLuLPRHQEgMjPw/IZl0gQysCbDrTzgCT3iAbMKSVZrewTAZdJ4+9UQ+si/ofSWi9Ly/9orzG/1RJOyjRijYNFFGqYzYeITJAtS3blGDRuTCur514pkp9oTN+WSRSyisYqEfcbt0qoZF7BDy+ofWjsU2rz79Q+/M0y8Cb/BxcT25Dl0WU5JJy5QBrkQdn4i2owddDunP99QlrkVUifkjwdkI6WIOWinIF3Y2NUY8LZ6T6RMEuRWSHQmJJzTwoDOfihhpHQ9te0Ii8qIQDMKRyk4MEhLJASjfIiP3kb2NCc08RfKSITxB9QKzmtQ4w2NJg0JmW32kRcmcmb1CT9gL0Hwm0ZczvtAXnOaeyupkpjAphjxg0hOaIVlLRjfKkyZMvCAgnAFzcnipFgiCvSduFzviXtz8rvCy/yH9dAHXC081kVcITZta3ilGSBgT+odjx1MHGerlxOBqMbaOs5vee8HhGfBCbhRQe7Ox3f8xIUQpbE7ctGbCZikQSA0jSEvwc97fc+/Q0ZpSTV+Z4DcCY/9h4xfTajijQ+IGJAqQo88pAgbfZltYMl+IK0lUNTLOgoSXcRH4OcefJxCAq4jKNdWTWvF8UFQpY8rngSrhtsApsshHkykW1WrwPgoW232vSOFPP7EgIfOJOfo2ZnMXcYAIeRwrHFzle7guGSvp80Cmx7xtwmzzmyn/ezWpR1jm5EEOU5hcnj4chawumBGURU7QUyeAOtAOvJ5F0g8us1JrMLsC6wBIhAkmWAae4Kp6+gc2xoXdMguRCfagv3r5MUB9woSTdI3pRzC3yzRhESIj6E2CISJUbuzUyZHC5zOh5WAPQM6YgCMS8hgLXAfsx6CQCrkStoD6nUB6T9T3tofyfyE02xB1McB2mjJHiTHqGAqcMA71fnaEPZ7XGrrWSrRiREI0V4DnOq12har82sDhcQAFLZXzmZ/LsqKGbFzi0RQlcH2HJCbScqRYUQ15WokPz0kcy8Tl9zweD168HhA6+BzAHfSx2YA9JSpEqXIT4rEZM7S9pkoTRdRDI/pI8/vtGYL+qxrONo+s4b8zOsOcGfwjQOARxgVoCZ+lxX8wd/BGsA7U9ZFBcUfjS7uAgSy2QRGLhPifhsXIQC0ZzXNbCjkmpvU6eD+fI/SIX9o9uNuTewAz6VQWIYocZNEoKvbDXm8xuMmaux8tVbaF5s7t9KSfk6nd1w+3JjVpJa4Uh+YNPpxVM2YV34WvjRb8qpGVLHioCNRsLRlsX+2qMbsM9fkrlDP3wOyAA0EmXx2P7+/duSRCiqPFP0NuKTYL7maKy2LJWC2J6crSCE6CMFCAAZm88f8w85ZgHBvGdlUt7Q1f5H+2Oec6rMxfHNJT+5+ki0CxhA29hA6QsInD0IIdL7RCNox4BIvkFO0x9sM+bOFYkd6TGP0xaMEQrjs+sTpUF9fR9FhklK6JT0khBYJZ9kzU0JqX0mkBwuIntFPmou+dk2Jo5b+CH6FDiPA4UjVRV8HY7LCWkSH+KjIdiHuFua68taxlnSI/wB4bdrDL8kM4iV0ifyMqzJO6C5o7RkVdCOT69JwuauQgh3cHg5Y1K0C92V/PwhCU/kzhSBwyk4KKEuj+CSCvLL2bl1BRM0W735jDQW0YJ4Drg61ssX4NAIl0xQJt4J4g0Opz3g5GB6FIFwOTWbLKtdoPdh8rACfSJZLwNdyc/xM0KDRdEV643rPZgZIY4i8p34GZf1mUWSm4I2sDP40DpjbpHd2mawyZYe8KY0H/snHAMlZ4qSjjj4JI/5bNbUibVazR+VGTR3UApFY+wCOEMfKFwWAqTIcLOLjwmGBcJY5qFrPj8TwaQUFYYlFsu1QdiJITa1GLQfvaUXanyRuQWsyaX3ciSSdIq2gqjZIa2kmJKMLaFBIiOjaj8rJ4llfSINhzRYRaldv1Gal0fo3ChfoIQQ1FeklIblixXNCyRFUG5R2zmxR4i5Kqj+xxg6UMKCNnAa7U/u7PwgA13Jz0EDCo8ixXmdhfwPrjLmdk1YVTDITx5MCOJCfMJgOEPkhNxb8UhbXeBQzW+OGfPMu8a8JC3PpBCy5Xmsj+mzfmZ/rj7NQMvq+R457J+T7U2OFBqwKbDDTioDOTTdMkBT0Af6tEiCjOPM6lEVp7RaohRdeGGhNrBaEOlb2GWzLNNQIVxEZ/mevC/Dzp6h94WK6xNdQrpdQeO3cNKoQVJ0A6m2P9xjzN8/a8w//loCoFXUbsSwkmpMbQTDDjDv7iD9OS8Zf/0bc+h7rxjzD7uN+cGriT/UBIiYMc4LNOdFO6+WMyIfNjfh6k6XKoHENzS5FSwXqA2cRsszvTLJTw19YCcq58tY2jiRs9gzDbUbWFoZOFfpTpPnbEy6ReB00d88bcz3X5LjLvMmk+gu6Lz/mjTtW/qc771ozN8+k2jgJsBxQUyyPrWriIQ0HauB/CFu46kKPu9W+XM++w/sPHNeoRsyacPhBjSX/ZKcCSMCQCHZELF9VpuDZ/XCVbKFHYTBAq06oYC5+Hci6C6ZOmShjhG/CvT3dvdSj93HjfmnFzp+UQOAgIs15rOKwsj0We09o3lNlWkV0H18OhtBchxPxiyv0nM2+UV8DhbnERHJJxQ5hxhs52dVcEwawrXoFbY+ewrU9GwT/mefMf8sE2cfJ51Ix6AvjhNViM5nYQ5xKu0Hrxnz779LftVLYP6QE8QlyUWpB/DiirhE2DHEri9cs+kXjoSzXNIDZZ6FzOajsezGRs7EEWVB6Ya6HRHH0DXXnk6Ro9Mmc4dSHN9/WT7LebUvwETngf4f1ff8m3yKn77d+WEPQfXshZp3l3O3mD6kGXP0tSrgvN1IdfheC40TU/EBVkwGJtEH8wONxTVAeRI2UxoAW3+JzJ6q4PtwjFwkGqFboiV3RcCCpVVxTET87vMipFavXoFJpTjwf0j74xT3Emhg5p3d97w5Q0ghKjfqX3RMk8kD+0hUa7O+qANoG4EbVp4sTCK/rbKsRudpfUDHiOszEFVBbJ+G2GWqAAgKGX/E9tsA2vNd2eAQsW6NPxEM11sSvH95JVmtewnObMyVAiwyfWxYV8rKmtEBQJU/9kVcAJ8wt7rZ/ZOajqRcQbIKiEikZ7akmvz9qiAPxPUsKN/Ldrer3Vc3/vPNZCu/YLhqwzVpVDT/f6kdvWwD9ye4pD9b7SvlxnnhEEdIyTVyLZsDsBQoZJaFTPLbrfWCD78uSQ5lc3OW1EXrQ/xFerTF1ici9jPZ3Cfl+Lu0vw7wtUOaMy4FIRerVxjQHLju3JJqAAFD5PrwWSQsuub5875uJ7smfQS5NemRxW7zidRxuCRUbrwtKeIgyXQEm68tZQd/IuIfYxOnxyZHFuwthhKAXsogJ65s7leRolSjuEI2xEF3yE9421XzY4qiLMeKmY3DJBpxaIQzs/bDu7Jf/+lDQ5CQgWGlKeoMv8fRWS5HN0TadFXgG712wphzem4DGB9ysUKdpHIB5MfszZsOKES8nfEKoPjt3FPk2FXz2xVZjyyzetJHQEQkNI+M/IowVwjzg5RpPq+bnKWgE7auP3ZmTtt6BXuumHh+gChGZWhs0HC/UZsIGfcKpBtYRZQ3H2obXEnTZaqCr+LUmQ8H4H3WqjNZ8+udNDK3oforiB8iW2/svIDDyJBQ1ZYbXKhZc1hatg2CmOIjjSW5LBlKrhbMliJymQ9MI6yJEDY/402gxSeyRkQuK0V8UtPHiJ9DRuabPwwR6XHd+bPLnN7bBrIxkOTk0ya7rLYBGhdWIVajMnUrS0F9t5rfYQysUg0wVsw/itfF17DQe4gyIQATMYn8LuSiE3xYiNCVqzagWXTapb91g4M+ZFe6brb0BJoLhJFzAlTS7gWYfksqh0mxbwnAFwAP4KALF3hPN8GbTH49rC1f8MkQP2sp8QXC5tIJ2p4lvU0ApxLzog2r0ESw2eZadKAq4ICLAmScMI9cndQipMR3oYN9j/6X9d5JzeHsaxH3+XKkaTTDifAF3+dEIn0n5G+DAECuovOhTYB5YTOJUHUvYDeuUIAFc8L84h+GOlfNV1pBcuGC3kMViqzvnkR+e1qfN+Y1VB8ICXFiqgK/IWtJmgje0ycHy+W9dQMn3TrqLWjLRFzX/LFX0wtQ9t1FGTFnxOZDkJ/PwuJg59YV8NmJ/Eio9eBzOsWvCDuGGOQ5+hwraI4DQ8isaTABbRDCpsHmJDUy88YCrc+GKCFqa05XBF91CbPOkS8A4mdFpSb9CM1P4aLcydXv0MIhcrTtRpkLkdQBNuDOq+NNmz602bbbYwJ6BfL9Q5kXeYAfmD0uac1oaZIgQ4SpifLwvV7KR+NBWHYiJjWHQ78u8Xuy9UbYuAhARHsSrOhz9HsGmmNxrhGiunDTYLLL2DagZSFZL9I/zlxKzF4bcswB04qVwHiFID9zj8/lGudnTGgDN0tOxKTmkKJM0lKRZ86Xs2XNLR1VsWyemxJlk4skuBBRpiqgovG6BXoRQPBDY5XGEuGsGxzaYe6LlB/2NqsRu7IhwKpPnpCr0rV7MeJL1p7UZPKrkUgoGZR5oBHYfPasb0Ws1IS5JMlZJ1ud8F72AoODHEv1CBW6CwJIpkmmyOzimsmPuWvLEWrOCjWw2sXho1A1XOGAyx1iKXhflskDJk0fy0TWEjERpDSTShtiN5GbGjMEMxMjIr69CtX1D2oACmKpJtTen9MizNAkc8g7VDWNbmAvgUPpRSXj4RLTRJGDUKsRnLOC7qj8MMu6ldbJ1F22yI9MDBrfDXwogx3ibCa3e+Nn5H1fCjpNlYden1yaCMoiLg+0lAeBxmVQs8mVPiGiKt1AhI+rSK/oufC+BOZTD4QRU7oq0Pr2Wik9u8AqcvGKVToLmU3icuC0ylUeIVlScD5CxPspy2f3F4qgjo/oQT3PJsHdwhzknhloOa8EjRsm2F0SyLpLG3Je+QSHjwrMDssbtK4UBPV+QoCvPEpRMxeeCChKzK1u359Nfr2ZcCfIW17Q/ie1BIa435blGsl2AW2C/L3axs8CCgL7ek5LTB/Idv/ajiNeEziNxZ1m+F0ul4VQ24eiZt00ry+I9LyPuVUgeCkYE9IvvDS/3Y3TbwqdXg3AJb0vxFY/Ageh8laaMahDVHFuqnJZim9tE9nwV5o0fzrjRVHYB9fVa/JQ9fh9CQB+Vy46beL2/ZUif6hDTyQT5injLBC655GFzGZhflAteLaei8hIiZM05lsFNIRit4WpFR2w7BJuo9R3U0DLcnP4Yi2tTkJbB0QGwnifWW/MthrLs3NTOzeukM/lEmmhZMlSmc4hVyJWe5tI5ygAlLNk5emGrjK5en4S88+TNH7HEoRGqKr9Ic8mmT4+p3SYAy6ldr19rw786T2Jv9IU8DnuXGnMt28Ps4mUBXJ4OB9MoIVUhUKIF4Oaw3XiULAQpx4oO1fTGLApSpGrbug6XPwR5HYxfbABQ+SQszxRk2eGvtdFAKzDrRnZdUhLccWVpyyY3L96IAnnuTpiIXGzzK7v3JmEi+sAdv6z7yYKZsQxwgZncDI3S5mFAucUrCJ2Jb/mYkhtzlt5upIf84MBJXxWBLQ/Z0ddbm3MA99JIVSWK1ci8d1EH3Zpgny0QkhQuvvPd3x8l20vwPBgT39tqzGPbUx+FhqEsZ8+mJg8zk6mHvOkxAhghNrVBRwb9dFvFDXDeslbDXOpzXLu0gHSDk6L+Jxwqso/vo+LGFy1P1/I27jAzi7NjpMUGt/ebswfy/TAV3IV3LJgXKhc9vhmY/5CQucUIvYAGpZI2s/fMeaIiO8zp4RcGQOUWChQl/Qjx1UHMD5YEUVh31zys2SgTTkMkAe+DFvwTWn/quYHn0VFNq6gdC1ImvoleyUA3IASYuOtDND+37lLGlnEnKG2B+akBeRarRX5G7ca89c7Oz8MCAIX714w5kd7pdBk6/v0gbmD+JSODwWmlnvLLK8cpZA2U5t/PRfZ5SCX/GCblq+iSsyQj8dRmR/kfKRkLIu5A8k1QzjcPgLAmdoj8j2ekg/ATmDVdpTBn90rUj6kVVOKwy65zEQAKbAfo8/botWY7/hL+RkhgZKjpuWLR4158nCyg+4S1RkPqipsl89mV79AsKkUapcrEED4itbvFuJM0fVOrhQkkf1sX7KRVcQlvni5tNJXt2ggKtp7mC/c1PLyyeS1D5G5NqdfmuI+CRDST/pEr4H2pIDsyyeMOU582kNzjQdjShrJKvUBc5CVhTtyQwHSEz8/IWVBKJN7dH3uPragjXq6TaYOod9QoGbs/+5Pqjy7CiImIKkUXxIH8yI9oJD8AG+fcKZLLH9gtjGfkvTftaLzgwrAfLGXoMmcsY30IA8rxiytIEslhKQhrJUmbuIWlycPJL4IxWS5FRySQGj6Yp8nYPxskLxHrg4RMC52+6ZMnZCgOjaXDr4jc/WSyEXkztWxHYPaSD8wxbizt6rSGw9urUT5peUzCyHSE2Kllue3NFZFG35O5CeG/2PZgJc1OC4SSPjv9/TlC9WIqiDE9pQIRFnA0RLRJK5OYlKJOa8Rke4OIJS+YICfOpjc3IIWOyUtyz1VnAO2q5p+jxwwWSzVrFSsoOx4E835qh6hd27ZLNotpXZUbbgoAbCkdyHYeEB8PeGfsckWYr5TsLfAFU8XmHdHHw6zkES2h9cas1WrEG3LgxP5AaHEfdIQDFrRX9CImzUgX72l84OK4MqiZ2SHXtb3Fm6tZwDNROyZdj+6LmwkwhWYFjjjJ/V8RuQnLMxKasdTv2ei7JKtyeM01mI5zQskuF/TGNo9hMDA3HnpuDF7tKITrXNjwcewq5YeHJ55WGMaKn8HkMPznFbLfVopySFyaRvtQT8sVnse3+S2yjvrE+xNlrS003mgsdxSgg0ZAtzjymXG5Iq4XkwwHrQH7cHVlKHDgq44I01GKBh7lPgzKdHszDKu9+nBM/sFpChgq85mZtTXuqqvMQ7sE+AOoax8YIkmIUXj7wxMfIB5iDnGvPkIZZ86c5scXderspy7TVHS23C01BgrAHmg0XrPHpE/7ypIH7Dn8BC3eet10a5zN7Dx0VQqgr2WR+1Gq/HA3CF8x4MVIH3NEU1+z5yjneusVsEJuuVzNJ4isiuY+gGRbI0I/4j8kNCrElE6ggQMl0vmKEB4yW9apnbh2xXyswNn8vN5mAvsYkKiIm2Bb8BVNC8eC6O96NAmSfXnNyZa0fbPsZOAv+cWwbryX4oAwS3JPDTZqMYN86iujTvS1klDKLp/DfB7u2rqsQkbf0NSojwk4AnVrym462rnA4b0uvpCGBhn1xVeVMCOYqkm9Obi+LJkfaDJI1pks/EqgrHHcf26HMBVevY5HQTvmrD1AeSF/JDMVWAZOxQMhHCJspUFJthCzWueMoP4NJvVn6gTD16HBCsel3efVH9tqNWRL1br63m9BBJuOA6vhRf5wc0LjdmsL7LHDgv+mgkk0sJGxfNyYEKB3H+iINjNaC8XrYUTSZWIJkCUzB679NTgtPtcxzGuC9ytRZSmm+nD0DLN5Hl9YXOSdh569cTMI135bfGEe3td7Xy7Gum9tAet71tOxrsbNvNyhUwPBovJLCAeHaFoERcn7zmV2LEhQIcfkrOF3cmKxIGJvAnk1JV3ZwOBK3GockHKg4/ZQ/iRkGid5GdM2JHlaqUxJaJnXhNexYzYyR5DJ+o09p5AgB9w40XZ+ZfZSPXkx3W1cYvM4aINrSyU4gOlKO6W+TNPK4ALmETmj9z7N06HMYEANijZg3+4vbMKqDfwa2IdR1YoHN3QE+cKNutIDWYV9AGmJbU3bV5LjWBs0JoEEnig4DCF2Khks+iO5ZPHNARQhGQDPyurwHefgblkOsmjQrGlx259UKpLfPEWkW6jNAZetgupmHjmEPOHKFBIbcZkscny5S1yxiQE2KO0iYkkNEpEw6ZJNwQ0vzVjmWAPoAUR3LHba2oCGaKEKzm5R82fe0T6b95mzANrk/yqOoBAk77y7LHOuHgqRISxX/O7SYJbNuLkvMmVBXbhfnXU2Fr1NN7lg5hMGn67SHrvqrA53ynIU0GjsLFEqY0d+h4SnZqK8dscJcqtqF0+sEpF7X9A5h1auM72UwXtgvyL1VrNXZRZFZAv9roUIBdoY+N7Q+0bkFBulqnDPoNLnaksVCI/gPi/PKxO6FOct6FpvEynmyWxd2lJZSu/DiCcRBEw0+o82J0HTDzi1nvk0Nn7DDxGm3FCUdwqweVwuktVu7aDrF/ynI4MyRoouYfBVBLPh/hVCnRVpgQ5/2hw63A6SiDiNnxJgqPHLglOXTcIEodmSWyK+ADzztr76rOvQrVmjwiPENcV6+8VMN24qf4Xmu8jEoCyxEchUP0Nn7MK8UEQWpDKul0+AIrJNf8eXJZZcrazD/C8zCefvO2pgmER/7z6hQYvs8biK51lBWPVmKI4/mGS2Yqio86mr+OfwjrdGkOIj+aviiDkJ+xIgxACuF8U/x8PtrBRam+eM+bpQ7IFZR5UM8TaBWL82NJl+0QU5JoGNVSIuJfAtn9BDu1zehzCL5TW9tm5/QRYNjUG5EDZNJsACEJ+gD2K+XOrVgCsHx+niQkekePDbvCvNVBP7E+u1LwRgM/BCm9DeSXB31IOfqqA0C4r+RMHknSFD/VvSF92DOASyuMOOf0kAYZy/Cs7vBOBbffycXnysu9sHX3PT2dpY+UgfLlEth0d5kzvVAVFtXa/l5h4ZZBO/Gc3JOkZTUWsXIDZSmTrPT2fU3+pKVQmXfoTUH+xJrZJ2xN6Den0Byc/gPSvSAAwYco6atZ3UMvoLBsupPqykdWk8+oLTBXI8KK0H3ZulZG+R2blp9e0s//06yf7kiQ8QqaQHoe2KrMQfK5Y4hz5p9clCjEkahlKIj+c4N+xWl/AN5TQVpCFZZKV5H1pkudlDv3wdWNOTyGnmJwVlvwqJg8gikY9/F7dslgGlvjqK3NdWdsLEB/aYN/XQXxQmx6xTrBMlsfWJ8Lg4wOMB7t/kIdxZUBrGIPawApIpIejlFXIwBhwEAZhais2L9L/1MeqpLfQZ7B7y+EeVrs6iA9qIz9A63OWkgxMew5AnfAJhY4Htu5G2f6haj/2AqxaxOjLhvZSQCicyFA5UaGBYiM/qOotkHwOSpNrhHaI+NyBUOfGXq3kT0GlXM7zkn1HX3xCoSBdNYjtlklgagrs6NqqCBU1NuSfqX736mb1Mlg6L8mutWZuCaDcyBPjcA15Wvg4WZfIhURPyA/I4aGmy/2SZnt0Tt9sd4RdOqj3UP+RagZTCZg9/YMib0XyI/wc8GC/oK3xfrQ+ys1LsXXmPiU+NZaIatV9u0yKnpEf0Nc75Qd8Th0kcsNJLISAAevmE/BztAkD00TdnbJAW9srm2T2OAl4DuA743Cuxc4+XeSYqE3ddegv/eFtEJ+M0juk6R+Wxg91hZELekr+FORkPKqOciB9g0yZtBHdhADyk6MzlUweG+kZTkweBy7kQ+xnbEhzCOJQ1gTqDVFyJc+vS+eXJ1YLzmM8IGsAi6CODN88NEJ+QOfp+CMSAs6Ecjjdqjg97ODpDVY76LFIg8Ldt1MJOKdEaDhdFoKwOM3cgVDRgqoVOKtsxGUpsHQuIRwZvSREPqR5J1s1RJ5OGTRG/hRIO7UnSU+lMoOttIUAdFpG3U17yHqK2ftkc6KpQyE1owLIUW3AhKGIFTeup8udJb3mEi0P6Tk4c5/mmDpMzHuvtf14NE7+FJy0skugBuXxLbIBNUCDah0aDzuwbs8/NHBMObdbNdIzHuyWkyXaZuCX2UshRGqmLLWAsOvvX96J5KzSat5D274baklvCAEiJZCHcCE+wlQ7yMElfT/er36oD0EgJjEEX9mamAxtBWyiwOzrQ8ZcOi+TRoJAXg5zmN7t3Ba0lvxTHYfPGfPEQb3Q6IYaYcwKbOQQFbDrBGncVICmuBkavknTJg+tMXtuJGDyUNka3yUk+DjCnYE/Njgoa0NpdcyfthIfRPLXAEt+ObvsyoZeVyl423r2TxFE8tcAYvxkn4Z0dgGCxN5B5H4YRPLXABvpISwZmPyAEOpUPs/bJkTy1wA2uIhW1RFKIOSLSRVRHZH8NYAQrb2ArgawmHBVU0R1RPIHBsreFqWVhs7a5q8KTJ6QO8fTGZH8NYCcHjal6tpBOT3UeRFRCZH8gUGE5zSVGmrQ+oDVhNNhEdURyR8Y6QZX6DDneOBQt/kw+1RBJH9gwHl7C0tN5MSUIs0BvyKiGiL5A4PyHWXPsbqCTbSzJYtgRXyMSP7AwNlFM9cJWxIlav7KiOQPDOr02Dr8NQLThyJWEdUQyR8QkLLOSM8YsPkj+Ssjkj8g0jBk3YEYvod7vuraR5guiOQPCMKcFzm/WjMpbcRHM8eZ3ojyiOQPCNKN67Z4UhDxIXM0ojwi+QMCMoY+vdUNpDbHnd5qiOQPCOrq9GrnlUoOXLUaUR6R/AFB+LEXlZSx+amFg5kVUR6R/AGBGVJHGnMWID+mT4z4lEckf0BwO0mvQOIcxJ9KF9W1DZH8gcDlEb3S+inwL+JmV3lE8geCjbyIjL20Qi5L68ccn/KI5A8EUoyvyBTpGSRl8UhjNUTyBwJ30NqEth6pfuvoavZ66WfcaIjkDwRSmXtp8gCudcL0iSiHSP5AwOEte9NkWXDRM/kUFIaN8EckfwBcEQmt1u+x6sf0oV7/UHR6SyGSPwDsgXURsecbTtL6xPljdmc5RPIHgL11sQnTQ8KGzR8T3Mohkj8ASDBrgvx2l1d+xkdR85dCJH8AYPZg8TSRZ9Mv8g9Hh7cUIvkDYEhOJ1eONoGrIj4HW6joEOGHSP6KgHTW2e38u9dgtcHkiptd/ojkrwi0PrZ3neUJ80AyHcSP5PdHJH9FkFU5PGqjjo2A2184NB/Dnf6I5K8IwozDImCTZg/+LjvMEX6I5K8IjhLaO7IaYj/k51p/6vhE+CGSvyKwtftnJSRsCqNqA453LFvuh0j+CiDK03iIXc4GzjZpDrY0eoQzIvkrgJ1VSohca1ICJIA24iPiR7vfD5H8FQDh2qBtMbnwPSL5/RDJXwGEFy8SYmwqztkBZs9VtSGS3w+R/BVAjB8ns46b1r2gNvQPJOcKItwRyV8BmDz9g81GeixwekV8Qq444RFuiOQvCUhmtX5LyEaCGw54PNPrjkj+kiCNmISyq20gmwSQev1chkeqRYQbIvlLwiaTDSdhxjZgLOITye+MSP6SQMu2iWjsNRB6jZrfHZH8JfGRtCz2dVOpzBOB5p87P0Z8fBDJXxLY/H0D7XF4Mb+uXJZAShhb0qTWI5K/BCC8zeHH3m8R06zpI1+kkUoSUxCR/CVAQVoINsqOaoscXntbi7T/SDR9nBDJXwJsbpHa0DbND6jaHGP9bphxXei8jnDEiSFjntwvm18O5lW0f0swo8+YixeM+cZWY9aobRH5iOQvAbT+4fPJAZLG83rGgZWIxWjrEmNukjMekY9I/ohpi2jzR0xbRPJHTFtE8kdMW0TyR0xTGPP/1POsJJToxt8AAAAASUVORK5CYII=;" vertex="1" parent="1">
          <mxGeometry x="575.9" y="340.01" width="61.79" height="56.29" as="geometry" />
        </mxCell>
        <mxCell id="YyGTKT00KESnd8j7vxBD-2" value="" style="shape=image;verticalLabelPosition=bottom;labelBackgroundColor=default;verticalAlign=top;aspect=fixed;imageAspect=0;image=data:image/png,iVBORw0KGgoAAAANSUhEUgAAAL8AAACuCAYAAABnYNw4AAAAAXNSR0IArs4c6QAAAARnQU1BAACxjwv8YQUAAAAJcEhZcwAAEnQAABJ0Ad5mH3gAACeWSURBVHhe7Z3Zjx3HdcaLnOEMF3HfF3GXKGoXbUmUZNnyJq8xkjgBAj8kD8ljgvwNQRAgQB5ixA8B/BIYgYEgQQJ4iRMLkWyJoizJ1mbKkiiKm7iKIsVFGpLDGZL5ftW3R6OZvt1V3dW3ezj1QVf3cubOvbV859Q5p06dmnFdMBER0xAzO88REdMOkfwR0xaR/BHTFpH8EdMWrSb/lavGnL1szPBo5wcREQHRymjPhWFj3hsy5tRHxpy+aMy2pXosV2M7v49oP65IYfX3Sbu2eNJaRf4zIvqxCyK+nk+I+Cj8GRq8VbONeXSDMTcNJO+LaDc+uGTMa6eMGZRdsWKeMTcv1GsJQtvQCvJj2uw7k2j5kyL9VbUI0tOymRq0AT2+sN6YtQs6fxDRWly9ZsxvRfxXT2v+9HqOBGDpHGNWSgi2LjFmXosUWKPkHxox5ncaqPdEeDQ9KySNgfiAlvG6f5YxO1YYc5cebV5GI4y5qDn9+X5pfym0a0ymBKB/UJpfr+fred18Y7bLhJ3dn7y/STRG/rel6fd9INJ/mBA+RVZr+qUtVsv0+exGaQ4JQkR7gSL76T7Leav5U0eNyMoMreBz9RgU8fHj7pAQNImek/+CNMILx5NBGr46bpByMEMjN6ABe3yThOCmzg8jWgfM1VdPyt7Xg9efYFZnWecJU3a+5pM5/dQa+QQNmbM9C3UyDvvPGvN/B4x595wxl0V87MMi4lvoj0fk/SIwdimNaCVGNKfvaEW3Cm3iPHX+zdNVve/csDGnhox5/ogxz+lxuYFwdk/IT8fo5C8PJbag+m6uuZC+AwYSbXHkvDGXGhikCDecvWTMh1f8FNR5CQHm74/3JiZwL5Vb7eRnMJ4R6V+XY8tSaDtXooOjIv0ZOVMfabB6OD4RjmBeD1+QfyZG+cQk+Ds2M+HJ04eTAMioh2KsglrJT7wXM+eIBmUslOMJoj19sg3ts/59Rp/ZWy8lwgUQdr9MnhE9+84P70cxIgAvyh/cfVRKTq/rRm3kPyrCP7E/WQozbcACQPZZnZjwPLF+w0Jjdq425rZlarSPaonoCdiRR4OXVkz6OysEIssRmcZYCyjPOlFLtOcdObbPvZvk5FwvofHR9PzN4tnGLJ9rzK1LjFkZozytBQz6hcj6rnyyMpo/C32zNPeDxjy4LtkgqwPByb/3tDG/0rI1ok+1n+zx6Ti1aPz5emZL/BaRfllNHY8IB+b5X/fohVbqEflkVwMEJeABWCHl98BaY1bPT/4dEkHJT5hr9xENgF5fI6TjAWvXqyXbRPjNi9TZmMowpfCGlN7Zi9L+MnevyJgekc1OGNuSqyTDEADYuUwCsFMrwJrAAhCM/Di1u2TqEIokjusKOjgo82aBBuzulbLtRfy+jtRHTC3AJNJU3pcQ7P9AwiABYBVISVwKcEFChAXw0M1hNzmDkJ9ktN/IS7epCjTW8RNnivB8+90rZNfLkcXGj7gxgLN6UnzYc8qYIc3xaJXojTgFrcgQfUQCwEoQApXJT0bmKyeMOSxnh3CX66dh5sxSjx5VZ7DviQ9H3Hgg2ve2VoE3JATXNMdV/AGifDi/j22SXxggO7QS+S/LuH9JxN8rW39SLkcOSFSbp4F4ZH2S5RdxYwOlyMEkAiFn5RD77O6PB+YTD3KBvrS5unlcifyvvWfMq+/LwZEQOOXoCLMGkxDWTnnwoZaviOrYo7l8U07r5sXGbJMJGkKzTgRpLr+WefyOVgLygMoA8pPZy37PjtWdH5ZEafJj5+86khw5RJJdPmVANj2pyQ/Lcye3uy7QFAb60Nkky/A+DRITWlFR3LBgvP57nzGnSR2RIsO82CAhuHN5chAFwoUC6QyQf9dh68d6O8JW++uZdt2zKhHWsihFfrahXzgmO/9cpwNFWl+tnSUbf7U0/Wc4jlhTTj67gxyQeUOrEecFSJlm72ClvvcrW9SG6Fdk4uSQyHjImHOd8CTzNVOsIOV485LkENECKauAMmCVJ6kvl9gVLuLPRHQEgMjPw/IZl0gQysCbDrTzgCT3iAbMKSVZrewTAZdJ4+9UQ+si/ofSWi9Ly/9orzG/1RJOyjRijYNFFGqYzYeITJAtS3blGDRuTCur514pkp9oTN+WSRSyisYqEfcbt0qoZF7BDy+ofWjsU2rz79Q+/M0y8Cb/BxcT25Dl0WU5JJy5QBrkQdn4i2owddDunP99QlrkVUifkjwdkI6WIOWinIF3Y2NUY8LZ6T6RMEuRWSHQmJJzTwoDOfihhpHQ9te0Ii8qIQDMKRyk4MEhLJASjfIiP3kb2NCc08RfKSITxB9QKzmtQ4w2NJg0JmW32kRcmcmb1CT9gL0Hwm0ZczvtAXnOaeyupkpjAphjxg0hOaIVlLRjfKkyZMvCAgnAFzcnipFgiCvSduFzviXtz8rvCy/yH9dAHXC081kVcITZta3ilGSBgT+odjx1MHGerlxOBqMbaOs5vee8HhGfBCbhRQe7Ox3f8xIUQpbE7ctGbCZikQSA0jSEvwc97fc+/Q0ZpSTV+Z4DcCY/9h4xfTajijQ+IGJAqQo88pAgbfZltYMl+IK0lUNTLOgoSXcRH4OcefJxCAq4jKNdWTWvF8UFQpY8rngSrhtsApsshHkykW1WrwPgoW232vSOFPP7EgIfOJOfo2ZnMXcYAIeRwrHFzle7guGSvp80Cmx7xtwmzzmyn/ezWpR1jm5EEOU5hcnj4chawumBGURU7QUyeAOtAOvJ5F0g8us1JrMLsC6wBIhAkmWAae4Kp6+gc2xoXdMguRCfagv3r5MUB9woSTdI3pRzC3yzRhESIj6E2CISJUbuzUyZHC5zOh5WAPQM6YgCMS8hgLXAfsx6CQCrkStoD6nUB6T9T3tofyfyE02xB1McB2mjJHiTHqGAqcMA71fnaEPZ7XGrrWSrRiREI0V4DnOq12har82sDhcQAFLZXzmZ/LsqKGbFzi0RQlcH2HJCbScqRYUQ15WokPz0kcy8Tl9zweD168HhA6+BzAHfSx2YA9JSpEqXIT4rEZM7S9pkoTRdRDI/pI8/vtGYL+qxrONo+s4b8zOsOcGfwjQOARxgVoCZ+lxX8wd/BGsA7U9ZFBcUfjS7uAgSy2QRGLhPifhsXIQC0ZzXNbCjkmpvU6eD+fI/SIX9o9uNuTewAz6VQWIYocZNEoKvbDXm8xuMmaux8tVbaF5s7t9KSfk6nd1w+3JjVpJa4Uh+YNPpxVM2YV34WvjRb8qpGVLHioCNRsLRlsX+2qMbsM9fkrlDP3wOyAA0EmXx2P7+/duSRCiqPFP0NuKTYL7maKy2LJWC2J6crSCE6CMFCAAZm88f8w85ZgHBvGdlUt7Q1f5H+2Oec6rMxfHNJT+5+ki0CxhA29hA6QsInD0IIdL7RCNox4BIvkFO0x9sM+bOFYkd6TGP0xaMEQrjs+sTpUF9fR9FhklK6JT0khBYJZ9kzU0JqX0mkBwuIntFPmou+dk2Jo5b+CH6FDiPA4UjVRV8HY7LCWkSH+KjIdiHuFua68taxlnSI/wB4bdrDL8kM4iV0ifyMqzJO6C5o7RkVdCOT69JwuauQgh3cHg5Y1K0C92V/PwhCU/kzhSBwyk4KKEuj+CSCvLL2bl1BRM0W735jDQW0YJ4Drg61ssX4NAIl0xQJt4J4g0Opz3g5GB6FIFwOTWbLKtdoPdh8rACfSJZLwNdyc/xM0KDRdEV643rPZgZIY4i8p34GZf1mUWSm4I2sDP40DpjbpHd2mawyZYe8KY0H/snHAMlZ4qSjjj4JI/5bNbUibVazR+VGTR3UApFY+wCOEMfKFwWAqTIcLOLjwmGBcJY5qFrPj8TwaQUFYYlFsu1QdiJITa1GLQfvaUXanyRuQWsyaX3ciSSdIq2gqjZIa2kmJKMLaFBIiOjaj8rJ4llfSINhzRYRaldv1Gal0fo3ChfoIQQ1FeklIblixXNCyRFUG5R2zmxR4i5Kqj+xxg6UMKCNnAa7U/u7PwgA13Jz0EDCo8ixXmdhfwPrjLmdk1YVTDITx5MCOJCfMJgOEPkhNxb8UhbXeBQzW+OGfPMu8a8JC3PpBCy5Xmsj+mzfmZ/rj7NQMvq+R457J+T7U2OFBqwKbDDTioDOTTdMkBT0Af6tEiCjOPM6lEVp7RaohRdeGGhNrBaEOlb2GWzLNNQIVxEZ/mevC/Dzp6h94WK6xNdQrpdQeO3cNKoQVJ0A6m2P9xjzN8/a8w//loCoFXUbsSwkmpMbQTDDjDv7iD9OS8Zf/0bc+h7rxjzD7uN+cGriT/UBIiYMc4LNOdFO6+WMyIfNjfh6k6XKoHENzS5FSwXqA2cRsszvTLJTw19YCcq58tY2jiRs9gzDbUbWFoZOFfpTpPnbEy6ReB00d88bcz3X5LjLvMmk+gu6Lz/mjTtW/qc771ozN8+k2jgJsBxQUyyPrWriIQ0HauB/CFu46kKPu9W+XM++w/sPHNeoRsyacPhBjSX/ZKcCSMCQCHZELF9VpuDZ/XCVbKFHYTBAq06oYC5+Hci6C6ZOmShjhG/CvT3dvdSj93HjfmnFzp+UQOAgIs15rOKwsj0We09o3lNlWkV0H18OhtBchxPxiyv0nM2+UV8DhbnERHJJxQ5hxhs52dVcEwawrXoFbY+ewrU9GwT/mefMf8sE2cfJ51Ix6AvjhNViM5nYQ5xKu0Hrxnz779LftVLYP6QE8QlyUWpB/DiirhE2DHEri9cs+kXjoSzXNIDZZ6FzOajsezGRs7EEWVB6Ya6HRHH0DXXnk6Ro9Mmc4dSHN9/WT7LebUvwETngf4f1ff8m3yKn77d+WEPQfXshZp3l3O3mD6kGXP0tSrgvN1IdfheC40TU/EBVkwGJtEH8wONxTVAeRI2UxoAW3+JzJ6q4PtwjFwkGqFboiV3RcCCpVVxTET87vMipFavXoFJpTjwf0j74xT3Emhg5p3d97w5Q0ghKjfqX3RMk8kD+0hUa7O+qANoG4EbVp4sTCK/rbKsRudpfUDHiOszEFVBbJ+G2GWqAAgKGX/E9tsA2vNd2eAQsW6NPxEM11sSvH95JVmtewnObMyVAiwyfWxYV8rKmtEBQJU/9kVcAJ8wt7rZ/ZOajqRcQbIKiEikZ7akmvz9qiAPxPUsKN/Ldrer3Vc3/vPNZCu/YLhqwzVpVDT/f6kdvWwD9ye4pD9b7SvlxnnhEEdIyTVyLZsDsBQoZJaFTPLbrfWCD78uSQ5lc3OW1EXrQ/xFerTF1ici9jPZ3Cfl+Lu0vw7wtUOaMy4FIRerVxjQHLju3JJqAAFD5PrwWSQsuub5875uJ7smfQS5NemRxW7zidRxuCRUbrwtKeIgyXQEm68tZQd/IuIfYxOnxyZHFuwthhKAXsogJ65s7leRolSjuEI2xEF3yE9421XzY4qiLMeKmY3DJBpxaIQzs/bDu7Jf/+lDQ5CQgWGlKeoMv8fRWS5HN0TadFXgG712wphzem4DGB9ysUKdpHIB5MfszZsOKES8nfEKoPjt3FPk2FXz2xVZjyyzetJHQEQkNI+M/IowVwjzg5RpPq+bnKWgE7auP3ZmTtt6BXuumHh+gChGZWhs0HC/UZsIGfcKpBtYRZQ3H2obXEnTZaqCr+LUmQ8H4H3WqjNZ8+udNDK3oforiB8iW2/svIDDyJBQ1ZYbXKhZc1hatg2CmOIjjSW5LBlKrhbMliJymQ9MI6yJEDY/402gxSeyRkQuK0V8UtPHiJ9DRuabPwwR6XHd+bPLnN7bBrIxkOTk0ya7rLYBGhdWIVajMnUrS0F9t5rfYQysUg0wVsw/itfF17DQe4gyIQATMYn8LuSiE3xYiNCVqzagWXTapb91g4M+ZFe6brb0BJoLhJFzAlTS7gWYfksqh0mxbwnAFwAP4KALF3hPN8GbTH49rC1f8MkQP2sp8QXC5tIJ2p4lvU0ApxLzog2r0ESw2eZadKAq4ICLAmScMI9cndQipMR3oYN9j/6X9d5JzeHsaxH3+XKkaTTDifAF3+dEIn0n5G+DAECuovOhTYB5YTOJUHUvYDeuUIAFc8L84h+GOlfNV1pBcuGC3kMViqzvnkR+e1qfN+Y1VB8ICXFiqgK/IWtJmgje0ycHy+W9dQMn3TrqLWjLRFzX/LFX0wtQ9t1FGTFnxOZDkJ/PwuJg59YV8NmJ/Eio9eBzOsWvCDuGGOQ5+hwraI4DQ8isaTABbRDCpsHmJDUy88YCrc+GKCFqa05XBF91CbPOkS8A4mdFpSb9CM1P4aLcydXv0MIhcrTtRpkLkdQBNuDOq+NNmz602bbbYwJ6BfL9Q5kXeYAfmD0uac1oaZIgQ4SpifLwvV7KR+NBWHYiJjWHQ78u8Xuy9UbYuAhARHsSrOhz9HsGmmNxrhGiunDTYLLL2DagZSFZL9I/zlxKzF4bcswB04qVwHiFID9zj8/lGudnTGgDN0tOxKTmkKJM0lKRZ86Xs2XNLR1VsWyemxJlk4skuBBRpiqgovG6BXoRQPBDY5XGEuGsGxzaYe6LlB/2NqsRu7IhwKpPnpCr0rV7MeJL1p7UZPKrkUgoGZR5oBHYfPasb0Ws1IS5JMlZJ1ud8F72AoODHEv1CBW6CwJIpkmmyOzimsmPuWvLEWrOCjWw2sXho1A1XOGAyx1iKXhflskDJk0fy0TWEjERpDSTShtiN5GbGjMEMxMjIr69CtX1D2oACmKpJtTen9MizNAkc8g7VDWNbmAvgUPpRSXj4RLTRJGDUKsRnLOC7qj8MMu6ldbJ1F22yI9MDBrfDXwogx3ibCa3e+Nn5H1fCjpNlYden1yaCMoiLg+0lAeBxmVQs8mVPiGiKt1AhI+rSK/oufC+BOZTD4QRU7oq0Pr2Wik9u8AqcvGKVToLmU3icuC0ylUeIVlScD5CxPspy2f3F4qgjo/oQT3PJsHdwhzknhloOa8EjRsm2F0SyLpLG3Je+QSHjwrMDssbtK4UBPV+QoCvPEpRMxeeCChKzK1u359Nfr2ZcCfIW17Q/ie1BIa435blGsl2AW2C/L3axs8CCgL7ek5LTB/Idv/ajiNeEziNxZ1m+F0ul4VQ24eiZt00ry+I9LyPuVUgeCkYE9IvvDS/3Y3TbwqdXg3AJb0vxFY/Ageh8laaMahDVHFuqnJZim9tE9nwV5o0fzrjRVHYB9fVa/JQ9fh9CQB+Vy46beL2/ZUif6hDTyQT5injLBC655GFzGZhflAteLaei8hIiZM05lsFNIRit4WpFR2w7BJuo9R3U0DLcnP4Yi2tTkJbB0QGwnifWW/MthrLs3NTOzeukM/lEmmhZMlSmc4hVyJWe5tI5ygAlLNk5emGrjK5en4S88+TNH7HEoRGqKr9Ic8mmT4+p3SYAy6ldr19rw786T2Jv9IU8DnuXGnMt28Ps4mUBXJ4OB9MoIVUhUKIF4Oaw3XiULAQpx4oO1fTGLApSpGrbug6XPwR5HYxfbABQ+SQszxRk2eGvtdFAKzDrRnZdUhLccWVpyyY3L96IAnnuTpiIXGzzK7v3JmEi+sAdv6z7yYKZsQxwgZncDI3S5mFAucUrCJ2Jb/mYkhtzlt5upIf84MBJXxWBLQ/Z0ddbm3MA99JIVSWK1ci8d1EH3Zpgny0QkhQuvvPd3x8l20vwPBgT39tqzGPbUx+FhqEsZ8+mJg8zk6mHvOkxAhghNrVBRwb9dFvFDXDeslbDXOpzXLu0gHSDk6L+Jxwqso/vo+LGFy1P1/I27jAzi7NjpMUGt/ebswfy/TAV3IV3LJgXKhc9vhmY/5CQucUIvYAGpZI2s/fMeaIiO8zp4RcGQOUWChQl/Qjx1UHMD5YEUVh31zys2SgTTkMkAe+DFvwTWn/quYHn0VFNq6gdC1ImvoleyUA3IASYuOtDND+37lLGlnEnKG2B+akBeRarRX5G7ca89c7Oz8MCAIX714w5kd7pdBk6/v0gbmD+JSODwWmlnvLLK8cpZA2U5t/PRfZ5SCX/GCblq+iSsyQj8dRmR/kfKRkLIu5A8k1QzjcPgLAmdoj8j2ekg/ATmDVdpTBn90rUj6kVVOKwy65zEQAKbAfo8/botWY7/hL+RkhgZKjpuWLR4158nCyg+4S1RkPqipsl89mV79AsKkUapcrEED4itbvFuJM0fVOrhQkkf1sX7KRVcQlvni5tNJXt2ggKtp7mC/c1PLyyeS1D5G5NqdfmuI+CRDST/pEr4H2pIDsyyeMOU582kNzjQdjShrJKvUBc5CVhTtyQwHSEz8/IWVBKJN7dH3uPragjXq6TaYOod9QoGbs/+5Pqjy7CiImIKkUXxIH8yI9oJD8AG+fcKZLLH9gtjGfkvTftaLzgwrAfLGXoMmcsY30IA8rxiytIEslhKQhrJUmbuIWlycPJL4IxWS5FRySQGj6Yp8nYPxskLxHrg4RMC52+6ZMnZCgOjaXDr4jc/WSyEXkztWxHYPaSD8wxbizt6rSGw9urUT5peUzCyHSE2Kllue3NFZFG35O5CeG/2PZgJc1OC4SSPjv9/TlC9WIqiDE9pQIRFnA0RLRJK5OYlKJOa8Rke4OIJS+YICfOpjc3IIWOyUtyz1VnAO2q5p+jxwwWSzVrFSsoOx4E835qh6hd27ZLNotpXZUbbgoAbCkdyHYeEB8PeGfsckWYr5TsLfAFU8XmHdHHw6zkES2h9cas1WrEG3LgxP5AaHEfdIQDFrRX9CImzUgX72l84OK4MqiZ2SHXtb3Fm6tZwDNROyZdj+6LmwkwhWYFjjjJ/V8RuQnLMxKasdTv2ei7JKtyeM01mI5zQskuF/TGNo9hMDA3HnpuDF7tKITrXNjwcewq5YeHJ55WGMaKn8HkMPznFbLfVopySFyaRvtQT8sVnse3+S2yjvrE+xNlrS003mgsdxSgg0ZAtzjymXG5Iq4XkwwHrQH7cHVlKHDgq44I01GKBh7lPgzKdHszDKu9+nBM/sFpChgq85mZtTXuqqvMQ7sE+AOoax8YIkmIUXj7wxMfIB5iDnGvPkIZZ86c5scXderspy7TVHS23C01BgrAHmg0XrPHpE/7ypIH7Dn8BC3eet10a5zN7Dx0VQqgr2WR+1Gq/HA3CF8x4MVIH3NEU1+z5yjneusVsEJuuVzNJ4isiuY+gGRbI0I/4j8kNCrElE6ggQMl0vmKEB4yW9apnbh2xXyswNn8vN5mAvsYkKiIm2Bb8BVNC8eC6O96NAmSfXnNyZa0fbPsZOAv+cWwbryX4oAwS3JPDTZqMYN86iujTvS1klDKLp/DfB7u2rqsQkbf0NSojwk4AnVrym462rnA4b0uvpCGBhn1xVeVMCOYqkm9Obi+LJkfaDJI1pks/EqgrHHcf26HMBVevY5HQTvmrD1AeSF/JDMVWAZOxQMhHCJspUFJthCzWueMoP4NJvVn6gTD16HBCsel3efVH9tqNWRL1br63m9BBJuOA6vhRf5wc0LjdmsL7LHDgv+mgkk0sJGxfNyYEKB3H+iINjNaC8XrYUTSZWIJkCUzB679NTgtPtcxzGuC9ytRZSmm+nD0DLN5Hl9YXOSdh569cTMI135bfGEe3td7Xy7Gum9tAet71tOxrsbNvNyhUwPBovJLCAeHaFoERcn7zmV2LEhQIcfkrOF3cmKxIGJvAnk1JV3ZwOBK3GockHKg4/ZQ/iRkGid5GdM2JHlaqUxJaJnXhNexYzYyR5DJ+o09p5AgB9w40XZ+ZfZSPXkx3W1cYvM4aINrSyU4gOlKO6W+TNPK4ALmETmj9z7N06HMYEANijZg3+4vbMKqDfwa2IdR1YoHN3QE+cKNutIDWYV9AGmJbU3bV5LjWBs0JoEEnig4DCF2Khks+iO5ZPHNARQhGQDPyurwHefgblkOsmjQrGlx259UKpLfPEWkW6jNAZetgupmHjmEPOHKFBIbcZkscny5S1yxiQE2KO0iYkkNEpEw6ZJNwQ0vzVjmWAPoAUR3LHba2oCGaKEKzm5R82fe0T6b95mzANrk/yqOoBAk77y7LHOuHgqRISxX/O7SYJbNuLkvMmVBXbhfnXU2Fr1NN7lg5hMGn67SHrvqrA53ynIU0GjsLFEqY0d+h4SnZqK8dscJcqtqF0+sEpF7X9A5h1auM72UwXtgvyL1VrNXZRZFZAv9roUIBdoY+N7Q+0bkFBulqnDPoNLnaksVCI/gPi/PKxO6FOct6FpvEynmyWxd2lJZSu/DiCcRBEw0+o82J0HTDzi1nvk0Nn7DDxGm3FCUdwqweVwuktVu7aDrF/ynI4MyRoouYfBVBLPh/hVCnRVpgQ5/2hw63A6SiDiNnxJgqPHLglOXTcIEodmSWyK+ADzztr76rOvQrVmjwiPENcV6+8VMN24qf4Xmu8jEoCyxEchUP0Nn7MK8UEQWpDKul0+AIrJNf8eXJZZcrazD/C8zCefvO2pgmER/7z6hQYvs8biK51lBWPVmKI4/mGS2Yqio86mr+OfwjrdGkOIj+aviiDkJ+xIgxACuF8U/x8PtrBRam+eM+bpQ7IFZR5UM8TaBWL82NJl+0QU5JoGNVSIuJfAtn9BDu1zehzCL5TW9tm5/QRYNjUG5EDZNJsACEJ+gD2K+XOrVgCsHx+niQkekePDbvCvNVBP7E+u1LwRgM/BCm9DeSXB31IOfqqA0C4r+RMHknSFD/VvSF92DOASyuMOOf0kAYZy/Cs7vBOBbffycXnysu9sHX3PT2dpY+UgfLlEth0d5kzvVAVFtXa/l5h4ZZBO/Gc3JOkZTUWsXIDZSmTrPT2fU3+pKVQmXfoTUH+xJrZJ2xN6Den0Byc/gPSvSAAwYco6atZ3UMvoLBsupPqykdWk8+oLTBXI8KK0H3ZulZG+R2blp9e0s//06yf7kiQ8QqaQHoe2KrMQfK5Y4hz5p9clCjEkahlKIj+c4N+xWl/AN5TQVpCFZZKV5H1pkudlDv3wdWNOTyGnmJwVlvwqJg8gikY9/F7dslgGlvjqK3NdWdsLEB/aYN/XQXxQmx6xTrBMlsfWJ8Lg4wOMB7t/kIdxZUBrGIPawApIpIejlFXIwBhwEAZhais2L9L/1MeqpLfQZ7B7y+EeVrs6iA9qIz9A63OWkgxMew5AnfAJhY4Htu5G2f6haj/2AqxaxOjLhvZSQCicyFA5UaGBYiM/qOotkHwOSpNrhHaI+NyBUOfGXq3kT0GlXM7zkn1HX3xCoSBdNYjtlklgagrs6NqqCBU1NuSfqX736mb1Mlg6L8mutWZuCaDcyBPjcA15Wvg4WZfIhURPyA/I4aGmy/2SZnt0Tt9sd4RdOqj3UP+RagZTCZg9/YMib0XyI/wc8GC/oK3xfrQ+ys1LsXXmPiU+NZaIatV9u0yKnpEf0Nc75Qd8Th0kcsNJLISAAevmE/BztAkD00TdnbJAW9srm2T2OAl4DuA743Cuxc4+XeSYqE3ddegv/eFtEJ+M0juk6R+Wxg91hZELekr+FORkPKqOciB9g0yZtBHdhADyk6MzlUweG+kZTkweBy7kQ+xnbEhzCOJQ1gTqDVFyJc+vS+eXJ1YLzmM8IGsAi6CODN88NEJ+QOfp+CMSAs6Ecjjdqjg97ODpDVY76LFIg8Ldt1MJOKdEaDhdFoKwOM3cgVDRgqoVOKtsxGUpsHQuIRwZvSREPqR5J1s1RJ5OGTRG/hRIO7UnSU+lMoOttIUAdFpG3U17yHqK2ftkc6KpQyE1owLIUW3AhKGIFTeup8udJb3mEi0P6Tk4c5/mmDpMzHuvtf14NE7+FJy0skugBuXxLbIBNUCDah0aDzuwbs8/NHBMObdbNdIzHuyWkyXaZuCX2UshRGqmLLWAsOvvX96J5KzSat5D274baklvCAEiJZCHcCE+wlQ7yMElfT/er36oD0EgJjEEX9mamAxtBWyiwOzrQ8ZcOi+TRoJAXg5zmN7t3Ba0lvxTHYfPGfPEQb3Q6IYaYcwKbOQQFbDrBGncVICmuBkavknTJg+tMXtuJGDyUNka3yUk+DjCnYE/Njgoa0NpdcyfthIfRPLXAEt+ObvsyoZeVyl423r2TxFE8tcAYvxkn4Z0dgGCxN5B5H4YRPLXABvpISwZmPyAEOpUPs/bJkTy1wA2uIhW1RFKIOSLSRVRHZH8NYAQrb2ArgawmHBVU0R1RPIHBsreFqWVhs7a5q8KTJ6QO8fTGZH8NYCcHjal6tpBOT3UeRFRCZH8gUGE5zSVGmrQ+oDVhNNhEdURyR8Y6QZX6DDneOBQt/kw+1RBJH9gwHl7C0tN5MSUIs0BvyKiGiL5A4PyHWXPsbqCTbSzJYtgRXyMSP7AwNlFM9cJWxIlav7KiOQPDOr02Dr8NQLThyJWEdUQyR8QkLLOSM8YsPkj+Ssjkj8g0jBk3YEYvod7vuraR5guiOQPCMKcFzm/WjMpbcRHM8eZ3ojyiOQPCNKN67Z4UhDxIXM0ojwi+QMCMoY+vdUNpDbHnd5qiOQPCOrq9GrnlUoOXLUaUR6R/AFB+LEXlZSx+amFg5kVUR6R/AGBGVJHGnMWID+mT4z4lEckf0BwO0mvQOIcxJ9KF9W1DZH8gcDlEb3S+inwL+JmV3lE8geCjbyIjL20Qi5L68ccn/KI5A8EUoyvyBTpGSRl8UhjNUTyBwJ30NqEth6pfuvoavZ66WfcaIjkDwRSmXtp8gCudcL0iSiHSP5AwOEte9NkWXDRM/kUFIaN8EckfwBcEQmt1u+x6sf0oV7/UHR6SyGSPwDsgXURsecbTtL6xPljdmc5RPIHgL11sQnTQ8KGzR8T3Mohkj8ASDBrgvx2l1d+xkdR85dCJH8AYPZg8TSRZ9Mv8g9Hh7cUIvkDYEhOJ1eONoGrIj4HW6joEOGHSP6KgHTW2e38u9dgtcHkiptd/ojkrwi0PrZ3neUJ80AyHcSP5PdHJH9FkFU5PGqjjo2A2184NB/Dnf6I5K8IwozDImCTZg/+LjvMEX6I5K8IjhLaO7IaYj/k51p/6vhE+CGSvyKwtftnJSRsCqNqA453LFvuh0j+CiDK03iIXc4GzjZpDrY0eoQzIvkrgJ1VSohca1ICJIA24iPiR7vfD5H8FQDh2qBtMbnwPSL5/RDJXwGEFy8SYmwqztkBZs9VtSGS3w+R/BVAjB8ns46b1r2gNvQPJOcKItwRyV8BmDz9g81GeixwekV8Qq444RFuiOQvCUhmtX5LyEaCGw54PNPrjkj+kiCNmISyq20gmwSQev1chkeqRYQbIvlLwiaTDSdhxjZgLOITye+MSP6SQMu2iWjsNRB6jZrfHZH8JfGRtCz2dVOpzBOB5p87P0Z8fBDJXxLY/H0D7XF4Mb+uXJZAShhb0qTWI5K/BCC8zeHH3m8R06zpI1+kkUoSUxCR/CVAQVoINsqOaoscXntbi7T/SDR9nBDJXwJsbpHa0DbND6jaHGP9bphxXei8jnDEiSFjntwvm18O5lW0f0swo8+YixeM+cZWY9aobRH5iOQvAbT+4fPJAZLG83rGgZWIxWjrEmNukjMekY9I/ohpi2jzR0xbRPJHTFtE8kdMW0TyR0xTGPP/1POsJJToxt8AAAAASUVORK5CYII=;" vertex="1" parent="1">
          <mxGeometry x="154.24999999999994" y="280.00000000000006" width="58.5" height="53.29" as="geometry" />
        </mxCell>
        <mxCell id="YyGTKT00KESnd8j7vxBD-3" value="" style="shape=image;verticalLabelPosition=bottom;labelBackgroundColor=default;verticalAlign=top;aspect=fixed;imageAspect=0;image=data:image/png,iVBORw0KGgoAAAANSUhEUgAAALUAAACWCAYAAACYa8kxAAAAAXNSR0IArs4c6QAAAARnQU1BAACxjwv8YQUAAAAJcEhZcwAAEnQAABJ0Ad5mH3gAACCtSURBVHhe7Z15sB1HdcaP9LQ8LZZk6WmxZO2yLEuyJFveDQYjbIJZk0pCihRZirhCkj8cqFRIKn+kQiVkgSRAgKRIkRCKLVBmtzEYx9gGL7Jsy4usfbX21VqtJz1J+X49d8RoNHOn5727vHvdX3mse++7t2e6z9enzzl9unvAOcECAtoIAyv/BgS0DQKpm4gzGiNPn628eR2gu8ds11GzQycrH9QJwfxoAk5KuLsl3N3Ho/eLJpoNHxy9bmdsO2z2852q6wCzGWPMJo4wu+ySyh9riEDqBuK102ZbJdhXjpjt1DWg06xHn9053ezyUZUvtSnOimUrd5utUr1PdZsNUiceplFq+mhdIvikkZUv1gCB1A3CuoNmG3Ux/HYMldkhwSJohLu4y2yJtHVHGxuDr8rk+NlmswOnZHad0Qeq+8AO1X+I2Shp7qnq1FeqHUapbfqKQOo6Y69MjOelofbo3x4JsUdCPZuwoweKyKMlyLfPMRspAbcrGKEe2SG7WuROM24AnVmfTZS2vmqc2RW6+oLgKNYRL+01e3SrbMljMj2knU5JoElCA7T1YREdTdauOKW679QIhYbOUqHnKm2y7zWzJ7fL7t4WOZW9RSB1HdAt4f1si9mzu+Tpy8w4IwHFgrsIEvIADb+bX5VJwrDchhisEeoSjUKDq5gWkJ126lY7rTtk9uCm3nf0YH7UGISrHhGh959wfM3UTElA6CFSLXfNNRs/vPJhG+KMyHpAmvg5mWLb5SzyPg+0iemaMMzspssjs6QMAqlriH0i8i80dB6oaOcsIDAafIgcxEsGRQ7i1NF6L232egCx+VdF7mcgt+xs3jsCZrCQthrXGRGb0J8juwcCqWuEfXIEn5QjtFfEdt59BnCIBkowYzQMX3OZ2UyR2VdQ7YitMrmeUpsdxXmG3Gkmqm1oni6NYLdMlebWvz7tFUhdA2By/EIODoQm7nwREI6uYdLMcy41WypCY2f2BggLidE5mg20LE5ZXzomTuRyERufAl8k7UhTNtekERGxx8okKUIgdR9xXCR+XITeJZPjZGWGMAkEQjy2S8PotSIz8djegOn0o7oHtjoDwawxZkObaLIcl3bdcDAyoyZKgxKO7IsJtWa/7G051idUz7Tp5tpQCmGG2u7mKcWzr4HUfQDOzlM7JdyjIrTIloYThlTZFLTMtN5NLDClDpGZYoZEDATDVN5Safy5Y6N7NAPMij68VfVTnc7KRp6t55kmc2qcCN7bKX/q+OQr6jBi5Gl1mjQ6Ve+5chpvlI1drdqB1L0Ejbb+gNljcgzz7EEIPUcalWGzrBajvB3qLBB50yEVJ6I404b76JoirbVsprS1NFijQWd+Rlp1tUjYLULHwKSaqfrOEsEny7EbhG1SEruPRSPfYdU1i9iUecesyLnOQy9uGwAOSZgr91Q4lia0MFjD8VwJ943TyxMaGx0HiombTRIy5gbT6sS63b0kNSYzmjVhg2O3ibi6nikGIwYm0lqZEYQ0GcEOJgjvC3JAbpYmHqnOSgpBEtyDDoUNjimWh0DqXgDNjKY6rgZOOzagU4KZpmH4JmnojpLmwRZp5cc1BK+RFjwm8jCtnp64ceTWvxtFrGrx3nqATkXo8oR6WrIzu9e6GJ1O6m/r9Gy/UD02qj5lcZnab+kkKQaVhT8Sg3twm1elxZ/dHX2WhUDqkqBhsf24LhoeReAOaZgJ0jA3SNswqVIGL0rzL5eGQwszpe6AFHOAtiRi0Ehwv3X71JlTpI7hiKcLLU49sJFRAD0lOx+Ze1d3Ra/TfgP3JhyIqZKFQOqSQDYQz2nIlFBp/OHSLEvGR9PCZcCQukLCx6SowuPzgDiEw7ZIuI3E/uNmezGFPB4SLp6QViWhC3KfypmQygIj3FVqx2myzTs16iXBvelcmGhZCKQuCUJPzIilAaE7IPTE8tO6T8kxIvmJuK9DAWGYxBncKZtTr3EYG4kR6qyduv8gbp7SoFmgKuKfbdDIBgnLaGxClgsm6F/9JmmGAMo9LAWw7Uj0PolA6pJA62QBs2O6yMywmR4uq+EFmRyrNZxD6Cz7PAnITMeZrPvcOc3s1+dHaauNxJhhZu+90uwds6O4MXUtqi8+AE7kehGb+hb02QtAXZl5xVa/4D4qhJFqpUbNNAKpS4AQXpYN65Ld1chzxpaL0RKqWyUNfVq/rTqcS5h0mktF4LvmmL1NhJqiYbkZS8Dg1TDdd8IIs2V6jnfONesS0Xm+ajindoPcrH7BGfYFRL5CtnWX6p7W1uiAYzJvdqVs60DqEngRAuaQmvjs5BKmAOGu1TJljsvOLNJcgyRYkuffJQIRGehN/LcewO7led4zz2yRiAfZqwE/BPMDbU3Gni/IlXFrGfXb9KiAzb5ByiaJQGpPIASmhtONCqEHi5WsMSQE5QNMjZdlcuwXoZ3JUYXVTD8zG3nL5c2ZaPEBeSjXTzG7SZdzkFNtdB6qJ+23X7YwvkmZlfSYIKNU9gUjAu2mNmcBc09C2QRSewJtQPw1zT9n40qLlNHSO+TcbCYkWGUCAfsZp4zkp3l9XN7UKLAMiynsEWjsHGJjZnGtUafeK7Mh3Z556JK5MzYjS4/wHoph+9HKB0IgtQdoeGKurkETUoB4A/Qem9I3uYhcDrfKRa/TkyoxuA9a/5pJ0WLUVgJT5HTEITmkBrH/8DLaOsOcywNT4x2YIAnW0laYcMgnRiC1B07I7MhyEGnQ0dJKOG2+OEByEis/xOo85xA+zJAA54+P3rca5qkjXqlnT09zx6DeZ1XJbercZabSSZi6BIcxwVqn+VUWqQVxcwZSewCbDVKnOYg9jYlwqUeOL8BRwlPvkRDyCA2jCdNho7Yylk6WDSz7N7eefC72ucxDT9u6U+3NlQYmCAszSCsAgdQeINeB2bCLBKSGxH703a8DT53pXZdthzrOAObMwgkVu7SFQYrADeqY1bQ115aC9YppsEiA8GDStqYclE48KRZI7QEay9lxCVIzBA7Ue5Ya+eKEOsYRNb4rJ1FWDARFtGNOiziGRSAMN0akTseXY+DgnVIHJ+MxV6OnQAjR+S8JUiMbdr8iexAEUnsA5y4tGGQwQmbCmM7ofREQ2iFp/B6VlQe+M3usf2iwv4N4ejVHl05MOHCPTDJfZT1a7X1R+6jd0NSEXEEgdQGYLIBsaU2CQMiTxqb2AQr6oJwZfpenlRAwe8u1C1QdF+5MOnZJ0A60S5mJmJEVRzFtfgyQLDDvQCB1AQg55ZGadu30nBDBkTnSnS9gwC18NX+rgI5PCkFevdHQZcwPZjHJZ0+DSZk4WSqQugA9akDXhqmGdKTW5TtlzSwiw2Oe8CiL1ebVSN+KYPTB6U3Gli+AiIiv4UtqkLXwgvJjEyaQugBu+lWNmG5zN/yVEAQgdJUrPJXXl9XY/RWQmsQr114ZoDnOKw5PZJaVKCCQugg5wgB5gspD0fdLFtcSoM4QOxeQsQyj86B7xAojkLoANFBWI5WVBXLFa8+Vrwo7FY+fbQTsX3Z8rWZ2uXapRvwUMuPa+izuPIHUBYgbPN3m5G0gMF8eOttyiMrJaXGEflLee9FCgVqCNX5kCz6/J0oHXXegdyvAq4H6HGUKO4fUgOxDX0677Sgqr5PAEY8nwQKpC3A+3TPV6giJ67VKbLQIODdMrORtHAlwJg9XydyrFYi7/2Cd2d88YvbB75nd/SOzP7jP7EM/NPvk42Yrdv4yktBXsDrlpMqqlrxFWoCvpsbZdho5wWx+yyxjnFQWSF0Aer/T1BmNTsA/zjcoAuWMq+SI5AmQzzf3YkuBsvjKi2Yfeyxa6Muqm7Oqw1kR/ahGioe2m/2d/rZSf6umXX3A7zlBwZEuryx9PmFkhageOKJnjecOzkNty+9Jdqq8DSgCGiBLKGhpNlX3AYIl8ckJuPJZFtgno1ZaMgskVH1rlZ4h1p6Jh+H9GdVnh0yQb74cnXDQF1A0iwGqVZj4cpmFyhw3wpR4cuQkX4ZwaLxeM5DaAy4LTwJPalhsxTN6TyqpLwhtjZYJUm2GjQ0nyVyrF9g/m1TaakRDa7MtcZm6ZYFDmyBhnp9AO5D45MyPymdFYMvkc/pN0pyh3VhKFm9LEUjtAXb4v2gRgBqSqVlsvPNbGxQAbcL5gTiLyQ6Sxgt7I7u3Hlibs3j4Aogw3Xo+7OHeAoeOjpEHV399Z2qcoOQB4vxMhafbDm2PeRdvwBlI7YHxI6RRcBhTjYm2QLOy/4QPmH1kyX+HyFItCkJWIJvb1ANZZlQmqnQ6H3AMxsEiTa82mMtiAk8WovndrGxCS0Nw8qkhdIh+lABRC5cZliIEjUkIjC3IfDFWHQRt7TR9FeKw8xKrzWuNrCnmWoPlatjSeR0oqaXL5LrQJif1u7Q5g6YncSpGILUHkAFLthwfEqRAaAOkwcky8x2qSYCaOVbk0uvcfAgBE4EIBPvltRLYfphj49LO3EVQAyyYmL2SJQvs75EVQ6eDQOrkkrpAak/MvDSyidNyIj5KRIGh0Qf8nq3CWAjgtu7KAR0GQS4XQdhEx9tsaCIYsdivmzBnViYdgIRc89SxWbDsC5xnlEdaS9MurIZJbuwTSO0JdiQaXvGuk2Am64w0hVtM60m8eHOasbGdzpUBBMZqjidEbHY2qmeory/guZiZhNDsG12tA0Jooh1Xdfmn7b4mp3kXe+apnZP2NBiuMuamVgoFUpcAq7uzGoz9O9BS7OfhC/axmD8hEmy1iQcIQiTkmT1mP9kYrRLpL4eI8hys33xoc7T5I6HCaoQmSkFdF8vs8F0GR3Fo6Z2qN6NiEqxGYsaXVeZJBFKXAHtaZKWHMiSelrA2HJItXCIUx957C9RR3JBcIAnugb16/4bIZiVvw3c2s9YgrMZMIRGaB9ZHi4ldWm3l71mAgBx6tFD15XwYX2BHs+cgTL3A9FCboegXqYOkEUhdAkRAFk9SYybstxhswI5GYZq7mnDTQGthX6LB8haoOqhQtCAmzhrZ2N9fZ/bwlgv3u6g3uD92Lfcld4TNLcnAi/5Y+TcD1Itw22w5c0vUfnHorQiMBG7rZJGZSFMStBcTLqzpTCOQuiTYqGVYBvmQqdrZXpQQmPXyBTFaTh2YJ+3F7/kfmjsPaCvIxVcOqCNB6ipfry10I2YZD4pgrr6wpwqZAduy8Xycf+N2bqrWcROgWEKDjH6cqnCBWaMCuTUn4WaFKAOpSwJtzUaIjnjJBlWj0/CcA/P0zspUtCco88apZtdIaxNhKSJKjKH6Xm/PZewNqC7x4MEVE+sCoqXgTCpdcHihFMF1InSZDS7xHV7SiORWxSTMDsqEtDxH3iLlQOqSoFGni0hsrj4oQ+ugVfaK0E/vklb1JCdAY3N46BunRftlYOKQG+E6TwYY0nE0Gy1AOh3RhrxNamC+e2ZdZCXeqs7KSFSG0BwRwuleR9V5LjooVBd56ddPjt5nIZC6F2DYvVa24TD9m5WcdFpCIbZMjLksmG3kyDXMEYqmX6SdSN536A94/b72aa3A/dCSA6Q9L3Ju4w6oZ5sv4t82PdoJNf7YB4QwH5XNzglcyTMagdP86kw4hxxCmocGN0l7ACGhhdCsTrAZUkNLrxaxyYorCwSGJnrbnOi4Zkjiht3EvRh6R+ZpyzqDqe2pEJtn0eWeTSPHkKHRxpZvnytzQyZamd2rABr6oY3RQUnden0BdA9Gh+m6L1Gjagik7iUQJJ43DtCwnHxgwlzkbzwoQbFUqww4PZapX4ZvjsSA3HAIxwvyzJWd2ttD+/sKpqXpVIP1HC5qo4tTtO7Qs75B5tPleu2beReDWdkHNkTOL6mvSdDWXBN0PxRJUdmB1H0AdjAhqolq5EwbUxpW/9mWw1F8uUxUJAZhK6bVOTn31+aZLdXQu0AdKV5F0ww4go1QxxJ5r1P9f1XP9eYZ0XP25hwazo98eJOc7CwbWvcCY2RHEz3hqIwiBFL3ESSmoz0maEjOMkWIEEDsAxpOH5TgWOTK+7IgFMZiBeLk2PNlHK96gFRPdjVdpGch96I3e5aQsot2fnpHhdCpWDSEpv04FuNmjQCT1Il8EEhdA2A7okXGx9ozRWynsWWKkKCEAL+/NpqRK7OFbQyKZrhP36IZIEbMs5QBHZppf3JZfrDe7JUjZijni8KDlKvPWHdI9GRKiSVfgdQ1AmE4NNcEERx5xMPmBYDc+gcz5H4J9KfS3Cx3QsjVYr7tABxnNDPnUH5ndRTLJz3V1Tuj7jTfaCkJJlg4+SyzPXMQSF1DEOq6lWESrSIhXBTyEhAiAiazDS31PZH7h7rIcWhXYjO1v/Gg2bfWmK0QqRmxqGtWfePYPG2IkwyhyyKQusZgPSNOE6EnzMw8DROTm8yz4/qX06U4u6Qdcbw7OoOStiCHI6/zuvi7LmZJ3yBClzlLJ4lA6joA53HZrMiBxFsnBJc1SQMQNOTnHMZ2FQYzgEzCOC1c+SyNIXK0x+ribPe3zPQ/RycLgdR1AhqHcN8taBwJiIYeJOGmNTfaabw+b/UzXqqBtmAEI66eNMloC9qENaDT9HfaimP2+rr7a+IWAfUAsds3yRzB1r5M5GbkZao3nh0kcX7W2OaH6OoNohhdIq9LQ1Vdh7JCX20wQ7YzziBtxHkutUAgdQOA5rlSwy+Oz23MuEmg7Co0VCQnf4Q4b96w3C5gUsblqkBoVXa2NDNERjuz+KKWq9wDqRsIJizIx2Yq+Y7ZsjOlmWbLu+/NLFyrAc5C3tunqO7yNzjumeQt33WKZRBI3QRgP6O1rptstoh1in20IVsFEJh6s3ee20elTgikbiIwS7Cl88J+Ab1DIHVA2yGQOqDtEEgd0HYIpA5oOwRSB7QdAqkD2g6B1AFth0DqgLZDIHVA2yGQOqDtEEgd0HYIpA5oOwRSB7QdAqkD2g6B1AFth0DqgLZDIHVA2yGQOqDtEEgd0HYIpA5oOwRSB7QdAqkD2g6B1AFth0DqgJYF+xJyLvq2wxdeA84J0VcCXg/4+GNm310T7Y1dDR2dZl+6y+yqrsoH/RCcRHDDf0ZH1SXRr0h98ozZET3g1iNmXWx/G3Yuqik4TeyLz5ndt06krnLeDIQYMsjsP94ZbYvWX3FCpJ78z2aHU0dmN43Up0RgDm9/dJvZE6+YrdmvntcT7X7Zo7/FxyQE1BYcnlR0gBJanD2lkUW8s//1U6JNHSE5+0z3B4WDpl725Yt50nBSH1Ov4ty8b6wye2ZntJccn/XmpKqAxiHebpj9/35rodlbZ0cbqffH0bRhpOb0162HzL6g4e//tpiNEJmPq6dlncwU0E8hAg/Sxe6lbJh+z83RtsSjh1b+3k/QEFIf7pYdt9bs8ysiu47TmRwCoVsTIvZgXWjpG0XqDy01m1twXngjUXdS75Xd/JXnzb72ot6oERwCmdsDkmeHtPQVl0hr3xDtt90f/KC6knrPMXnQz5j9dKOMejl/gcztiQGDzWaNNPuwzBHOb2k2ZAzUB4dei8JHP94QCN3uONdjtumo2aefjIIAzUZdSE1I6KsyN3682ewUZA6Ebm9IvhxyuuFVs088brZbBG8m6kLqR7aY3bva7AQnqfcmVIddFq7mX2UAsSXrNYfNvvBs5bMmoeY29S710s88ZfbgJr2hYXxK1/c4NHLAIH2dw+d1dcpOC5MvjQdtfuq0WY/+5cxDcBblVIIl44abfex2sxunVD5oMGpO6ntfNvvU07KjuysfFAAyEx7ijMF3z4vOo4bLzGQFNB6Qmil0BljmER7fZvYdjbr75SP5MoVQ3/zxZl96b+WDBqOmpCba8W/LzR6Qc+ijpdHMS1T5e240mzkmOsM6oH+BdAZmfP/3JTn+K/WBJ1s4W/xv0dZNiIbUVB+uP6Ce/YrISqkFlWdou3OG2SfvMFs4IRC6v4JpcabI777W7B+W+Z9/ePik2XfXVt40GDUjNRzeJO/3mMYtHIZq4GzuxSLyn99qNrqz8mFAv8YgkfstM83+6rbokPwiQAFye5qR01MzUh86YbZFpMbJq+Y5o8XHyOx4/8L+lzMQUB3Yypwnfuc0yVGKqQh8f2UT4tY1IzX5HesPRnZyNdMDvi+QHX27en1A6+ESaenfvNrPDHGckEnaaNSM1EflTOw9XmB6iNFkd11XEOphyNqjstD8Ww+bHZTnXUswOcSzuvJ17dcoU2tQPs9O+a5dPB2sVgAj7CyiVCiwPKi+yJE2bjRqFv1YvsPsnh+Z9ai03BJF6rGyoT97l9nccZXPEuBnz+02e0HXqn1RzJusvhljIu2+ZJLZFRm/K4MXNBw+r2vVXrOdKp+RY5rKn99lds1lZvP6uHzpZT035TNdvEPl0xZTR0fLohZPNLtaV6uDUN9nl5vdu0EKoiB0+2aCAXdW3jQINSP1s7vMPvKAHEXyPHK0Nfb0jFFmX3yP2aiUPY23/IN1Zl97yWwfMVGVE2uCc2rEAXJUrhKhf39JZNeVTU4/rpHkh5Xyd6I5KZ/JBcrBD9DrOSL3BzS0vm1O+Tj5SZVBKPOrKn+LNDQjlosCqXx3L72eLu3224vM3jE3GrFaFWjgr68y+7SI7UbmHAYR88a5/Me3Vj5oEGrWtAzp1K8a1+g+VDRNyG4J/ZtqpM89UyF0paB4dtE9pX67+pDZJ54ye3gLv/JHj8pjAuGzK35J6Jhs7h48j75D7sK/SFD3E2cvAep+/3qzz6j8LUcq5Qtx+fFr1l7+q8r/9svRZ60MR5wcMp+H/l4blVkONSM1xCTXo1olIHR3RchJPLbV7BsStDNdIARlJMvhcy79lpmt/3o2ckp98fROsy+/IG0q4saEyyxffzsijf4/K2U+yDzxBaYGGYksfohJnC7f/aP7sw7zq3qWp2SutTKYdSyaj+BPbnVTg1EzUjvlW6WCMSB2EjhpaN4jss3OE64KIM16aVQmedDARSAF9qFN+ldk9Spf38HB+7k62mmP7+Mg8/wshnA5EgXAlNqt7z6q8jFZ2h0pcTcENSN1b7F6fxSkd/DoFE6jqqUgNY5eETbJZHlyu15Qtmf5tAq/wVwowg59B4I66XmU776na4XqXGa0CfBH00lNhOMgWtSHEDGkodceiLZYKMI+fWcfo0CZ8vXdjeoMPnnBBzQSbD+mn3iMGjH4LqG+7R6dJqA8mk5qbEw3O1WCdBAUW43Nb4rghvhelN+ti81SinCK5yeSU6J8cEYtf0KdOaC2QHZNJ3VvbS60nc9v0za8L1zjePzWcbkkoR08yw/wA9mEjK5/cn8/IPXIIZIvGquEgCEqmWPDPfIPhg9S+ey1VrL8S1Q2z1aEETxDL8of1qF7hNyXPgPlsxky32d29efN/v2ZfkDq6aPNpoyQoJkI8QSkYPZv0sjKB1UweZTZTN2jTPkQlHRYFiwUYbye4cqu8uXPvVTPpSugbyAM/JONZo9ti3hB2zad1AtEnpun6kFKDOFDpEFvmGI2QZ2hCFeIOG+cFpXvKu0BNke8Tp2G6e0iTFOnYdYMTvuWP1jlXzPZbHYgdZ9BYtUfXme2/G6zv36T2nV8k0idlD1bWL11VjSFXEQK/o4deusk//VvEJSMQMhdiMr9l6qj3TYjel0EclPYemvBuIpp7VGHBWNV5xbOUozl4APfjt5XkHZBfv6PPlBDUjNV7GaYCsD30lGFa6UVf3eJWdfwSiPEDZF6zd9ICPo9ffdyaUhfMBp88BqZImlzJVU+u3yS0ET5LC/zxRyR9O6lZjMwc5IjTqp8mmeWOhf5K5gsrQompY4WJDLFIDrUSEzU6F0zUvsWRDIMm0WmQZLPX6inofUAyUyQ2F1yxnD43nmF2Z/dYnaVhpiyQFt/9A1myzQqoGXS5Q9VBX5ldlQ+naws2JnoL1U+yVAMiReUr9csLr6D8m82u0XmVisD8Z0i+lQkdNW5ZgQrgZpl6TEr+KcPVPIrMkjroEpeqmHin+6IHL0svHIkSgslbZMd4mkUltxPkxYkdZMFnX3BrmNR+ikzga++FgmGSAp7MC9S+YwWfQGTPSt3Rc9/UK9pXJ6fkeVqjRgTPZzb/g4yKsnQu2+TlFSVWLvE7Tryx5dF7xuFmpGa/OePPmi2hyy7vEkR1ZKtYH9nsdkfX1/5LAf0CyYn0Ko+obuywAxi0240aT3Kp1VjM4vyuU+7gBDah3+sjhtnPOaAdY3vW6Dv3lT5oEGo2egwaojZJEJz1UqUoM9IuOReF4FiiBPXg3CAzsIK9nqVD4kpn6udCA0YTXdLW1dNEFOdkSE+RKNRM1JjFuD8uEy1KkJEg3EUhtvaN6DlwNK6L62MfKMisOyrGQch1YzUaCQmEzr0b9VpYzUGeRWscoHcAa0DpqK//lKUP34+b7wK2DOEyFCjUTNSo5wZai732MeDYWuD7LJPPh4RG/s2oH+DRSD//Vy0U5NbKVQAokm3TY/MvEajZqQGHJHAbvKO4QWVIULCnhAfkcNx72qzV7ujjDoIHkjeXND+iIDQK1uOoXju/n60usc5vx7yGSZf5d1XVt40GDXdSw/8dFO0RzF5xj6VBwMHydHUxbFmTGnTqONkozejl7/ewVF/rBbCuV13wOyJ7SL1Pv0BWXjKk0XLpA78fYNDeTFqTmrynD/1hGzm9ebOQ/SGGo3ICRdaPDfWHVB3QGgStBwzSsoC7rOVHAeLNsOeBjU1PwCpmO/SsEOyTuGMUxJqQGzts+oULlREg4arKRckdnKQOVhWueAckgbQLEKDmpMaMDP3G/PNOlXBUimZAS2NgVJo7Mny/qsrHzQJdSE1QFt/YJFIrZ5fSmMHtCQ65ANd02V2z02SNzZIE1E3upHxxnQ4QxFDmiN2kysbUAdIph2yoZeK0KR+kiXXbNTcUUyD+Oa3V8txWBFtZOOzV0dAC0HKitzwP1pqNr1Eum49UXdSA0J0bJr4ueXRvyjsEItuUUh4yI+LxHxGY9KGCcH2FzSE1DF2HzP7ySazb7wY5RCQPxC43SKokJlJFYRGTvj7Fka70RLx6E9oKKkB+QNuq7HNZt9bG+1fzCSLSyXgSQLL+w9gscACB44AZHR9+xyzO2dHWzH7rLZvBhpO6hhoaextkuqf3hHt67ytssE6O9Cz9q/SpgENBJEL/B5W72BSsGKfPcEXTzJbKK08WFq5v2nmNJpG6oCAeqFuIb2AgGYhkDqgzWD2/9FjMsTfjzq5AAAAAElFTkSuQmCC;" vertex="1" parent="1">
          <mxGeometry x="310" y="343.04" width="60.6" height="50.22" as="geometry" />
        </mxCell>
        <mxCell id="YyGTKT00KESnd8j7vxBD-4" value="" style="shape=image;verticalLabelPosition=bottom;labelBackgroundColor=default;verticalAlign=top;aspect=fixed;imageAspect=0;image=data:image/png,iVBORw0KGgoAAAANSUhEUgAAAL8AAACuCAYAAABnYNw4AAAAAXNSR0IArs4c6QAAAARnQU1BAACxjwv8YQUAAAAJcEhZcwAAEnQAABJ0Ad5mH3gAACeWSURBVHhe7Z3Zjx3HdcaLnOEMF3HfF3GXKGoXbUmUZNnyJq8xkjgBAj8kD8ljgvwNQRAgQB5ixA8B/BIYgYEgQQJ4iRMLkWyJoizJ1mbKkiiKm7iKIsVFGpLDGZL5ftW3R6OZvt1V3dW3ezj1QVf3cubOvbV859Q5p06dmnFdMBER0xAzO88REdMOkfwR0xaR/BHTFpH8EdMWrSb/lavGnL1szPBo5wcREQHRymjPhWFj3hsy5tRHxpy+aMy2pXosV2M7v49oP65IYfX3Sbu2eNJaRf4zIvqxCyK+nk+I+Cj8GRq8VbONeXSDMTcNJO+LaDc+uGTMa6eMGZRdsWKeMTcv1GsJQtvQCvJj2uw7k2j5kyL9VbUI0tOymRq0AT2+sN6YtQs6fxDRWly9ZsxvRfxXT2v+9HqOBGDpHGNWSgi2LjFmXosUWKPkHxox5ncaqPdEeDQ9KySNgfiAlvG6f5YxO1YYc5cebV5GI4y5qDn9+X5pfym0a0ymBKB/UJpfr+fred18Y7bLhJ3dn7y/STRG/rel6fd9INJ/mBA+RVZr+qUtVsv0+exGaQ4JQkR7gSL76T7Leav5U0eNyMoMreBz9RgU8fHj7pAQNImek/+CNMILx5NBGr46bpByMEMjN6ABe3yThOCmzg8jWgfM1VdPyt7Xg9efYFZnWecJU3a+5pM5/dQa+QQNmbM9C3UyDvvPGvN/B4x595wxl0V87MMi4lvoj0fk/SIwdimNaCVGNKfvaEW3Cm3iPHX+zdNVve/csDGnhox5/ogxz+lxuYFwdk/IT8fo5C8PJbag+m6uuZC+AwYSbXHkvDGXGhikCDecvWTMh1f8FNR5CQHm74/3JiZwL5Vb7eRnMJ4R6V+XY8tSaDtXooOjIv0ZOVMfabB6OD4RjmBeD1+QfyZG+cQk+Ds2M+HJ04eTAMioh2KsglrJT7wXM+eIBmUslOMJoj19sg3ts/59Rp/ZWy8lwgUQdr9MnhE9+84P70cxIgAvyh/cfVRKTq/rRm3kPyrCP7E/WQozbcACQPZZnZjwPLF+w0Jjdq425rZlarSPaonoCdiRR4OXVkz6OysEIssRmcZYCyjPOlFLtOcdObbPvZvk5FwvofHR9PzN4tnGLJ9rzK1LjFkZozytBQz6hcj6rnyyMpo/C32zNPeDxjy4LtkgqwPByb/3tDG/0rI1ok+1n+zx6Ti1aPz5emZL/BaRfllNHY8IB+b5X/fohVbqEflkVwMEJeABWCHl98BaY1bPT/4dEkHJT5hr9xENgF5fI6TjAWvXqyXbRPjNi9TZmMowpfCGlN7Zi9L+MnevyJgekc1OGNuSqyTDEADYuUwCsFMrwJrAAhCM/Di1u2TqEIokjusKOjgo82aBBuzulbLtRfy+jtRHTC3AJNJU3pcQ7P9AwiABYBVISVwKcEFChAXw0M1hNzmDkJ9ktN/IS7epCjTW8RNnivB8+90rZNfLkcXGj7gxgLN6UnzYc8qYIc3xaJXojTgFrcgQfUQCwEoQApXJT0bmKyeMOSxnh3CX66dh5sxSjx5VZ7DviQ9H3Hgg2ve2VoE3JATXNMdV/AGifDi/j22SXxggO7QS+S/LuH9JxN8rW39SLkcOSFSbp4F4ZH2S5RdxYwOlyMEkAiFn5RD77O6PB+YTD3KBvrS5unlcifyvvWfMq+/LwZEQOOXoCLMGkxDWTnnwoZaviOrYo7l8U07r5sXGbJMJGkKzTgRpLr+WefyOVgLygMoA8pPZy37PjtWdH5ZEafJj5+86khw5RJJdPmVANj2pyQ/Lcye3uy7QFAb60Nkky/A+DRITWlFR3LBgvP57nzGnSR2RIsO82CAhuHN5chAFwoUC6QyQf9dh68d6O8JW++uZdt2zKhHWsihFfrahXzgmO/9cpwNFWl+tnSUbf7U0/Wc4jlhTTj67gxyQeUOrEecFSJlm72ClvvcrW9SG6Fdk4uSQyHjImHOd8CTzNVOsIOV485LkENECKauAMmCVJ6kvl9gVLuLPRHQEgMjPw/IZl0gQysCbDrTzgCT3iAbMKSVZrewTAZdJ4+9UQ+si/ofSWi9Ly/9orzG/1RJOyjRijYNFFGqYzYeITJAtS3blGDRuTCur514pkp9oTN+WSRSyisYqEfcbt0qoZF7BDy+ofWjsU2rz79Q+/M0y8Cb/BxcT25Dl0WU5JJy5QBrkQdn4i2owddDunP99QlrkVUifkjwdkI6WIOWinIF3Y2NUY8LZ6T6RMEuRWSHQmJJzTwoDOfihhpHQ9te0Ii8qIQDMKRyk4MEhLJASjfIiP3kb2NCc08RfKSITxB9QKzmtQ4w2NJg0JmW32kRcmcmb1CT9gL0Hwm0ZczvtAXnOaeyupkpjAphjxg0hOaIVlLRjfKkyZMvCAgnAFzcnipFgiCvSduFzviXtz8rvCy/yH9dAHXC081kVcITZta3ilGSBgT+odjx1MHGerlxOBqMbaOs5vee8HhGfBCbhRQe7Ox3f8xIUQpbE7ctGbCZikQSA0jSEvwc97fc+/Q0ZpSTV+Z4DcCY/9h4xfTajijQ+IGJAqQo88pAgbfZltYMl+IK0lUNTLOgoSXcRH4OcefJxCAq4jKNdWTWvF8UFQpY8rngSrhtsApsshHkykW1WrwPgoW232vSOFPP7EgIfOJOfo2ZnMXcYAIeRwrHFzle7guGSvp80Cmx7xtwmzzmyn/ezWpR1jm5EEOU5hcnj4chawumBGURU7QUyeAOtAOvJ5F0g8us1JrMLsC6wBIhAkmWAae4Kp6+gc2xoXdMguRCfagv3r5MUB9woSTdI3pRzC3yzRhESIj6E2CISJUbuzUyZHC5zOh5WAPQM6YgCMS8hgLXAfsx6CQCrkStoD6nUB6T9T3tofyfyE02xB1McB2mjJHiTHqGAqcMA71fnaEPZ7XGrrWSrRiREI0V4DnOq12har82sDhcQAFLZXzmZ/LsqKGbFzi0RQlcH2HJCbScqRYUQ15WokPz0kcy8Tl9zweD168HhA6+BzAHfSx2YA9JSpEqXIT4rEZM7S9pkoTRdRDI/pI8/vtGYL+qxrONo+s4b8zOsOcGfwjQOARxgVoCZ+lxX8wd/BGsA7U9ZFBcUfjS7uAgSy2QRGLhPifhsXIQC0ZzXNbCjkmpvU6eD+fI/SIX9o9uNuTewAz6VQWIYocZNEoKvbDXm8xuMmaux8tVbaF5s7t9KSfk6nd1w+3JjVpJa4Uh+YNPpxVM2YV34WvjRb8qpGVLHioCNRsLRlsX+2qMbsM9fkrlDP3wOyAA0EmXx2P7+/duSRCiqPFP0NuKTYL7maKy2LJWC2J6crSCE6CMFCAAZm88f8w85ZgHBvGdlUt7Q1f5H+2Oec6rMxfHNJT+5+ki0CxhA29hA6QsInD0IIdL7RCNox4BIvkFO0x9sM+bOFYkd6TGP0xaMEQrjs+sTpUF9fR9FhklK6JT0khBYJZ9kzU0JqX0mkBwuIntFPmou+dk2Jo5b+CH6FDiPA4UjVRV8HY7LCWkSH+KjIdiHuFua68taxlnSI/wB4bdrDL8kM4iV0ifyMqzJO6C5o7RkVdCOT69JwuauQgh3cHg5Y1K0C92V/PwhCU/kzhSBwyk4KKEuj+CSCvLL2bl1BRM0W735jDQW0YJ4Drg61ssX4NAIl0xQJt4J4g0Opz3g5GB6FIFwOTWbLKtdoPdh8rACfSJZLwNdyc/xM0KDRdEV643rPZgZIY4i8p34GZf1mUWSm4I2sDP40DpjbpHd2mawyZYe8KY0H/snHAMlZ4qSjjj4JI/5bNbUibVazR+VGTR3UApFY+wCOEMfKFwWAqTIcLOLjwmGBcJY5qFrPj8TwaQUFYYlFsu1QdiJITa1GLQfvaUXanyRuQWsyaX3ciSSdIq2gqjZIa2kmJKMLaFBIiOjaj8rJ4llfSINhzRYRaldv1Gal0fo3ChfoIQQ1FeklIblixXNCyRFUG5R2zmxR4i5Kqj+xxg6UMKCNnAa7U/u7PwgA13Jz0EDCo8ixXmdhfwPrjLmdk1YVTDITx5MCOJCfMJgOEPkhNxb8UhbXeBQzW+OGfPMu8a8JC3PpBCy5Xmsj+mzfmZ/rj7NQMvq+R457J+T7U2OFBqwKbDDTioDOTTdMkBT0Af6tEiCjOPM6lEVp7RaohRdeGGhNrBaEOlb2GWzLNNQIVxEZ/mevC/Dzp6h94WK6xNdQrpdQeO3cNKoQVJ0A6m2P9xjzN8/a8w//loCoFXUbsSwkmpMbQTDDjDv7iD9OS8Zf/0bc+h7rxjzD7uN+cGriT/UBIiYMc4LNOdFO6+WMyIfNjfh6k6XKoHENzS5FSwXqA2cRsszvTLJTw19YCcq58tY2jiRs9gzDbUbWFoZOFfpTpPnbEy6ReB00d88bcz3X5LjLvMmk+gu6Lz/mjTtW/qc771ozN8+k2jgJsBxQUyyPrWriIQ0HauB/CFu46kKPu9W+XM++w/sPHNeoRsyacPhBjSX/ZKcCSMCQCHZELF9VpuDZ/XCVbKFHYTBAq06oYC5+Hci6C6ZOmShjhG/CvT3dvdSj93HjfmnFzp+UQOAgIs15rOKwsj0We09o3lNlWkV0H18OhtBchxPxiyv0nM2+UV8DhbnERHJJxQ5hxhs52dVcEwawrXoFbY+ewrU9GwT/mefMf8sE2cfJ51Ix6AvjhNViM5nYQ5xKu0Hrxnz779LftVLYP6QE8QlyUWpB/DiirhE2DHEri9cs+kXjoSzXNIDZZ6FzOajsezGRs7EEWVB6Ya6HRHH0DXXnk6Ro9Mmc4dSHN9/WT7LebUvwETngf4f1ff8m3yKn77d+WEPQfXshZp3l3O3mD6kGXP0tSrgvN1IdfheC40TU/EBVkwGJtEH8wONxTVAeRI2UxoAW3+JzJ6q4PtwjFwkGqFboiV3RcCCpVVxTET87vMipFavXoFJpTjwf0j74xT3Emhg5p3d97w5Q0ghKjfqX3RMk8kD+0hUa7O+qANoG4EbVp4sTCK/rbKsRudpfUDHiOszEFVBbJ+G2GWqAAgKGX/E9tsA2vNd2eAQsW6NPxEM11sSvH95JVmtewnObMyVAiwyfWxYV8rKmtEBQJU/9kVcAJ8wt7rZ/ZOajqRcQbIKiEikZ7akmvz9qiAPxPUsKN/Ldrer3Vc3/vPNZCu/YLhqwzVpVDT/f6kdvWwD9ye4pD9b7SvlxnnhEEdIyTVyLZsDsBQoZJaFTPLbrfWCD78uSQ5lc3OW1EXrQ/xFerTF1ici9jPZ3Cfl+Lu0vw7wtUOaMy4FIRerVxjQHLju3JJqAAFD5PrwWSQsuub5875uJ7smfQS5NemRxW7zidRxuCRUbrwtKeIgyXQEm68tZQd/IuIfYxOnxyZHFuwthhKAXsogJ65s7leRolSjuEI2xEF3yE9421XzY4qiLMeKmY3DJBpxaIQzs/bDu7Jf/+lDQ5CQgWGlKeoMv8fRWS5HN0TadFXgG712wphzem4DGB9ysUKdpHIB5MfszZsOKES8nfEKoPjt3FPk2FXz2xVZjyyzetJHQEQkNI+M/IowVwjzg5RpPq+bnKWgE7auP3ZmTtt6BXuumHh+gChGZWhs0HC/UZsIGfcKpBtYRZQ3H2obXEnTZaqCr+LUmQ8H4H3WqjNZ8+udNDK3oforiB8iW2/svIDDyJBQ1ZYbXKhZc1hatg2CmOIjjSW5LBlKrhbMliJymQ9MI6yJEDY/402gxSeyRkQuK0V8UtPHiJ9DRuabPwwR6XHd+bPLnN7bBrIxkOTk0ya7rLYBGhdWIVajMnUrS0F9t5rfYQysUg0wVsw/itfF17DQe4gyIQATMYn8LuSiE3xYiNCVqzagWXTapb91g4M+ZFe6brb0BJoLhJFzAlTS7gWYfksqh0mxbwnAFwAP4KALF3hPN8GbTH49rC1f8MkQP2sp8QXC5tIJ2p4lvU0ApxLzog2r0ESw2eZadKAq4ICLAmScMI9cndQipMR3oYN9j/6X9d5JzeHsaxH3+XKkaTTDifAF3+dEIn0n5G+DAECuovOhTYB5YTOJUHUvYDeuUIAFc8L84h+GOlfNV1pBcuGC3kMViqzvnkR+e1qfN+Y1VB8ICXFiqgK/IWtJmgje0ycHy+W9dQMn3TrqLWjLRFzX/LFX0wtQ9t1FGTFnxOZDkJ/PwuJg59YV8NmJ/Eio9eBzOsWvCDuGGOQ5+hwraI4DQ8isaTABbRDCpsHmJDUy88YCrc+GKCFqa05XBF91CbPOkS8A4mdFpSb9CM1P4aLcydXv0MIhcrTtRpkLkdQBNuDOq+NNmz602bbbYwJ6BfL9Q5kXeYAfmD0uac1oaZIgQ4SpifLwvV7KR+NBWHYiJjWHQ78u8Xuy9UbYuAhARHsSrOhz9HsGmmNxrhGiunDTYLLL2DagZSFZL9I/zlxKzF4bcswB04qVwHiFID9zj8/lGudnTGgDN0tOxKTmkKJM0lKRZ86Xs2XNLR1VsWyemxJlk4skuBBRpiqgovG6BXoRQPBDY5XGEuGsGxzaYe6LlB/2NqsRu7IhwKpPnpCr0rV7MeJL1p7UZPKrkUgoGZR5oBHYfPasb0Ws1IS5JMlZJ1ud8F72AoODHEv1CBW6CwJIpkmmyOzimsmPuWvLEWrOCjWw2sXho1A1XOGAyx1iKXhflskDJk0fy0TWEjERpDSTShtiN5GbGjMEMxMjIr69CtX1D2oACmKpJtTen9MizNAkc8g7VDWNbmAvgUPpRSXj4RLTRJGDUKsRnLOC7qj8MMu6ldbJ1F22yI9MDBrfDXwogx3ibCa3e+Nn5H1fCjpNlYden1yaCMoiLg+0lAeBxmVQs8mVPiGiKt1AhI+rSK/oufC+BOZTD4QRU7oq0Pr2Wik9u8AqcvGKVToLmU3icuC0ylUeIVlScD5CxPspy2f3F4qgjo/oQT3PJsHdwhzknhloOa8EjRsm2F0SyLpLG3Je+QSHjwrMDssbtK4UBPV+QoCvPEpRMxeeCChKzK1u359Nfr2ZcCfIW17Q/ie1BIa435blGsl2AW2C/L3axs8CCgL7ek5LTB/Idv/ajiNeEziNxZ1m+F0ul4VQ24eiZt00ry+I9LyPuVUgeCkYE9IvvDS/3Y3TbwqdXg3AJb0vxFY/Ageh8laaMahDVHFuqnJZim9tE9nwV5o0fzrjRVHYB9fVa/JQ9fh9CQB+Vy46beL2/ZUif6hDTyQT5injLBC655GFzGZhflAteLaei8hIiZM05lsFNIRit4WpFR2w7BJuo9R3U0DLcnP4Yi2tTkJbB0QGwnifWW/MthrLs3NTOzeukM/lEmmhZMlSmc4hVyJWe5tI5ygAlLNk5emGrjK5en4S88+TNH7HEoRGqKr9Ic8mmT4+p3SYAy6ldr19rw786T2Jv9IU8DnuXGnMt28Ps4mUBXJ4OB9MoIVUhUKIF4Oaw3XiULAQpx4oO1fTGLApSpGrbug6XPwR5HYxfbABQ+SQszxRk2eGvtdFAKzDrRnZdUhLccWVpyyY3L96IAnnuTpiIXGzzK7v3JmEi+sAdv6z7yYKZsQxwgZncDI3S5mFAucUrCJ2Jb/mYkhtzlt5upIf84MBJXxWBLQ/Z0ddbm3MA99JIVSWK1ci8d1EH3Zpgny0QkhQuvvPd3x8l20vwPBgT39tqzGPbUx+FhqEsZ8+mJg8zk6mHvOkxAhghNrVBRwb9dFvFDXDeslbDXOpzXLu0gHSDk6L+Jxwqso/vo+LGFy1P1/I27jAzi7NjpMUGt/ebswfy/TAV3IV3LJgXKhc9vhmY/5CQucUIvYAGpZI2s/fMeaIiO8zp4RcGQOUWChQl/Qjx1UHMD5YEUVh31zys2SgTTkMkAe+DFvwTWn/quYHn0VFNq6gdC1ImvoleyUA3IASYuOtDND+37lLGlnEnKG2B+akBeRarRX5G7ca89c7Oz8MCAIX714w5kd7pdBk6/v0gbmD+JSODwWmlnvLLK8cpZA2U5t/PRfZ5SCX/GCblq+iSsyQj8dRmR/kfKRkLIu5A8k1QzjcPgLAmdoj8j2ekg/ATmDVdpTBn90rUj6kVVOKwy65zEQAKbAfo8/botWY7/hL+RkhgZKjpuWLR4158nCyg+4S1RkPqipsl89mV79AsKkUapcrEED4itbvFuJM0fVOrhQkkf1sX7KRVcQlvni5tNJXt2ggKtp7mC/c1PLyyeS1D5G5NqdfmuI+CRDST/pEr4H2pIDsyyeMOU582kNzjQdjShrJKvUBc5CVhTtyQwHSEz8/IWVBKJN7dH3uPragjXq6TaYOod9QoGbs/+5Pqjy7CiImIKkUXxIH8yI9oJD8AG+fcKZLLH9gtjGfkvTftaLzgwrAfLGXoMmcsY30IA8rxiytIEslhKQhrJUmbuIWlycPJL4IxWS5FRySQGj6Yp8nYPxskLxHrg4RMC52+6ZMnZCgOjaXDr4jc/WSyEXkztWxHYPaSD8wxbizt6rSGw9urUT5peUzCyHSE2Kllue3NFZFG35O5CeG/2PZgJc1OC4SSPjv9/TlC9WIqiDE9pQIRFnA0RLRJK5OYlKJOa8Rke4OIJS+YICfOpjc3IIWOyUtyz1VnAO2q5p+jxwwWSzVrFSsoOx4E835qh6hd27ZLNotpXZUbbgoAbCkdyHYeEB8PeGfsckWYr5TsLfAFU8XmHdHHw6zkES2h9cas1WrEG3LgxP5AaHEfdIQDFrRX9CImzUgX72l84OK4MqiZ2SHXtb3Fm6tZwDNROyZdj+6LmwkwhWYFjjjJ/V8RuQnLMxKasdTv2ei7JKtyeM01mI5zQskuF/TGNo9hMDA3HnpuDF7tKITrXNjwcewq5YeHJ55WGMaKn8HkMPznFbLfVopySFyaRvtQT8sVnse3+S2yjvrE+xNlrS003mgsdxSgg0ZAtzjymXG5Iq4XkwwHrQH7cHVlKHDgq44I01GKBh7lPgzKdHszDKu9+nBM/sFpChgq85mZtTXuqqvMQ7sE+AOoax8YIkmIUXj7wxMfIB5iDnGvPkIZZ86c5scXderspy7TVHS23C01BgrAHmg0XrPHpE/7ypIH7Dn8BC3eet10a5zN7Dx0VQqgr2WR+1Gq/HA3CF8x4MVIH3NEU1+z5yjneusVsEJuuVzNJ4isiuY+gGRbI0I/4j8kNCrElE6ggQMl0vmKEB4yW9apnbh2xXyswNn8vN5mAvsYkKiIm2Bb8BVNC8eC6O96NAmSfXnNyZa0fbPsZOAv+cWwbryX4oAwS3JPDTZqMYN86iujTvS1klDKLp/DfB7u2rqsQkbf0NSojwk4AnVrym462rnA4b0uvpCGBhn1xVeVMCOYqkm9Obi+LJkfaDJI1pks/EqgrHHcf26HMBVevY5HQTvmrD1AeSF/JDMVWAZOxQMhHCJspUFJthCzWueMoP4NJvVn6gTD16HBCsel3efVH9tqNWRL1br63m9BBJuOA6vhRf5wc0LjdmsL7LHDgv+mgkk0sJGxfNyYEKB3H+iINjNaC8XrYUTSZWIJkCUzB679NTgtPtcxzGuC9ytRZSmm+nD0DLN5Hl9YXOSdh569cTMI135bfGEe3td7Xy7Gum9tAet71tOxrsbNvNyhUwPBovJLCAeHaFoERcn7zmV2LEhQIcfkrOF3cmKxIGJvAnk1JV3ZwOBK3GockHKg4/ZQ/iRkGid5GdM2JHlaqUxJaJnXhNexYzYyR5DJ+o09p5AgB9w40XZ+ZfZSPXkx3W1cYvM4aINrSyU4gOlKO6W+TNPK4ALmETmj9z7N06HMYEANijZg3+4vbMKqDfwa2IdR1YoHN3QE+cKNutIDWYV9AGmJbU3bV5LjWBs0JoEEnig4DCF2Khks+iO5ZPHNARQhGQDPyurwHefgblkOsmjQrGlx259UKpLfPEWkW6jNAZetgupmHjmEPOHKFBIbcZkscny5S1yxiQE2KO0iYkkNEpEw6ZJNwQ0vzVjmWAPoAUR3LHba2oCGaKEKzm5R82fe0T6b95mzANrk/yqOoBAk77y7LHOuHgqRISxX/O7SYJbNuLkvMmVBXbhfnXU2Fr1NN7lg5hMGn67SHrvqrA53ynIU0GjsLFEqY0d+h4SnZqK8dscJcqtqF0+sEpF7X9A5h1auM72UwXtgvyL1VrNXZRZFZAv9roUIBdoY+N7Q+0bkFBulqnDPoNLnaksVCI/gPi/PKxO6FOct6FpvEynmyWxd2lJZSu/DiCcRBEw0+o82J0HTDzi1nvk0Nn7DDxGm3FCUdwqweVwuktVu7aDrF/ynI4MyRoouYfBVBLPh/hVCnRVpgQ5/2hw63A6SiDiNnxJgqPHLglOXTcIEodmSWyK+ADzztr76rOvQrVmjwiPENcV6+8VMN24qf4Xmu8jEoCyxEchUP0Nn7MK8UEQWpDKul0+AIrJNf8eXJZZcrazD/C8zCefvO2pgmER/7z6hQYvs8biK51lBWPVmKI4/mGS2Yqio86mr+OfwjrdGkOIj+aviiDkJ+xIgxACuF8U/x8PtrBRam+eM+bpQ7IFZR5UM8TaBWL82NJl+0QU5JoGNVSIuJfAtn9BDu1zehzCL5TW9tm5/QRYNjUG5EDZNJsACEJ+gD2K+XOrVgCsHx+niQkekePDbvCvNVBP7E+u1LwRgM/BCm9DeSXB31IOfqqA0C4r+RMHknSFD/VvSF92DOASyuMOOf0kAYZy/Cs7vBOBbffycXnysu9sHX3PT2dpY+UgfLlEth0d5kzvVAVFtXa/l5h4ZZBO/Gc3JOkZTUWsXIDZSmTrPT2fU3+pKVQmXfoTUH+xJrZJ2xN6Den0Byc/gPSvSAAwYco6atZ3UMvoLBsupPqykdWk8+oLTBXI8KK0H3ZulZG+R2blp9e0s//06yf7kiQ8QqaQHoe2KrMQfK5Y4hz5p9clCjEkahlKIj+c4N+xWl/AN5TQVpCFZZKV5H1pkudlDv3wdWNOTyGnmJwVlvwqJg8gikY9/F7dslgGlvjqK3NdWdsLEB/aYN/XQXxQmx6xTrBMlsfWJ8Lg4wOMB7t/kIdxZUBrGIPawApIpIejlFXIwBhwEAZhais2L9L/1MeqpLfQZ7B7y+EeVrs6iA9qIz9A63OWkgxMew5AnfAJhY4Htu5G2f6haj/2AqxaxOjLhvZSQCicyFA5UaGBYiM/qOotkHwOSpNrhHaI+NyBUOfGXq3kT0GlXM7zkn1HX3xCoSBdNYjtlklgagrs6NqqCBU1NuSfqX736mb1Mlg6L8mutWZuCaDcyBPjcA15Wvg4WZfIhURPyA/I4aGmy/2SZnt0Tt9sd4RdOqj3UP+RagZTCZg9/YMib0XyI/wc8GC/oK3xfrQ+ys1LsXXmPiU+NZaIatV9u0yKnpEf0Nc75Qd8Th0kcsNJLISAAevmE/BztAkD00TdnbJAW9srm2T2OAl4DuA743Cuxc4+XeSYqE3ddegv/eFtEJ+M0juk6R+Wxg91hZELekr+FORkPKqOciB9g0yZtBHdhADyk6MzlUweG+kZTkweBy7kQ+xnbEhzCOJQ1gTqDVFyJc+vS+eXJ1YLzmM8IGsAi6CODN88NEJ+QOfp+CMSAs6Ecjjdqjg97ODpDVY76LFIg8Ldt1MJOKdEaDhdFoKwOM3cgVDRgqoVOKtsxGUpsHQuIRwZvSREPqR5J1s1RJ5OGTRG/hRIO7UnSU+lMoOttIUAdFpG3U17yHqK2ftkc6KpQyE1owLIUW3AhKGIFTeup8udJb3mEi0P6Tk4c5/mmDpMzHuvtf14NE7+FJy0skugBuXxLbIBNUCDah0aDzuwbs8/NHBMObdbNdIzHuyWkyXaZuCX2UshRGqmLLWAsOvvX96J5KzSat5D274baklvCAEiJZCHcCE+wlQ7yMElfT/er36oD0EgJjEEX9mamAxtBWyiwOzrQ8ZcOi+TRoJAXg5zmN7t3Ba0lvxTHYfPGfPEQb3Q6IYaYcwKbOQQFbDrBGncVICmuBkavknTJg+tMXtuJGDyUNka3yUk+DjCnYE/Njgoa0NpdcyfthIfRPLXAEt+ObvsyoZeVyl423r2TxFE8tcAYvxkn4Z0dgGCxN5B5H4YRPLXABvpISwZmPyAEOpUPs/bJkTy1wA2uIhW1RFKIOSLSRVRHZH8NYAQrb2ArgawmHBVU0R1RPIHBsreFqWVhs7a5q8KTJ6QO8fTGZH8NYCcHjal6tpBOT3UeRFRCZH8gUGE5zSVGmrQ+oDVhNNhEdURyR8Y6QZX6DDneOBQt/kw+1RBJH9gwHl7C0tN5MSUIs0BvyKiGiL5A4PyHWXPsbqCTbSzJYtgRXyMSP7AwNlFM9cJWxIlav7KiOQPDOr02Dr8NQLThyJWEdUQyR8QkLLOSM8YsPkj+Ssjkj8g0jBk3YEYvod7vuraR5guiOQPCMKcFzm/WjMpbcRHM8eZ3ojyiOQPCNKN67Z4UhDxIXM0ojwi+QMCMoY+vdUNpDbHnd5qiOQPCOrq9GrnlUoOXLUaUR6R/AFB+LEXlZSx+amFg5kVUR6R/AGBGVJHGnMWID+mT4z4lEckf0BwO0mvQOIcxJ9KF9W1DZH8gcDlEb3S+inwL+JmV3lE8geCjbyIjL20Qi5L68ccn/KI5A8EUoyvyBTpGSRl8UhjNUTyBwJ30NqEth6pfuvoavZ66WfcaIjkDwRSmXtp8gCudcL0iSiHSP5AwOEte9NkWXDRM/kUFIaN8EckfwBcEQmt1u+x6sf0oV7/UHR6SyGSPwDsgXURsecbTtL6xPljdmc5RPIHgL11sQnTQ8KGzR8T3Mohkj8ASDBrgvx2l1d+xkdR85dCJH8AYPZg8TSRZ9Mv8g9Hh7cUIvkDYEhOJ1eONoGrIj4HW6joEOGHSP6KgHTW2e38u9dgtcHkiptd/ojkrwi0PrZ3neUJ80AyHcSP5PdHJH9FkFU5PGqjjo2A2184NB/Dnf6I5K8IwozDImCTZg/+LjvMEX6I5K8IjhLaO7IaYj/k51p/6vhE+CGSvyKwtftnJSRsCqNqA453LFvuh0j+CiDK03iIXc4GzjZpDrY0eoQzIvkrgJ1VSohca1ICJIA24iPiR7vfD5H8FQDh2qBtMbnwPSL5/RDJXwGEFy8SYmwqztkBZs9VtSGS3w+R/BVAjB8ns46b1r2gNvQPJOcKItwRyV8BmDz9g81GeixwekV8Qq444RFuiOQvCUhmtX5LyEaCGw54PNPrjkj+kiCNmISyq20gmwSQev1chkeqRYQbIvlLwiaTDSdhxjZgLOITye+MSP6SQMu2iWjsNRB6jZrfHZH8JfGRtCz2dVOpzBOB5p87P0Z8fBDJXxLY/H0D7XF4Mb+uXJZAShhb0qTWI5K/BCC8zeHH3m8R06zpI1+kkUoSUxCR/CVAQVoINsqOaoscXntbi7T/SDR9nBDJXwJsbpHa0DbND6jaHGP9bphxXei8jnDEiSFjntwvm18O5lW0f0swo8+YixeM+cZWY9aobRH5iOQvAbT+4fPJAZLG83rGgZWIxWjrEmNukjMekY9I/ohpi2jzR0xbRPJHTFtE8kdMW0TyR0xTGPP/1POsJJToxt8AAAAASUVORK5CYII=;" vertex="1" parent="1">
          <mxGeometry x="159.99999999999994" y="436.75000000000006" width="58.5" height="53.29" as="geometry" />
        </mxCell>
        <mxCell id="YyGTKT00KESnd8j7vxBD-7" value="" style="endArrow=classic;html=1;rounded=1;strokeWidth=2;strokeColor=#007FFF;exitX=1.047;exitY=0.355;exitDx=0;exitDy=0;exitPerimeter=0;entryX=-0.023;entryY=0.36;entryDx=0;entryDy=0;entryPerimeter=0;" edge="1" parent="1" source="YyGTKT00KESnd8j7vxBD-3" target="YyGTKT00KESnd8j7vxBD-1">
          <mxGeometry width="50" height="50" relative="1" as="geometry">
            <mxPoint x="400" y="359.99999999999994" as="sourcePoint" />
            <mxPoint x="600" y="360" as="targetPoint" />
          </mxGeometry>
        </mxCell>
        <mxCell id="YyGTKT00KESnd8j7vxBD-8" value="" style="endArrow=classic;html=1;rounded=1;strokeWidth=2;strokeColor=#007FFF;" edge="1" parent="1" target="YyGTKT00KESnd8j7vxBD-2">
          <mxGeometry width="50" height="50" relative="1" as="geometry">
            <mxPoint x="310" y="350" as="sourcePoint" />
            <mxPoint x="500" y="320" as="targetPoint" />
          </mxGeometry>
        </mxCell>
        <mxCell id="YyGTKT00KESnd8j7vxBD-9" value="" style="endArrow=classic;html=1;rounded=1;strokeWidth=2;strokeColor=#007FFF;entryX=1;entryY=0.25;entryDx=0;entryDy=0;exitX=0;exitY=1;exitDx=0;exitDy=0;" edge="1" parent="1" source="YyGTKT00KESnd8j7vxBD-3" target="YyGTKT00KESnd8j7vxBD-4">
          <mxGeometry width="50" height="50" relative="1" as="geometry">
            <mxPoint x="300" y="409.99999999999994" as="sourcePoint" />
            <mxPoint x="500" y="410" as="targetPoint" />
          </mxGeometry>
        </mxCell>
        <mxCell id="YyGTKT00KESnd8j7vxBD-10" value="" style="endArrow=classic;html=1;rounded=1;strokeWidth=2;strokeColor=#007FFF;exitX=-0.042;exitY=0.675;exitDx=0;exitDy=0;exitPerimeter=0;dashed=1;entryX=1;entryY=0.75;entryDx=0;entryDy=0;" edge="1" parent="1" source="YyGTKT00KESnd8j7vxBD-1" target="YyGTKT00KESnd8j7vxBD-3">
          <mxGeometry width="50" height="50" relative="1" as="geometry">
            <mxPoint x="380" y="381" as="sourcePoint" />
            <mxPoint x="320" y="460" as="targetPoint" />
            <Array as="points" />
          </mxGeometry>
        </mxCell>
        <mxCell id="YyGTKT00KESnd8j7vxBD-13" value="" style="endArrow=classic;html=1;rounded=1;strokeWidth=2;strokeColor=#007FFF;dashed=1;exitX=1;exitY=1;exitDx=0;exitDy=0;" edge="1" parent="1" source="YyGTKT00KESnd8j7vxBD-2">
          <mxGeometry width="50" height="50" relative="1" as="geometry">
            <mxPoint x="220" y="340" as="sourcePoint" />
            <mxPoint x="300" y="370" as="targetPoint" />
          </mxGeometry>
        </mxCell>
        <mxCell id="YyGTKT00KESnd8j7vxBD-14" value="" style="endArrow=classic;html=1;rounded=1;strokeWidth=2;strokeColor=#007FFF;dashed=1;" edge="1" parent="1">
          <mxGeometry width="50" height="50" relative="1" as="geometry">
            <mxPoint x="230" y="460" as="sourcePoint" />
            <mxPoint x="320" y="400" as="targetPoint" />
          </mxGeometry>
        </mxCell>
        <mxCell id="YyGTKT00KESnd8j7vxBD-15" value="&lt;font style=&quot;font-size: 14px;&quot; face=&quot;Times New Roman&quot;&gt;&lt;b&gt;Gatrway&lt;/b&gt;&lt;/font&gt;" style="rounded=1;whiteSpace=wrap;html=1;strokeColor=#007FFF;" vertex="1" parent="1">
          <mxGeometry x="320" y="406.75" width="70" height="30" as="geometry" />
        </mxCell>
        <mxCell id="YyGTKT00KESnd8j7vxBD-16" value="&lt;font style=&quot;font-size: 14px;&quot; face=&quot;Times New Roman&quot;&gt;&lt;b&gt;Node 1&lt;/b&gt;&lt;/font&gt;" style="rounded=1;whiteSpace=wrap;html=1;strokeColor=#007FFF;" vertex="1" parent="1">
          <mxGeometry x="571.8" y="290" width="70" height="30" as="geometry" />
        </mxCell>
        <mxCell id="YyGTKT00KESnd8j7vxBD-17" value="&lt;font style=&quot;font-size: 14px;&quot; face=&quot;Times New Roman&quot;&gt;&lt;b&gt;Node 2&lt;/b&gt;&lt;/font&gt;" style="rounded=1;whiteSpace=wrap;html=1;strokeColor=#007FFF;" vertex="1" parent="1">
          <mxGeometry x="148.5" y="343.04" width="70" height="30" as="geometry" />
        </mxCell>
        <mxCell id="YyGTKT00KESnd8j7vxBD-18" value="&lt;font style=&quot;font-size: 14px;&quot; face=&quot;Times New Roman&quot;&gt;&lt;b&gt;Node 3&lt;/b&gt;&lt;/font&gt;" style="rounded=1;whiteSpace=wrap;html=1;strokeColor=#007FFF;" vertex="1" parent="1">
          <mxGeometry x="148.5" y="393.25" width="70" height="30" as="geometry" />
        </mxCell>
        <mxCell id="YyGTKT00KESnd8j7vxBD-19" value="Data" style="html=1;verticalLabelPosition=bottom;align=center;labelBackgroundColor=#ffffff;verticalAlign=top;strokeWidth=2;strokeColor=#0080F0;shadow=0;dashed=0;shape=mxgraph.ios7.icons.mail;fontFamily=Times New Roman;" vertex="1" parent="1">
          <mxGeometry x="450" y="393.25" width="30" height="16.5" as="geometry" />
        </mxCell>
        <mxCell id="YyGTKT00KESnd8j7vxBD-20" value="Select Matrix" style="shape=image;verticalLabelPosition=bottom;labelBackgroundColor=default;verticalAlign=top;aspect=fixed;imageAspect=0;image=data:image/png,iVBORw0KGgoAAAANSUhEUgAAADQAAAA2CAYAAACIsLrgAAAAAXNSR0IArs4c6QAAAARnQU1BAACxjwv8YQUAAAAJcEhZcwAAEnQAABJ0Ad5mH3gAAARoSURBVGhD7ZpNiBxVEMf/3TPbM7NZFzYHGT/iGj8JETWSiCw5xIOK5KASvAT1IuSgN0VBBA+CCIre9CAK4kdAJGgOIuohOcRFkmBUEkI0cRPUZPGQlTW7M9Pz8ax/T4/0dPd77Uyr29O7v6Xo2XpdU1XT/epVzzxLCcgRtn/MDWsJZR2rfuI7VTv4JTqW5au6yOSCPbUekw8/Bqs45mtXFtVqYvHj99BZuAgViteWeCs77oW18OHbqvH8E2iESsOYnF/bcB02fnUMVqnsa1cW1ahj7p4tqPzyM5qheEsSb+mlN2FbxSJqMtiTekAsp+Sfnh0YUzDGYOzMJX9z6I+P3lULz+6BKxkW5LKtf+E1lG+9A1anAyW3WuWWLTJQ8E9fYdpt1I7LFJBbT9k26j98i4svPo22xO5I7FOvvNV/hTjNypJAZesMynduR+W2rdlJhkgsjMmLjTFKrIw5SOSWYyUZFeJiNc4hVhV37rRWOK6j9fs8mjE21HFMRxqfpG8OFeX6Vfd+gfGZHd6g+9NJnNt1Nyy3gY6n6cJPQUm1md53AM6Nm7rKEPPPPQn3071eJQpSFh/Og7tRffkNX9PPID6XZw9ifvd9aOnmUARZrNTyEqzackSo57iWphtrR+GYljQ+BXNCRKoJP6mwUG9EVvI4OwrHjAzrU0g+Y8RYfQnpnv/+y+fCND7NCfEN2i0U5WVYqPfGdciqzqoZseX0kTEtaXwKxrLdubSI5SOz3qNEGLbv49tmYE9M+pp+5LEE7Qu/RSeytFSFK65CefPtvqKfQXzGlW0woblpR526xlFn5Lj09QG5sqMBY2XMjJ05MJe1Kpd1cpdQQlH40+utpBnx/g9iyR97KnviMl/Tj3vmR3QWFyKWLHL25BSc62/qKkIM4jOuKJib01MncO6B7YB0uF7r4eNdVnn4m95/CM7Nmz1dmPln9qCx7/3Y5rS061FUX5WKFMMgPgdvTqVMKlkz+PQaFuqNPZmU3Tg7inEtSeNTSJ5DdCCHsCS9sc6OMqxtop2Qu6KwChPiXJBDWJJ6Kp0dZVjbRDvBnBDfuFDwvjIKC/VGB5wHMXYU41xI41PI3Tq01pxmnbWEsk7unlgTm9O5+7fBkR4q3Ci6UkI3fn5E35w+9Tjan3yAetBQKItx4aFHUH39HV/TzyA+h2pOUSiiJS/DQr1xPRHndBSx5QfP9URHGp+COSHB0ryBTv9vkMZnYkKjxipMSKoSTwoL9UakSsXZUZL6saF9Ct55WuSetcbXQVXGI0I9x7WMObF2FI5pSeNTMJZt/lrWPP+r9zqOsSuv1u5h4K90aulSbHNqrZtA8fJqVxFiEJ+rsznNyjaYf0JcrH0J8faoHz+G2tFZ1A8fQu37o+ZfCv5vJBbG5MXGGCXWyC3dm0O9vT69Kce9PrhhE6797JtM7fU5u/Mu4PTJv/f69BLiXp/k1mcEsVWrhYpk1xN+s9kT5Tb807IDYwrGGIydueRvvxzLn6/LAcBfVi+J3K31fAoAAAAASUVORK5CYII=;fontFamily=Times New Roman;" vertex="1" parent="1">
          <mxGeometry x="590.78" y="403.49" width="32.03" height="33.26" as="geometry" />
        </mxCell>
        <mxCell id="YyGTKT00KESnd8j7vxBD-21" value="State Matrix" style="shape=image;verticalLabelPosition=bottom;labelBackgroundColor=default;verticalAlign=top;aspect=fixed;imageAspect=0;image=data:image/png,iVBORw0KGgoAAAANSUhEUgAAADQAAAA2CAYAAACIsLrgAAAAAXNSR0IArs4c6QAAAARnQU1BAACxjwv8YQUAAAAJcEhZcwAAEnQAABJ0Ad5mH3gAAARoSURBVGhD7ZpNiBxVEMf/3TPbM7NZFzYHGT/iGj8JETWSiCw5xIOK5KASvAT1IuSgN0VBBA+CCIre9CAK4kdAJGgOIuohOcRFkmBUEkI0cRPUZPGQlTW7M9Pz8ax/T4/0dPd77Uyr29O7v6Xo2XpdU1XT/epVzzxLCcgRtn/MDWsJZR2rfuI7VTv4JTqW5au6yOSCPbUekw8/Bqs45mtXFtVqYvHj99BZuAgViteWeCs77oW18OHbqvH8E2iESsOYnF/bcB02fnUMVqnsa1cW1ahj7p4tqPzyM5qheEsSb+mlN2FbxSJqMtiTekAsp+Sfnh0YUzDGYOzMJX9z6I+P3lULz+6BKxkW5LKtf+E1lG+9A1anAyW3WuWWLTJQ8E9fYdpt1I7LFJBbT9k26j98i4svPo22xO5I7FOvvNV/hTjNypJAZesMynduR+W2rdlJhkgsjMmLjTFKrIw5SOSWYyUZFeJiNc4hVhV37rRWOK6j9fs8mjE21HFMRxqfpG8OFeX6Vfd+gfGZHd6g+9NJnNt1Nyy3gY6n6cJPQUm1md53AM6Nm7rKEPPPPQn3071eJQpSFh/Og7tRffkNX9PPID6XZw9ifvd9aOnmUARZrNTyEqzackSo57iWphtrR+GYljQ+BXNCRKoJP6mwUG9EVvI4OwrHjAzrU0g+Y8RYfQnpnv/+y+fCND7NCfEN2i0U5WVYqPfGdciqzqoZseX0kTEtaXwKxrLdubSI5SOz3qNEGLbv49tmYE9M+pp+5LEE7Qu/RSeytFSFK65CefPtvqKfQXzGlW0woblpR526xlFn5Lj09QG5sqMBY2XMjJ05MJe1Kpd1cpdQQlH40+utpBnx/g9iyR97KnviMl/Tj3vmR3QWFyKWLHL25BSc62/qKkIM4jOuKJib01MncO6B7YB0uF7r4eNdVnn4m95/CM7Nmz1dmPln9qCx7/3Y5rS061FUX5WKFMMgPgdvTqVMKlkz+PQaFuqNPZmU3Tg7inEtSeNTSJ5DdCCHsCS9sc6OMqxtop2Qu6KwChPiXJBDWJJ6Kp0dZVjbRDvBnBDfuFDwvjIKC/VGB5wHMXYU41xI41PI3Tq01pxmnbWEsk7unlgTm9O5+7fBkR4q3Ci6UkI3fn5E35w+9Tjan3yAetBQKItx4aFHUH39HV/TzyA+h2pOUSiiJS/DQr1xPRHndBSx5QfP9URHGp+COSHB0ryBTv9vkMZnYkKjxipMSKoSTwoL9UakSsXZUZL6saF9Ct55WuSetcbXQVXGI0I9x7WMObF2FI5pSeNTMJZt/lrWPP+r9zqOsSuv1u5h4K90aulSbHNqrZtA8fJqVxFiEJ+rsznNyjaYf0JcrH0J8faoHz+G2tFZ1A8fQu37o+ZfCv5vJBbG5MXGGCXWyC3dm0O9vT69Kce9PrhhE6797JtM7fU5u/Mu4PTJv/f69BLiXp/k1mcEsVWrhYpk1xN+s9kT5Tb807IDYwrGGIydueRvvxzLn6/LAcBfVi+J3K31fAoAAAAASUVORK5CYII=;" vertex="1" parent="1">
          <mxGeometry x="330" y="280" width="28.89" height="30" as="geometry" />
        </mxCell>
        <mxCell id="YyGTKT00KESnd8j7vxBD-22" value="Beacon" style="html=1;verticalLabelPosition=bottom;align=center;labelBackgroundColor=#ffffff;verticalAlign=top;strokeWidth=2;strokeColor=#0080F0;shadow=0;dashed=0;shape=mxgraph.ios7.icons.mail;fontFamily=Times New Roman;" vertex="1" parent="1">
          <mxGeometry x="450" y="320" width="30" height="16.5" as="geometry" />
        </mxCell>
        <mxCell id="YyGTKT00KESnd8j7vxBD-27" style="edgeStyle=orthogonalEdgeStyle;rounded=0;orthogonalLoop=1;jettySize=auto;html=1;exitX=1;exitY=0.5;exitDx=0;exitDy=0;entryX=1;entryY=0.25;entryDx=0;entryDy=0;" edge="1" parent="1" source="YyGTKT00KESnd8j7vxBD-2" target="YyGTKT00KESnd8j7vxBD-2">
          <mxGeometry relative="1" as="geometry" />
        </mxCell>
        <mxCell id="YyGTKT00KESnd8j7vxBD-30" value="&lt;font face=&quot;Times New Roman&quot;&gt;&lt;b&gt;1&lt;/b&gt;&lt;/font&gt;" style="ellipse;whiteSpace=wrap;html=1;aspect=fixed;fillColor=#dae8fc;strokeColor=#6c8ebf;" vertex="1" parent="1">
          <mxGeometry x="490" y="320.01" width="20" height="20" as="geometry" />
        </mxCell>
        <mxCell id="YyGTKT00KESnd8j7vxBD-31" value="&lt;font face=&quot;Times New Roman&quot;&gt;&lt;b&gt;2&lt;/b&gt;&lt;/font&gt;" style="ellipse;whiteSpace=wrap;html=1;aspect=fixed;fillColor=#d5e8d4;strokeColor=#82b366;" vertex="1" parent="1">
          <mxGeometry x="650" y="340.01" width="20" height="20" as="geometry" />
        </mxCell>
        <mxCell id="YyGTKT00KESnd8j7vxBD-32" value="&lt;font face=&quot;Times New Roman&quot;&gt;&lt;b&gt;3&lt;/b&gt;&lt;/font&gt;" style="ellipse;whiteSpace=wrap;html=1;aspect=fixed;fillColor=#f8cecc;strokeColor=#b85450;" vertex="1" parent="1">
          <mxGeometry x="650" y="409.75" width="20" height="20" as="geometry" />
        </mxCell>
      </root>
    </mxGraphModel>
  </diagram>
</mxfile>
